Cambay Devanagari-Regular.ufo
<glyph name="exclam" format="1">
  <advance width="245"/>
  <unicode hex="0021"/>
  <outline>
    <contour>
      <point x="140" y="90" type="line"/>
      <point x="195" y="90" type="line"/>
      <point x="195" y="473" type="line"/>
      <point x="140" y="473" type="line"/>
    </contour>
    <contour>
      <point x="137" y="-32" type="line"/>
      <point x="198" y="-32" type="line"/>
      <point x="198" y="28" type="line"/>
      <point x="137" y="28" type="line"/>
    </contour>
  </outline>
</glyph>
<glyph name="numbersign" format="1">
  <advance width="551"/>
  <unicode hex="0023"/>
  <outline>
    <contour>
      <point x="215" y="494" type="line"/>
      <point x="215" y="347" type="line"/>
      <point x="334" y="347" type="line"/>
      <point x="334" y="494" type="line"/>
      <point x="390" y="494" type="line"/>
      <point x="390" y="347" type="line"/>
      <point x="515" y="347" type="line"/>
      <point x="515" y="295" type="line"/>
      <point x="390" y="295" type="line"/>
      <point x="390" y="169" type="line"/>
      <point x="515" y="169" type="line"/>
      <point x="515" y="117" type="line"/>
      <point x="390" y="117" type="line"/>
      <point x="390" y="-37" type="line"/>
      <point x="334" y="-37" type="line"/>
      <point x="334" y="117" type="line"/>
      <point x="215" y="117" type="line"/>
      <point x="215" y="-37" type="line"/>
      <point x="160" y="-37" type="line"/>
      <point x="160" y="117" type="line"/>
      <point x="37" y="117" type="line"/>
      <point x="37" y="169" type="line"/>
      <point x="160" y="169" type="line"/>
      <point x="160" y="295" type="line"/>
      <point x="36" y="295" type="line"/>
      <point x="36" y="347" type="line"/>
      <point x="160" y="347" type="line"/>
      <point x="160" y="494" type="line"/>
    </contour>
    <contour>
      <point x="334" y="169" type="line"/>
      <point x="334" y="295" type="line"/>
      <point x="215" y="295" type="line"/>
      <point x="215" y="169" type="line"/>
    </contour>
  </outline>
</glyph>
<glyph name="dollar" format="1">
  <advance width="369"/>
  <unicode hex="0024"/>
  <outline>
    <contour>
      <point x="141" y="88"/>
      <point x="95" y="98"/>
      <point x="58" y="111" type="curve"/>
      <point x="40" y="62" type="line"/>
      <point x="75" y="48"/>
      <point x="127" y="33"/>
      <point x="186" y="33" type="curve" smooth="yes"/>
      <point x="276" y="33"/>
      <point x="329" y="82"/>
      <point x="329" y="136" type="curve" smooth="yes"/>
      <point x="329" y="192"/>
      <point x="302" y="220"/>
      <point x="230" y="250" type="curve" smooth="yes"/>
      <point x="163" y="278"/>
      <point x="113" y="288"/>
      <point x="113" y="329" type="curve" smooth="yes"/>
      <point x="113" y="360"/>
      <point x="145" y="377"/>
      <point x="201" y="377" type="curve" smooth="yes"/>
      <point x="238" y="377"/>
      <point x="279" y="366"/>
      <point x="298" y="358" type="curve"/>
      <point x="314" y="406" type="line"/>
      <point x="283" y="420"/>
      <point x="237" y="431"/>
      <point x="194" y="431" type="curve" smooth="yes"/>
      <point x="117" y="431"/>
      <point x="50" y="403"/>
      <point x="50" y="330" type="curve"/>
      <point x="50" y="260"/>
      <point x="105" y="241"/>
      <point x="135" y="227" type="curve"/>
      <point x="232" y="187"/>
      <point x="265" y="177"/>
      <point x="265" y="141" type="curve" smooth="yes"/>
      <point x="265" y="104"/>
      <point x="223" y="88"/>
      <point x="181" y="88" type="curve" smooth="yes"/>
    </contour>
    <contour>
      <point x="158" y="-50" type="line"/>
      <point x="213" y="-50" type="line"/>
      <point x="213" y="63" type="line"/>
      <point x="158" y="63" type="line"/>
    </contour>
    <contour>
      <point x="158" y="400" type="line"/>
      <point x="213" y="400" type="line"/>
      <point x="213" y="513" type="line"/>
      <point x="158" y="513" type="line"/>
    </contour>
  </outline>
</glyph>
<glyph name="ampersand" format="1">
  <advance width="595"/>
  <unicode hex="0026"/>
  <outline>
    <contour>
      <point x="252" y="332" type="curve"/>
      <point x="264" y="322" type="line"/>
      <point x="547" y="0" type="line"/>
      <point x="468" y="0" type="line"/>
      <point x="209" y="291" type="line" smooth="yes"/>
      <point x="206" y="295"/>
      <point x="204" y="299"/>
      <point x="201" y="302" type="curve" smooth="yes"/>
      <point x="157" y="353"/>
      <point x="117" y="399"/>
      <point x="117" y="448" type="curve" smooth="yes"/>
      <point x="117" y="523"/>
      <point x="178" y="558"/>
      <point x="251" y="558" type="curve" smooth="yes"/>
      <point x="325" y="558"/>
      <point x="376" y="522"/>
      <point x="376" y="450" type="curve" smooth="yes"/>
      <point x="376" y="388"/>
      <point x="314" y="336"/>
      <point x="256" y="287" type="curve"/>
      <point x="255" y="286"/>
      <point x="254" y="288"/>
      <point x="253" y="287" type="curve" smooth="yes"/>
      <point x="252" y="286"/>
      <point x="250" y="285"/>
      <point x="249" y="284" type="curve"/>
      <point x="202" y="244"/>
      <point x="123" y="179"/>
      <point x="123" y="123" type="curve" smooth="yes"/>
      <point x="123" y="70"/>
      <point x="157" y="42"/>
      <point x="214" y="42" type="curve" smooth="yes"/>
      <point x="272" y="42"/>
      <point x="317" y="81"/>
      <point x="373" y="136" type="curve"/>
      <point x="389" y="158" type="line"/>
      <point x="495" y="272" type="line"/>
      <point x="537" y="234" type="line"/>
      <point x="428" y="113" type="line"/>
      <point x="409" y="89" type="line"/>
      <point x="345" y="29"/>
      <point x="295" y="-18"/>
      <point x="207" y="-18" type="curve" smooth="yes"/>
      <point x="127" y="-18"/>
      <point x="62" y="31"/>
      <point x="62" y="113" type="curve" smooth="yes"/>
      <point x="62" y="197"/>
      <point x="122" y="253"/>
      <point x="212" y="330" type="curve"/>
      <point x="214" y="331"/>
      <point x="215" y="332"/>
      <point x="216" y="331" type="curve" smooth="yes"/>
      <point x="217" y="330"/>
      <point x="218" y="331"/>
      <point x="219" y="332" type="curve"/>
      <point x="244" y="349"/>
      <point x="315" y="400"/>
      <point x="315" y="446" type="curve" smooth="yes"/>
      <point x="315" y="478"/>
      <point x="291" y="503"/>
      <point x="251" y="503" type="curve" smooth="yes"/>
      <point x="211" y="503"/>
      <point x="181" y="484"/>
      <point x="181" y="445" type="curve" smooth="yes"/>
      <point x="181" y="410"/>
      <point x="209" y="380"/>
    </contour>
  </outline>
</glyph>
<glyph name="quotesingle" format="1">
  <advance width="174"/>
  <unicode hex="0027"/>
  <outline>
    <contour>
      <point x="66" y="375" type="line"/>
      <point x="106" y="375" type="line"/>
      <point x="121" y="540" type="line"/>
      <point x="53" y="540" type="line"/>
    </contour>
  </outline>
</glyph>
<glyph name="parenleft" format="1">
  <advance width="269"/>
  <unicode hex="0028"/>
  <outline>
    <contour>
      <point x="125" y="279"/>
      <point x="134" y="337"/>
      <point x="151" y="398" type="curve" smooth="yes"/>
      <point x="169" y="459"/>
      <point x="196" y="517"/>
      <point x="229" y="574" type="curve"/>
      <point x="185" y="598" type="line"/>
      <point x="123" y="498"/>
      <point x="63" y="370"/>
      <point x="63" y="224" type="curve" smooth="yes"/>
      <point x="63" y="78"/>
      <point x="123" y="-50"/>
      <point x="185" y="-150" type="curve"/>
      <point x="229" y="-126" type="line"/>
      <point x="196" y="-69"/>
      <point x="169" y="-11"/>
      <point x="151" y="50" type="curve" smooth="yes"/>
      <point x="134" y="111"/>
      <point x="125" y="169"/>
      <point x="125" y="222" type="curve" smooth="yes"/>
    </contour>
  </outline>
</glyph>
<glyph name="asterisk" format="1">
  <advance width="450"/>
  <unicode hex="002A"/>
  <outline>
    <contour>
      <point x="199" y="424" type="line"/>
      <point x="103" y="487" type="line"/>
      <point x="73" y="436" type="line"/>
      <point x="176" y="383" type="line"/>
      <point x="73" y="329" type="line"/>
      <point x="103" y="279" type="line"/>
      <point x="199" y="341" type="line"/>
      <point x="195" y="225" type="line"/>
      <point x="253" y="225" type="line"/>
      <point x="252" y="341" type="line"/>
      <point x="348" y="278" type="line"/>
      <point x="376" y="327" type="line"/>
      <point x="275" y="380" type="line"/>
      <point x="377" y="436" type="line"/>
      <point x="347" y="487" type="line"/>
      <point x="251" y="424" type="line"/>
      <point x="253" y="540" type="line"/>
      <point x="195" y="540" type="line"/>
    </contour>
  </outline>
</glyph>
<glyph name="comma" format="1">
  <advance width="220"/>
  <unicode hex="002C"/>
  <outline>
    <contour>
      <point x="79" y="-29"/>
      <point x="51" y="-78"/>
      <point x="43" y="-92" type="curve"/>
      <point x="67" y="-108" type="line"/>
      <point x="101" y="-79"/>
      <point x="144" y="-31"/>
      <point x="144" y="19" type="curve" smooth="yes"/>
      <point x="144" y="51"/>
      <point x="125" y="70"/>
      <point x="97" y="70" type="curve" smooth="yes"/>
      <point x="68" y="70"/>
      <point x="51" y="51"/>
      <point x="51" y="27" type="curve" smooth="yes"/>
      <point x="51" y="4"/>
      <point x="65" y="-14"/>
      <point x="90" y="-19" type="curve"/>
      <point x="87" y="-8" type="line"/>
    </contour>
  </outline>
</glyph>
<glyph name="hyphen" format="1">
  <advance width="346"/>
  <unicode hex="002D"/>
  <outline>
    <contour>
      <point x="40" y="190" type="line"/>
      <point x="286" y="190" type="line"/>
      <point x="286" y="237" type="line"/>
      <point x="40" y="237" type="line"/>
    </contour>
  </outline>
</glyph>
<glyph name="period" format="1">
  <advance width="220"/>
  <unicode hex="002E"/>
  <outline>
    <contour>
      <point x="139" y="-6"/>
      <point x="157" y="15"/>
      <point x="157" y="41" type="curve" smooth="yes"/>
      <point x="157" y="67"/>
      <point x="139" y="88"/>
      <point x="110" y="88" type="curve" smooth="yes"/>
      <point x="81" y="88"/>
      <point x="63" y="67"/>
      <point x="63" y="41" type="curve" smooth="yes"/>
      <point x="63" y="15"/>
      <point x="81" y="-6"/>
      <point x="110" y="-6" type="curve" smooth="yes"/>
    </contour>
  </outline>
</glyph>
<glyph name="slash" format="1">
  <advance width="299"/>
  <unicode hex="002F"/>
  <outline>
    <contour>
      <point x="269" y="550" type="line"/>
      <point x="77" y="-35" type="line"/>
      <point x="15" y="-35" type="line"/>
      <point x="207" y="550" type="line"/>
    </contour>
  </outline>
</glyph>
<glyph name="zero" format="1">
  <advance width="440"/>
  <unicode hex="0030"/>
  <outline>
    <contour>
      <point x="128.91" y="44.92"/>
      <point x="100.59" y="139.65"/>
      <point x="100.59" y="227.54" type="curve" smooth="yes"/>
      <point x="100.59" y="316.41"/>
      <point x="128.91" y="411.13"/>
      <point x="219.73" y="411.13" type="curve" smooth="yes"/>
      <point x="310.55" y="411.13"/>
      <point x="338.87" y="316.41"/>
      <point x="338.87" y="227.54" type="curve" smooth="yes"/>
      <point x="338.87" y="139.65"/>
      <point x="310.55" y="44.92"/>
      <point x="219.73" y="44.92" type="curve" smooth="yes"/>
    </contour>
    <contour>
      <point x="97.66" y="463.87"/>
      <point x="40.04" y="356.45"/>
      <point x="40.04" y="227.54" type="curve" smooth="yes"/>
      <point x="40.04" y="99.61"/>
      <point x="97.66" y="-7.81"/>
      <point x="220.7" y="-7.81" type="curve" smooth="yes"/>
      <point x="341.8" y="-7.81"/>
      <point x="399.41" y="99.61"/>
      <point x="399.41" y="227.54" type="curve" smooth="yes"/>
      <point x="399.41" y="356.45"/>
      <point x="341.8" y="463.87"/>
      <point x="218.75" y="463.87" type="curve"/>
      <point x="220.7" y="463.87" type="line"/>
    </contour>
  </outline>
</glyph>
<glyph name="two" format="1">
  <advance width="357"/>
  <unicode hex="0032"/>
  <outline>
    <contour>
      <point x="88" y="386"/>
      <point x="117" y="407"/>
      <point x="172" y="407" type="curve" smooth="yes"/>
      <point x="226" y="407"/>
      <point x="259" y="379"/>
      <point x="259" y="332" type="curve" smooth="yes"/>
      <point x="259" y="296"/>
      <point x="251" y="273"/>
      <point x="196" y="210" type="curve" smooth="yes"/>
      <point x="163" y="173"/>
      <point x="110" y="122"/>
      <point x="41" y="43" type="curve"/>
      <point x="41" y="0" type="line"/>
      <point x="321" y="0" type="line"/>
      <point x="321" y="55" type="line"/>
      <point x="130" y="55" type="line"/>
      <point x="208" y="137" type="line" smooth="yes"/>
      <point x="275" y="207"/>
      <point x="318" y="257"/>
      <point x="318" y="332" type="curve" smooth="yes"/>
      <point x="318" y="424"/>
      <point x="243" y="465"/>
      <point x="181" y="465" type="curve" smooth="yes"/>
      <point x="107" y="465"/>
      <point x="63" y="438"/>
      <point x="30" y="420" type="curve"/>
      <point x="52" y="368" type="line"/>
    </contour>
  </outline>
</glyph>
<glyph name="four" format="1">
  <advance width="493"/>
  <unicode hex="0034"/>
  <outline>
    <contour>
      <point x="266" y="456" type="line"/>
      <point x="43" y="94" type="line"/>
      <point x="43" y="48" type="line"/>
      <point x="299" y="48" type="line"/>
      <point x="299" y="-94" type="line"/>
      <point x="359" y="-94" type="line"/>
      <point x="359" y="48" type="line"/>
      <point x="455" y="48" type="line"/>
      <point x="455" y="105" type="line"/>
      <point x="359" y="105" type="line"/>
      <point x="359" y="456" type="line"/>
    </contour>
    <contour>
      <point x="119" y="105" type="line"/>
      <point x="299" y="397" type="line"/>
      <point x="299" y="105" type="line"/>
    </contour>
  </outline>
</glyph>
<glyph name="five" format="1">
  <advance width="367"/>
  <unicode hex="0035"/>
  <outline>
    <contour>
      <point x="239" y="237"/>
      <point x="275" y="208"/>
      <point x="275" y="145" type="curve" smooth="yes"/>
      <point x="275" y="79"/>
      <point x="228" y="54"/>
      <point x="151" y="54" type="curve" smooth="yes"/>
      <point x="115" y="54"/>
      <point x="78" y="64"/>
      <point x="46" y="74" type="curve"/>
      <point x="30" y="15" type="line"/>
      <point x="70" y="1"/>
      <point x="117" y="-7"/>
      <point x="152" y="-7" type="curve" smooth="yes"/>
      <point x="245" y="-7"/>
      <point x="337" y="29"/>
      <point x="337" y="146" type="curve" smooth="yes"/>
      <point x="337" y="229"/>
      <point x="282" y="294"/>
      <point x="169" y="294" type="curve" smooth="yes"/>
      <point x="150" y="294"/>
      <point x="138" y="294"/>
      <point x="113" y="291" type="curve"/>
      <point x="113" y="401" type="line"/>
      <point x="310" y="401" type="line"/>
      <point x="310" y="456" type="line"/>
      <point x="50" y="456" type="line"/>
      <point x="50" y="235" type="line"/>
      <point x="65" y="230" type="line"/>
      <point x="93" y="234"/>
      <point x="118" y="237"/>
      <point x="145" y="237" type="curve" smooth="yes"/>
    </contour>
  </outline>
</glyph>
<glyph name="six" format="1">
  <advance width="385"/>
  <unicode hex="0036"/>
  <outline>
    <contour>
      <point x="106" y="183"/>
      <point x="141" y="227"/>
      <point x="206" y="227" type="curve" smooth="yes"/>
      <point x="277" y="227"/>
      <point x="298" y="188"/>
      <point x="298" y="141" type="curve" smooth="yes"/>
      <point x="298" y="92"/>
      <point x="269" y="51"/>
      <point x="206" y="51" type="curve" smooth="yes"/>
      <point x="132" y="51"/>
      <point x="87" y="110"/>
      <point x="94" y="218" type="curve" smooth="yes"/>
      <point x="94" y="221"/>
      <point x="97" y="224"/>
      <point x="97" y="227" type="curve"/>
      <point x="97" y="316"/>
      <point x="152" y="401"/>
      <point x="306" y="396" type="curve"/>
      <point x="301" y="455" type="line"/>
      <point x="137" y="455"/>
      <point x="35" y="372"/>
      <point x="35" y="197" type="curve" smooth="yes"/>
      <point x="35" y="87"/>
      <point x="84" y="-7"/>
      <point x="205" y="-7" type="curve" smooth="yes"/>
      <point x="310" y="-7"/>
      <point x="360" y="66"/>
      <point x="360" y="142" type="curve" smooth="yes"/>
      <point x="360" y="239"/>
      <point x="292" y="284"/>
      <point x="217" y="284" type="curve" smooth="yes"/>
      <point x="152" y="284"/>
      <point x="104" y="255"/>
      <point x="80" y="223" type="curve"/>
      <point x="86" y="154" type="line"/>
    </contour>
  </outline>
</glyph>
<glyph name="seven" format="1">
  <advance width="341"/>
  <unicode hex="0037"/>
  <outline>
    <contour>
      <point x="20" y="457" type="line"/>
      <point x="20" y="401" type="line"/>
      <point x="246" y="401" type="line"/>
      <point x="55" y="0" type="line"/>
      <point x="122" y="0" type="line"/>
      <point x="321" y="417" type="line"/>
      <point x="321" y="457" type="line"/>
    </contour>
  </outline>
</glyph>
<glyph name="eight" format="1">
  <advance width="600"/>
  <unicode hex="0038"/>
  <outline>
    <contour>
      <point x="268" y="504"/>
      <point x="285" y="503"/>
      <point x="299" y="496" type="curve"/>
      <point x="327" y="484"/>
      <point x="351" y="465"/>
      <point x="351" y="424" type="curve" smooth="yes"/>
      <point x="351" y="376"/>
      <point x="304" y="348"/>
      <point x="270" y="328" type="curve"/>
      <point x="228" y="341" type="line"/>
      <point x="177" y="360"/>
      <point x="153" y="389"/>
      <point x="153" y="426" type="curve" smooth="yes"/>
      <point x="153" y="476"/>
      <point x="200" y="504"/>
      <point x="249" y="504" type="curve" smooth="yes"/>
    </contour>
    <contour>
      <point x="180" y="49"/>
      <point x="125" y="93"/>
      <point x="125" y="157" type="curve" smooth="yes"/>
      <point x="125" y="221"/>
      <point x="189" y="266"/>
      <point x="245" y="282" type="curve"/>
      <point x="260" y="279"/>
      <point x="275" y="275"/>
      <point x="286" y="270" type="curve"/>
      <point x="351" y="245"/>
      <point x="378" y="206"/>
      <point x="378" y="153" type="curve" smooth="yes"/>
      <point x="378" y="89"/>
      <point x="323" y="49"/>
      <point x="255" y="49" type="curve" smooth="yes"/>
    </contour>
    <contour>
      <point x="200" y="558"/>
      <point x="161" y="545"/>
      <point x="132" y="518" type="curve"/>
      <point x="111" y="500"/>
      <point x="89" y="467"/>
      <point x="89" y="433" type="curve" smooth="yes"/>
      <point x="89" y="419"/>
      <point x="89" y="408"/>
      <point x="92" y="399" type="curve"/>
      <point x="101" y="358"/>
      <point x="129" y="326"/>
      <point x="170" y="305" type="curve"/>
      <point x="116" y="279"/>
      <point x="60" y="225"/>
      <point x="60" y="152" type="curve" smooth="yes"/>
      <point x="60" y="121"/>
      <point x="68" y="93"/>
      <point x="85" y="69" type="curve" smooth="yes"/>
      <point x="118" y="23"/>
      <point x="170" y="-9"/>
      <point x="255" y="-9" type="curve" smooth="yes"/>
      <point x="324" y="-9"/>
      <point x="375" y="14"/>
      <point x="412" y="63" type="curve" smooth="yes"/>
      <point x="434" y="91"/>
      <point x="444" y="123"/>
      <point x="444" y="159" type="curve" smooth="yes"/>
      <point x="444" y="189"/>
      <point x="435" y="218"/>
      <point x="417" y="244" type="curve" smooth="yes"/>
      <point x="399" y="269"/>
      <point x="374" y="291"/>
      <point x="336" y="308" type="curve"/>
      <point x="381" y="339"/>
      <point x="415" y="375"/>
      <point x="415" y="430" type="curve" smooth="yes"/>
      <point x="415" y="514"/>
      <point x="348" y="558"/>
      <point x="252" y="558" type="curve" smooth="yes"/>
    </contour>
  </outline>
</glyph>
<glyph name="nine" format="1">
  <advance width="600"/>
  <unicode hex="0039"/>
  <outline>
    <contour>
      <point x="253" y="-4"/>
      <point x="347" y="79"/>
      <point x="347" y="253" type="curve" smooth="yes"/>
      <point x="347" y="362"/>
      <point x="306" y="456"/>
      <point x="186" y="456" type="curve" smooth="yes"/>
      <point x="88" y="456"/>
      <point x="30" y="385"/>
      <point x="30" y="307" type="curve" smooth="yes"/>
      <point x="30" y="211"/>
      <point x="100" y="166"/>
      <point x="174" y="165" type="curve" smooth="yes"/>
      <point x="220" y="165"/>
      <point x="266" y="180"/>
      <point x="291" y="191" type="curve"/>
      <point x="290" y="177"/>
      <point x="284" y="164"/>
      <point x="281" y="155" type="curve"/>
      <point x="250" y="79"/>
      <point x="201" y="44"/>
      <point x="86" y="44" type="curve"/>
      <point x="89" y="-4" type="line"/>
    </contour>
    <contour>
      <point x="269" y="409"/>
      <point x="298" y="336"/>
      <point x="294" y="249" type="curve"/>
      <point x="274" y="229"/>
      <point x="227" y="213"/>
      <point x="186" y="213" type="curve" smooth="yes"/>
      <point x="115" y="213"/>
      <point x="85" y="251"/>
      <point x="85" y="309" type="curve" smooth="yes"/>
      <point x="85" y="367"/>
      <point x="121" y="409"/>
      <point x="186" y="409" type="curve" smooth="yes"/>
    </contour>
  </outline>
</glyph>
<glyph name="colon" format="1">
  <advance width="234"/>
  <unicode hex="003A"/>
  <outline>
    <contour>
      <point x="144" y="-6"/>
      <point x="160" y="13"/>
      <point x="160" y="37" type="curve" smooth="yes"/>
      <point x="160" y="61"/>
      <point x="144" y="80"/>
      <point x="117" y="80" type="curve" smooth="yes"/>
      <point x="90" y="80"/>
      <point x="74" y="61"/>
      <point x="74" y="37" type="curve" smooth="yes"/>
      <point x="74" y="13"/>
      <point x="90" y="-6"/>
      <point x="117" y="-6" type="curve" smooth="yes"/>
    </contour>
    <contour>
      <point x="144" y="204"/>
      <point x="160" y="223"/>
      <point x="160" y="247" type="curve" smooth="yes"/>
      <point x="160" y="271"/>
      <point x="144" y="290"/>
      <point x="117" y="290" type="curve" smooth="yes"/>
      <point x="90" y="290"/>
      <point x="74" y="271"/>
      <point x="74" y="247" type="curve" smooth="yes"/>
      <point x="74" y="223"/>
      <point x="90" y="204"/>
      <point x="117" y="204" type="curve" smooth="yes"/>
    </contour>
  </outline>
</glyph>
<glyph name="semicolon" format="1">
  <advance width="234"/>
  <unicode hex="003B"/>
  <outline>
    <contour>
      <point x="144" y="234"/>
      <point x="160" y="253"/>
      <point x="160" y="277" type="curve" smooth="yes"/>
      <point x="160" y="301"/>
      <point x="144" y="320"/>
      <point x="117" y="320" type="curve" smooth="yes"/>
      <point x="90" y="320"/>
      <point x="74" y="301"/>
      <point x="74" y="277" type="curve" smooth="yes"/>
      <point x="74" y="253"/>
      <point x="90" y="234"/>
      <point x="117" y="234" type="curve" smooth="yes"/>
    </contour>
    <contour>
      <point x="99" y="-29"/>
      <point x="71" y="-78"/>
      <point x="63" y="-92" type="curve"/>
      <point x="87" y="-108" type="line"/>
      <point x="121" y="-79"/>
      <point x="164" y="-31"/>
      <point x="164" y="19" type="curve" smooth="yes"/>
      <point x="164" y="51"/>
      <point x="145" y="70"/>
      <point x="117" y="70" type="curve" smooth="yes"/>
      <point x="88" y="70"/>
      <point x="71" y="51"/>
      <point x="71" y="27" type="curve" smooth="yes"/>
      <point x="71" y="4"/>
      <point x="85" y="-14"/>
      <point x="110" y="-19" type="curve"/>
      <point x="107" y="-8" type="line"/>
    </contour>
  </outline>
</glyph>
<glyph name="less" format="1">
  <advance width="426"/>
  <unicode hex="003C"/>
  <outline>
    <contour>
      <point x="40" y="272" type="line"/>
      <point x="378" y="439" type="line"/>
      <point x="378" y="377" type="line"/>
      <point x="107" y="240" type="line"/>
      <point x="378" y="104" type="line"/>
      <point x="378" y="42" type="line"/>
      <point x="40" y="208" type="line"/>
    </contour>
  </outline>
</glyph>
<glyph name="question" format="1">
  <advance width="387"/>
  <unicode hex="003F"/>
  <outline>
    <contour>
      <point x="159" y="475"/>
      <point x="116" y="459"/>
      <point x="80" y="443" type="curve"/>
      <point x="98" y="394" type="line"/>
      <point x="130" y="408"/>
      <point x="163" y="424"/>
      <point x="209" y="424" type="curve" smooth="yes"/>
      <point x="250" y="424"/>
      <point x="294" y="411"/>
      <point x="294" y="349" type="curve" smooth="yes"/>
      <point x="294" y="304"/>
      <point x="252" y="273"/>
      <point x="226" y="248" type="curve" smooth="yes"/>
      <point x="186" y="209"/>
      <point x="153" y="183"/>
      <point x="153" y="91" type="curve"/>
      <point x="208" y="91" type="line"/>
      <point x="208" y="164"/>
      <point x="224" y="172"/>
      <point x="281" y="229" type="curve" smooth="yes"/>
      <point x="318" y="266"/>
      <point x="348" y="298"/>
      <point x="348" y="347" type="curve" smooth="yes"/>
      <point x="348" y="424"/>
      <point x="296" y="475"/>
      <point x="214" y="475" type="curve" smooth="yes"/>
    </contour>
    <contour>
      <point x="206" y="-40"/>
      <point x="220" y="-24"/>
      <point x="220" y="-2" type="curve" smooth="yes"/>
      <point x="220" y="20"/>
      <point x="207" y="36"/>
      <point x="182" y="36" type="curve" smooth="yes"/>
      <point x="157" y="36"/>
      <point x="144" y="20"/>
      <point x="144" y="-2" type="curve" smooth="yes"/>
      <point x="144" y="-24"/>
      <point x="157" y="-40"/>
      <point x="182" y="-40" type="curve" smooth="yes"/>
    </contour>
  </outline>
</glyph>
<glyph name="at" format="1">
  <advance width="799"/>
  <unicode hex="0040"/>
  <outline>
    <contour>
      <point x="552" y="117" type="line" smooth="yes"/>
      <point x="552" y="69"/>
      <point x="565" y="45"/>
      <point x="604" y="45" type="curve" smooth="yes"/>
      <point x="633" y="45"/>
      <point x="649" y="66"/>
      <point x="661" y="86" type="curve"/>
      <point x="676" y="117"/>
      <point x="686" y="161"/>
      <point x="686" y="225" type="curve" smooth="yes"/>
      <point x="686" y="375"/>
      <point x="597" y="489"/>
      <point x="415" y="489" type="curve" smooth="yes"/>
      <point x="237" y="489"/>
      <point x="117" y="365"/>
      <point x="117" y="192" type="curve" smooth="yes"/>
      <point x="117" y="-3"/>
      <point x="241" y="-102"/>
      <point x="394" y="-102" type="curve" smooth="yes"/>
      <point x="434" y="-102"/>
      <point x="475" y="-97"/>
      <point x="518" y="-82" type="curve"/>
      <point x="518" y="-135" type="line"/>
      <point x="467" y="-150"/>
      <point x="419" y="-158"/>
      <point x="374" y="-158" type="curve" smooth="yes"/>
      <point x="206" y="-158"/>
      <point x="47" y="-44"/>
      <point x="47" y="188" type="curve" smooth="yes"/>
      <point x="47" y="400"/>
      <point x="207" y="543"/>
      <point x="403" y="543" type="curve" smooth="yes"/>
      <point x="639" y="543"/>
      <point x="752" y="405"/>
      <point x="752" y="239" type="curve" smooth="yes"/>
      <point x="752" y="142"/>
      <point x="731" y="76"/>
      <point x="682" y="29" type="curve"/>
      <point x="655" y="5"/>
      <point x="625" y="-10"/>
      <point x="594" y="-10" type="curve" smooth="yes"/>
      <point x="551" y="-10"/>
      <point x="520" y="8"/>
      <point x="503" y="43" type="curve"/>
      <point x="472" y="8"/>
      <point x="435" y="-10"/>
      <point x="388" y="-10" type="curve" smooth="yes"/>
      <point x="299" y="-10"/>
      <point x="222" y="58"/>
      <point x="222" y="178" type="curve" smooth="yes"/>
      <point x="222" y="307"/>
      <point x="303" y="381"/>
      <point x="408" y="381" type="curve" smooth="yes"/>
      <point x="439" y="381"/>
      <point x="471" y="374"/>
      <point x="504" y="361" type="curve"/>
      <point x="510" y="377" type="line"/>
      <point x="552" y="377" type="line"/>
    </contour>
    <contour>
      <point x="292" y="102"/>
      <point x="325" y="46"/>
      <point x="404" y="46" type="curve" smooth="yes"/>
      <point x="440" y="46"/>
      <point x="468" y="59"/>
      <point x="490" y="87" type="curve"/>
      <point x="490" y="317" type="line"/>
      <point x="466" y="328"/>
      <point x="443" y="332"/>
      <point x="416" y="332" type="curve" smooth="yes"/>
      <point x="339" y="332"/>
      <point x="292" y="274"/>
      <point x="292" y="185" type="curve" smooth="yes"/>
    </contour>
  </outline>
</glyph>
<glyph name="D" format="1">
  <advance width="558"/>
  <unicode hex="0044"/>
  <outline>
    <contour>
      <point x="256" y="58" type="line" smooth="yes"/>
      <point x="351" y="58"/>
      <point x="399" y="100"/>
      <point x="427" y="159" type="curve" smooth="yes"/>
      <point x="443" y="192"/>
      <point x="447" y="232"/>
      <point x="447" y="275" type="curve" smooth="yes"/>
      <point x="447" y="318"/>
      <point x="439" y="356"/>
      <point x="424" y="389" type="curve"/>
      <point x="409" y="418"/>
      <point x="392" y="444"/>
      <point x="365" y="463" type="curve" smooth="yes"/>
      <point x="338" y="482"/>
      <point x="304" y="493"/>
      <point x="256" y="493" type="curve" smooth="yes"/>
      <point x="133" y="493" type="line"/>
      <point x="133" y="58" type="line"/>
    </contour>
    <contour>
      <point x="67" y="0" type="line"/>
      <point x="67" y="550" type="line"/>
      <point x="261" y="550" type="line" smooth="yes"/>
      <point x="374" y="550"/>
      <point x="448" y="500"/>
      <point x="488" y="424" type="curve" smooth="yes"/>
      <point x="509" y="381"/>
      <point x="520" y="332"/>
      <point x="520" y="275" type="curve" smooth="yes"/>
      <point x="520" y="219"/>
      <point x="511" y="170"/>
      <point x="488" y="127" type="curve" smooth="yes"/>
      <point x="448" y="48"/>
      <point x="374" y="0"/>
      <point x="261" y="0" type="curve" smooth="yes"/>
    </contour>
    <contour>
      <point x="219" y="550" type="move" name="top.cap"/>
    </contour>
  </outline>
</glyph>
<glyph name="J" format="1">
  <advance width="313"/>
  <unicode hex="004A"/>
  <outline>
    <contour>
      <point x="253" y="550" type="line"/>
      <point x="253" y="165" type="line" smooth="yes"/>
      <point x="253" y="105"/>
      <point x="244" y="73"/>
      <point x="216" y="42" type="curve" smooth="yes"/>
      <point x="185" y="9"/>
      <point x="141" y="-7"/>
      <point x="83" y="-7" type="curve" smooth="yes"/>
      <point x="58" y="-7"/>
      <point x="33" y="-4"/>
      <point x="9" y="2" type="curve"/>
      <point x="18" y="58" type="line"/>
      <point x="39" y="53"/>
      <point x="58" y="50"/>
      <point x="73" y="50" type="curve" smooth="yes"/>
      <point x="132" y="50"/>
      <point x="172" y="77"/>
      <point x="184" y="121" type="curve"/>
      <point x="187" y="130"/>
      <point x="188" y="145"/>
      <point x="188" y="161" type="curve" smooth="yes"/>
      <point x="188" y="550" type="line"/>
    </contour>
    <contour>
      <point x="220" y="550" type="move" name="top.cap"/>
    </contour>
  </outline>
</glyph>
<glyph name="K" format="1">
  <advance width="497"/>
  <unicode hex="004B"/>
  <outline>
    <contour>
      <point x="133" y="550" type="line"/>
      <point x="133" y="0" type="line"/>
      <point x="67" y="0" type="line"/>
      <point x="67" y="550" type="line"/>
    </contour>
    <contour>
      <point x="459" y="550" type="line"/>
      <point x="225" y="288" type="line"/>
      <point x="474" y="0" type="line"/>
      <point x="388" y="0" type="line"/>
      <point x="142" y="282" type="line"/>
      <point x="375" y="550" type="line"/>
    </contour>
    <contour>
      <point x="254" y="0" type="move" name="bottom"/>
    </contour>
  </outline>
</glyph>
<glyph name="N" format="1">
  <advance width="574"/>
  <unicode hex="004E"/>
  <outline>
    <contour>
      <point x="147" y="550" type="line"/>
      <point x="446" y="89" type="line"/>
      <point x="446" y="550" type="line"/>
      <point x="514" y="550" type="line"/>
      <point x="514" y="0" type="line"/>
      <point x="429" y="0" type="line"/>
      <point x="129" y="463" type="line"/>
      <point x="129" y="0" type="line"/>
      <point x="63" y="0" type="line"/>
      <point x="63" y="550" type="line"/>
    </contour>
    <contour>
      <point x="296" y="550" type="move" name="top.cap"/>
    </contour>
    <contour>
      <point x="278" y="0" type="move" name="bottom"/>
    </contour>
  </outline>
</glyph>
<glyph name="O" format="1">
  <advance width="606"/>
  <unicode hex="004F"/>
  <outline>
    <contour>
      <point x="189" y="556"/>
      <point x="116" y="500"/>
      <point x="76" y="424" type="curve" smooth="yes"/>
      <point x="53" y="380"/>
      <point x="44" y="331"/>
      <point x="44" y="275" type="curve" smooth="yes"/>
      <point x="44" y="219"/>
      <point x="53" y="169"/>
      <point x="76" y="127" type="curve" smooth="yes"/>
      <point x="116" y="49"/>
      <point x="189" y="-7"/>
      <point x="302" y="-7" type="curve" smooth="yes"/>
      <point x="415" y="-7"/>
      <point x="490" y="49"/>
      <point x="530" y="127" type="curve" smooth="yes"/>
      <point x="550" y="169"/>
      <point x="562" y="219"/>
      <point x="562" y="275" type="curve" smooth="yes"/>
      <point x="562" y="331"/>
      <point x="550" y="380"/>
      <point x="530" y="424" type="curve"/>
      <point x="490" y="500"/>
      <point x="415" y="556"/>
      <point x="302" y="556" type="curve" smooth="yes"/>
    </contour>
    <contour>
      <point x="212" y="51"/>
      <point x="168" y="101"/>
      <point x="140" y="161" type="curve"/>
      <point x="123" y="194"/>
      <point x="117" y="232"/>
      <point x="117" y="275" type="curve" smooth="yes"/>
      <point x="117" y="317"/>
      <point x="123" y="355"/>
      <point x="140" y="389" type="curve" smooth="yes"/>
      <point x="168" y="447"/>
      <point x="212" y="498"/>
      <point x="302" y="498" type="curve" smooth="yes"/>
      <point x="392" y="498"/>
      <point x="438" y="447"/>
      <point x="465" y="389" type="curve" smooth="yes"/>
      <point x="481" y="355"/>
      <point x="489" y="317"/>
      <point x="489" y="275" type="curve" smooth="yes"/>
      <point x="489" y="232"/>
      <point x="481" y="194"/>
      <point x="465" y="161" type="curve" smooth="yes"/>
      <point x="438" y="101"/>
      <point x="392" y="51"/>
      <point x="302" y="51" type="curve" smooth="yes"/>
    </contour>
    <contour>
      <point x="302" y="550" type="move" name="top.cap"/>
    </contour>
  </outline>
</glyph>
<glyph name="R" format="1">
  <advance width="496"/>
  <unicode hex="0052"/>
  <outline>
    <contour>
      <point x="463" y="0" type="line"/>
      <point x="307" y="237" type="line"/>
      <point x="383" y="257"/>
      <point x="432" y="313"/>
      <point x="433" y="388" type="curve" smooth="yes"/>
      <point x="433" y="464"/>
      <point x="395" y="519"/>
      <point x="331" y="541" type="curve"/>
      <point x="316" y="545"/>
      <point x="300" y="550"/>
      <point x="240" y="550" type="curve" smooth="yes"/>
      <point x="67" y="550" type="line"/>
      <point x="67" y="0" type="line"/>
      <point x="133" y="0" type="line"/>
      <point x="133" y="228" type="line"/>
      <point x="238" y="228" type="line"/>
      <point x="388" y="0" type="line"/>
    </contour>
    <contour>
      <point x="184" y="286"/>
      <point x="160" y="287"/>
      <point x="133" y="289" type="curve"/>
      <point x="133" y="494" type="line"/>
      <point x="205" y="494" type="line" smooth="yes"/>
      <point x="240" y="494"/>
      <point x="264" y="493"/>
      <point x="275" y="490" type="curve"/>
      <point x="329" y="485"/>
      <point x="367" y="452"/>
      <point x="367" y="392" type="curve" smooth="yes"/>
      <point x="367" y="296"/>
      <point x="294" y="286"/>
      <point x="205" y="286" type="curve" smooth="yes"/>
    </contour>
    <contour>
      <point x="222" y="550" type="move" name="top.cap"/>
    </contour>
    <contour>
      <point x="259" y="0" type="move" name="bottom"/>
    </contour>
  </outline>
</glyph>
<glyph name="T" format="1">
  <advance width="451"/>
  <unicode hex="0054"/>
  <outline>
    <contour>
      <point x="442" y="550" type="line"/>
      <point x="442" y="494" type="line"/>
      <point x="257" y="494" type="line"/>
      <point x="257" y="0" type="line"/>
      <point x="191" y="0" type="line"/>
      <point x="191" y="494" type="line"/>
      <point x="9" y="494" type="line"/>
      <point x="9" y="550" type="line"/>
    </contour>
    <contour>
      <point x="223" y="550" type="move" name="top.cap"/>
    </contour>
    <contour>
      <point x="219" y="0" type="move" name="bottom"/>
    </contour>
  </outline>
</glyph>
<glyph name="U" format="1">
  <advance width="542"/>
  <unicode hex="0055"/>
  <outline>
    <contour>
      <point x="421" y="-9"/>
      <point x="480" y="66"/>
      <point x="480" y="210" type="curve" smooth="yes"/>
      <point x="480" y="550" type="line"/>
      <point x="415" y="550" type="line"/>
      <point x="415" y="194" type="line" smooth="yes"/>
      <point x="415" y="161"/>
      <point x="408" y="133"/>
      <point x="396" y="110" type="curve" smooth="yes"/>
      <point x="375" y="69"/>
      <point x="334" y="49"/>
      <point x="271" y="49" type="curve" smooth="yes"/>
      <point x="207" y="49"/>
      <point x="167" y="69"/>
      <point x="145" y="110" type="curve" smooth="yes"/>
      <point x="133" y="133"/>
      <point x="127" y="161"/>
      <point x="127" y="194" type="curve" smooth="yes"/>
      <point x="127" y="550" type="line"/>
      <point x="62" y="550" type="line"/>
      <point x="62" y="210" type="line" smooth="yes"/>
      <point x="62" y="66"/>
      <point x="121" y="-9"/>
      <point x="271" y="-9" type="curve" smooth="yes"/>
    </contour>
    <contour>
      <point x="271" y="550" type="move" name="top.cap"/>
    </contour>
  </outline>
</glyph>
<glyph name="W" format="1">
  <advance width="777"/>
  <unicode hex="0057"/>
  <outline>
    <contour>
      <point x="81" y="550" type="line"/>
      <point x="219" y="88" type="line"/>
      <point x="358" y="550" type="line"/>
      <point x="425" y="550" type="line"/>
      <point x="568" y="88" type="line"/>
      <point x="703" y="550" type="line"/>
      <point x="768" y="550" type="line"/>
      <point x="603" y="0" type="line"/>
      <point x="533" y="0" type="line"/>
      <point x="388" y="460" type="line"/>
      <point x="252" y="0" type="line"/>
      <point x="182" y="0" type="line"/>
      <point x="9" y="550" type="line"/>
    </contour>
  </outline>
</glyph>
<glyph name="Y" format="1">
  <advance width="454"/>
  <unicode hex="0059"/>
  <outline>
    <contour>
      <point x="191" y="0" type="line"/>
      <point x="191" y="261" type="line"/>
      <point x="9" y="550" type="line"/>
      <point x="87" y="550" type="line"/>
      <point x="228" y="324" type="line"/>
      <point x="370" y="550" type="line"/>
      <point x="445" y="550" type="line"/>
      <point x="257" y="261" type="line"/>
      <point x="257" y="0" type="line"/>
    </contour>
    <contour>
      <point x="228" y="550" type="move" name="top.cap"/>
    </contour>
  </outline>
</glyph>
<glyph name="bracketleft" format="1">
  <advance width="304"/>
  <unicode hex="005B"/>
  <outline>
    <contour>
      <point x="241" y="-89" type="line"/>
      <point x="119" y="-89" type="line"/>
      <point x="119" y="536" type="line"/>
      <point x="241" y="536" type="line"/>
      <point x="241" y="586" type="line"/>
      <point x="63" y="586" type="line"/>
      <point x="63" y="-139" type="line"/>
      <point x="241" y="-139" type="line"/>
    </contour>
  </outline>
</glyph>
<glyph name="backslash" format="1">
  <advance width="299"/>
  <unicode hex="005C"/>
  <outline>
    <contour>
      <point x="284" y="-35" type="line"/>
      <point x="221" y="-35" type="line"/>
      <point x="30" y="550" type="line"/>
      <point x="92" y="550" type="line"/>
    </contour>
  </outline>
</glyph>
<glyph name="asciicircum" format="1">
  <advance width="389"/>
  <unicode hex="005E"/>
  <outline>
    <contour>
      <point x="97" y="407" type="line"/>
      <point x="55" y="446" type="line"/>
      <point x="195" y="598" type="line"/>
      <point x="334" y="446" type="line"/>
      <point x="292" y="407" type="line"/>
      <point x="195" y="513" type="line"/>
    </contour>
  </outline>
</glyph>
<glyph name="underscore" format="1">
  <advance width="452"/>
  <unicode hex="005F"/>
  <outline>
    <contour>
      <point x="392" y="-25" type="line"/>
      <point x="392" y="-83" type="line"/>
      <point x="60" y="-83" type="line"/>
      <point x="60" y="-25" type="line"/>
    </contour>
  </outline>
</glyph>
<glyph name="c" format="1">
  <advance width="363"/>
  <unicode hex="0063"/>
  <outline>
    <contour>
      <point x="264" y="-9"/>
      <point x="297" y="-1"/>
      <point x="334" y="13" type="curve"/>
      <point x="319" y="58" type="line"/>
      <point x="295" y="49"/>
      <point x="268" y="45"/>
      <point x="246" y="45" type="curve" smooth="yes"/>
      <point x="181" y="45"/>
      <point x="104" y="70"/>
      <point x="104" y="197" type="curve" smooth="yes"/>
      <point x="104" y="286"/>
      <point x="149" y="335"/>
      <point x="240" y="335" type="curve" smooth="yes"/>
      <point x="262" y="335"/>
      <point x="291" y="332"/>
      <point x="319" y="320" type="curve"/>
      <point x="335" y="368" type="line"/>
      <point x="300" y="383"/>
      <point x="268" y="389"/>
      <point x="237" y="389" type="curve" smooth="yes"/>
      <point x="170" y="389"/>
      <point x="121" y="370"/>
      <point x="88" y="333" type="curve"/>
      <point x="58" y="296"/>
      <point x="38" y="246"/>
      <point x="38" y="185" type="curve" smooth="yes"/>
      <point x="38" y="63"/>
      <point x="105" y="-9"/>
      <point x="224" y="-9" type="curve" smooth="yes"/>
    </contour>
    <contour>
      <point x="212" y="384" type="move" name="top"/>
    </contour>
  </outline>
</glyph>
<glyph name="o" format="1">
  <advance width="447"/>
  <unicode hex="006F"/>
  <outline>
    <contour>
      <point x="301" y="338"/>
      <point x="343" y="272"/>
      <point x="343" y="190" type="curve" smooth="yes"/>
      <point x="343" y="109"/>
      <point x="302" y="44"/>
      <point x="225" y="44" type="curve" smooth="yes"/>
      <point x="146" y="44"/>
      <point x="105" y="109"/>
      <point x="105" y="190" type="curve" smooth="yes"/>
      <point x="105" y="272"/>
      <point x="147" y="338"/>
      <point x="225" y="338" type="curve" smooth="yes"/>
    </contour>
    <contour>
      <point x="339" y="-9"/>
      <point x="409" y="72"/>
      <point x="409" y="191" type="curve" smooth="yes"/>
      <point x="409" y="312"/>
      <point x="344" y="389"/>
      <point x="225" y="389" type="curve" smooth="yes"/>
      <point x="107" y="389"/>
      <point x="38" y="311"/>
      <point x="38" y="190" type="curve" smooth="yes"/>
      <point x="38" y="71"/>
      <point x="105" y="-9"/>
      <point x="222" y="-9" type="curve" smooth="yes"/>
    </contour>
    <contour>
      <point x="225" y="384" type="move" name="top"/>
    </contour>
  </outline>
</glyph>
<glyph name="q" format="1">
  <advance width="440"/>
  <unicode hex="0071"/>
  <outline>
    <contour>
      <point x="316" y="60" type="line"/>
      <point x="289" y="47"/>
      <point x="260" y="42"/>
      <point x="231" y="42" type="curve" smooth="yes"/>
      <point x="149" y="42"/>
      <point x="105" y="105"/>
      <point x="105" y="189" type="curve" smooth="yes"/>
      <point x="105" y="276"/>
      <point x="147" y="335"/>
      <point x="230" y="335" type="curve" smooth="yes"/>
      <point x="269" y="335"/>
      <point x="290" y="328"/>
      <point x="316" y="312" type="curve"/>
    </contour>
    <contour>
      <point x="256" y="-10"/>
      <point x="287" y="-4"/>
      <point x="316" y="9" type="curve"/>
      <point x="316" y="-208" type="line"/>
      <point x="384" y="-208" type="line"/>
      <point x="384" y="383" type="line"/>
      <point x="335" y="383" type="line"/>
      <point x="324" y="355" type="line"/>
      <point x="290" y="378"/>
      <point x="255" y="389"/>
      <point x="217" y="389" type="curve" smooth="yes"/>
      <point x="178" y="389"/>
      <point x="146" y="381"/>
      <point x="119" y="365" type="curve"/>
      <point x="66" y="331"/>
      <point x="38" y="275"/>
      <point x="38" y="196" type="curve" smooth="yes"/>
      <point x="38" y="129"/>
      <point x="58" y="78"/>
      <point x="93" y="42" type="curve"/>
      <point x="129" y="9"/>
      <point x="172" y="-10"/>
      <point x="225" y="-10" type="curve" smooth="yes"/>
    </contour>
  </outline>
</glyph>
<glyph name="s" format="1">
  <advance width="370"/>
  <unicode hex="0073"/>
  <outline>
    <contour>
      <point x="137" y="46"/>
      <point x="91" y="56"/>
      <point x="54" y="69" type="curve"/>
      <point x="36" y="20" type="line"/>
      <point x="71" y="6"/>
      <point x="123" y="-9"/>
      <point x="182" y="-9" type="curve" smooth="yes"/>
      <point x="272" y="-9"/>
      <point x="325" y="40"/>
      <point x="325" y="94" type="curve" smooth="yes"/>
      <point x="325" y="150"/>
      <point x="298" y="178"/>
      <point x="226" y="208" type="curve" smooth="yes"/>
      <point x="159" y="236"/>
      <point x="111" y="246"/>
      <point x="111" y="287" type="curve" smooth="yes"/>
      <point x="111" y="318"/>
      <point x="151" y="335"/>
      <point x="207" y="335" type="curve" smooth="yes"/>
      <point x="244" y="335"/>
      <point x="275" y="324"/>
      <point x="294" y="316" type="curve"/>
      <point x="310" y="364" type="line"/>
      <point x="279" y="378"/>
      <point x="243" y="389"/>
      <point x="200" y="389" type="curve" smooth="yes"/>
      <point x="123" y="389"/>
      <point x="46" y="361"/>
      <point x="46" y="283" type="curve"/>
      <point x="46" y="218"/>
      <point x="99" y="197"/>
      <point x="129" y="183" type="curve"/>
      <point x="226" y="143"/>
      <point x="261" y="135"/>
      <point x="261" y="99" type="curve" smooth="yes"/>
      <point x="261" y="62"/>
      <point x="219" y="46"/>
      <point x="177" y="46" type="curve" smooth="yes"/>
    </contour>
    <contour>
      <point x="180" y="384" type="move" name="top"/>
    </contour>
    <contour>
      <point x="169" y="0" type="move" name="bottom"/>
    </contour>
  </outline>
</glyph>
<glyph name="v" format="1">
  <advance width="401"/>
  <unicode hex="0076"/>
  <outline>
    <contour>
      <point x="312" y="384" type="line"/>
      <point x="205" y="83" type="line"/>
      <point x="202" y="63" type="line"/>
      <point x="198" y="83" type="line"/>
      <point x="92" y="384" type="line"/>
      <point x="22" y="384" type="line"/>
      <point x="165" y="0" type="line"/>
      <point x="237" y="0" type="line"/>
      <point x="379" y="384" type="line"/>
    </contour>
  </outline>
</glyph>
<glyph name="w" format="1">
  <advance width="645"/>
  <unicode hex="0077"/>
  <outline>
    <contour>
      <point x="152" y="0" type="line"/>
      <point x="224" y="0" type="line"/>
      <point x="321" y="297" type="line"/>
      <point x="418" y="0" type="line"/>
      <point x="491" y="0" type="line"/>
      <point x="623" y="384" type="line"/>
      <point x="557" y="384" type="line"/>
      <point x="457" y="77" type="line"/>
      <point x="455" y="62" type="line"/>
      <point x="452" y="77" type="line"/>
      <point x="356" y="384" type="line"/>
      <point x="293" y="384" type="line"/>
      <point x="192" y="77" type="line"/>
      <point x="190" y="62" type="line"/>
      <point x="189" y="77" type="line"/>
      <point x="88" y="384" type="line"/>
      <point x="22" y="384" type="line"/>
    </contour>
  </outline>
</glyph>
<glyph name="braceleft" format="1">
  <advance width="309"/>
  <unicode hex="007B"/>
  <outline>
    <contour>
      <point x="35" y="240" type="line"/>
      <point x="84" y="248"/>
      <point x="129" y="290"/>
      <point x="129" y="344" type="curve" smooth="yes"/>
      <point x="129" y="419" type="line" smooth="yes"/>
      <point x="129" y="522"/>
      <point x="196" y="576"/>
      <point x="270" y="586" type="curve"/>
      <point x="284" y="531" type="line"/>
      <point x="219" y="517"/>
      <point x="185" y="494"/>
      <point x="185" y="396" type="curve" smooth="yes"/>
      <point x="185" y="335" type="line" smooth="yes"/>
      <point x="185" y="273"/>
      <point x="149" y="235"/>
      <point x="118" y="214" type="curve"/>
      <point x="149" y="192"/>
      <point x="185" y="154"/>
      <point x="185" y="93" type="curve" smooth="yes"/>
      <point x="185" y="31" type="line" smooth="yes"/>
      <point x="185" y="-66"/>
      <point x="219" y="-89"/>
      <point x="284" y="-104" type="curve"/>
      <point x="270" y="-158" type="line"/>
      <point x="196" y="-148"/>
      <point x="129" y="-95"/>
      <point x="129" y="9" type="curve" smooth="yes"/>
      <point x="129" y="84" type="line" smooth="yes"/>
      <point x="129" y="138"/>
      <point x="84" y="180"/>
      <point x="35" y="188" type="curve"/>
    </contour>
  </outline>
</glyph>
<glyph name="bar" format="1">
  <advance width="300"/>
  <unicode hex="007C"/>
  <outline>
    <contour>
      <point x="180" y="622" type="line"/>
      <point x="180" y="-179" type="line"/>
    </contour>
    <contour>
      <point x="180" y="622" type="line"/>
      <point x="180" y="-179" type="line"/>
      <point x="120" y="-179" type="line"/>
      <point x="120" y="622" type="line"/>
    </contour>
  </outline>
</glyph>
<glyph name="braceright" format="1">
  <advance width="309"/>
  <unicode hex="007D"/>
  <outline>
    <contour>
      <point x="223" y="179"/>
      <point x="180" y="140"/>
      <point x="180" y="84" type="curve" smooth="yes"/>
      <point x="180" y="9" type="line" smooth="yes"/>
      <point x="180" y="-95"/>
      <point x="113" y="-148"/>
      <point x="39" y="-158" type="curve"/>
      <point x="25" y="-104" type="line"/>
      <point x="90" y="-89"/>
      <point x="124" y="-66"/>
      <point x="124" y="31" type="curve" smooth="yes"/>
      <point x="124" y="93" type="line" smooth="yes"/>
      <point x="124" y="154"/>
      <point x="160" y="192"/>
      <point x="191" y="214" type="curve"/>
      <point x="160" y="235"/>
      <point x="124" y="273"/>
      <point x="124" y="335" type="curve" smooth="yes"/>
      <point x="124" y="396" type="line" smooth="yes"/>
      <point x="124" y="494"/>
      <point x="90" y="517"/>
      <point x="25" y="531" type="curve"/>
      <point x="39" y="586" type="line"/>
      <point x="113" y="576"/>
      <point x="180" y="522"/>
      <point x="180" y="419" type="curve" smooth="yes"/>
      <point x="180" y="344" type="line" smooth="yes"/>
      <point x="180" y="290"/>
      <point x="225" y="248"/>
      <point x="274" y="240" type="curve"/>
      <point x="274" y="187" type="line"/>
    </contour>
  </outline>
</glyph>
<glyph name="asciitilde" format="1">
  <advance width="379"/>
  <unicode hex="007E"/>
  <outline>
    <contour>
      <point x="159" y="536"/>
      <point x="176" y="525"/>
      <point x="192" y="514" type="curve"/>
      <point x="208" y="502"/>
      <point x="223" y="491"/>
      <point x="235" y="491" type="curve" smooth="yes"/>
      <point x="262" y="491"/>
      <point x="271" y="508"/>
      <point x="278" y="536" type="curve"/>
      <point x="324" y="521" type="line"/>
      <point x="315" y="476"/>
      <point x="284" y="443"/>
      <point x="237" y="443" type="curve" smooth="yes"/>
      <point x="214" y="443"/>
      <point x="196" y="453"/>
      <point x="181" y="465" type="curve"/>
      <point x="165" y="476"/>
      <point x="153" y="486"/>
      <point x="141" y="486" type="curve" smooth="yes"/>
      <point x="118" y="486"/>
      <point x="109" y="469"/>
      <point x="101" y="442" type="curve"/>
      <point x="56" y="457" type="line"/>
      <point x="67" y="504"/>
      <point x="97" y="536"/>
      <point x="140" y="536" type="curve" smooth="yes"/>
    </contour>
  </outline>
</glyph>
<glyph name="exclamdown" format="1">
  <advance width="176"/>
  <unicode hex="00A1"/>
  <outline>
    <contour>
      <point x="141" y="-49" type="line"/>
      <point x="132" y="354" type="line"/>
      <point x="83" y="354" type="line"/>
      <point x="74" y="-49" type="line"/>
    </contour>
    <contour>
      <point x="83" y="483"/>
      <point x="70" y="468"/>
      <point x="70" y="445" type="curve" smooth="yes"/>
      <point x="70" y="423"/>
      <point x="83" y="407"/>
      <point x="108" y="407" type="curve" smooth="yes"/>
      <point x="133" y="407"/>
      <point x="146" y="423"/>
      <point x="146" y="445" type="curve" smooth="yes"/>
      <point x="146" y="468"/>
      <point x="132" y="483"/>
      <point x="108" y="483" type="curve" smooth="yes"/>
    </contour>
  </outline>
</glyph>
<glyph name="sterling" format="1">
  <advance width="460"/>
  <unicode hex="00A3"/>
  <outline>
    <contour>
      <point x="137" y="52" type="line"/>
      <point x="137" y="206" type="line"/>
      <point x="69" y="206" type="line"/>
      <point x="69" y="259" type="line"/>
      <point x="137" y="259" type="line"/>
      <point x="137" y="276" type="line" smooth="yes"/>
      <point x="137" y="377"/>
      <point x="181" y="467"/>
      <point x="317" y="467" type="curve" smooth="yes"/>
      <point x="347" y="467"/>
      <point x="377" y="462"/>
      <point x="407" y="452" type="curve"/>
      <point x="389" y="406" type="line"/>
      <point x="364" y="411"/>
      <point x="345" y="415"/>
      <point x="322" y="415" type="curve" smooth="yes"/>
      <point x="251" y="415"/>
      <point x="201" y="379"/>
      <point x="201" y="302" type="curve"/>
      <point x="201" y="259" type="line"/>
      <point x="388" y="259" type="line"/>
      <point x="388" y="206" type="line"/>
      <point x="201" y="206" type="line"/>
      <point x="201" y="52" type="line"/>
      <point x="410" y="52" type="line"/>
      <point x="410" y="0" type="line"/>
      <point x="60" y="0" type="line"/>
      <point x="60" y="52" type="line"/>
    </contour>
  </outline>
</glyph>
<glyph name="currency" format="1">
  <advance width="467"/>
  <unicode hex="00A4"/>
  <outline>
    <contour>
      <point x="309" y="83"/>
      <point x="366" y="140"/>
      <point x="366" y="217" type="curve" smooth="yes"/>
      <point x="366" y="293"/>
      <point x="309" y="350"/>
      <point x="233" y="350" type="curve" smooth="yes"/>
      <point x="156" y="350"/>
      <point x="99" y="293"/>
      <point x="99" y="217" type="curve" smooth="yes"/>
      <point x="99" y="140"/>
      <point x="156" y="83"/>
      <point x="233" y="83" type="curve" smooth="yes"/>
    </contour>
    <contour>
      <point x="189" y="140"/>
      <point x="157" y="172"/>
      <point x="157" y="218" type="curve" smooth="yes"/>
      <point x="157" y="263"/>
      <point x="189" y="295"/>
      <point x="235" y="295" type="curve" smooth="yes"/>
      <point x="280" y="295"/>
      <point x="312" y="263"/>
      <point x="312" y="218" type="curve" smooth="yes"/>
      <point x="312" y="172"/>
      <point x="280" y="140"/>
      <point x="235" y="140" type="curve" smooth="yes"/>
    </contour>
    <contour>
      <point x="100" y="395" type="line"/>
      <point x="55" y="351" type="line"/>
      <point x="126" y="282" type="line"/>
      <point x="169" y="328" type="line"/>
    </contour>
    <contour>
      <point x="341" y="152" type="line"/>
      <point x="296" y="108" type="line"/>
      <point x="367" y="39" type="line"/>
      <point x="410" y="85" type="line"/>
    </contour>
    <contour>
      <point x="296" y="326" type="line"/>
      <point x="342" y="281" type="line"/>
      <point x="412" y="351" type="line"/>
      <point x="368" y="394" type="line"/>
    </contour>
    <contour>
      <point x="56" y="84" type="line"/>
      <point x="102" y="39" type="line"/>
      <point x="172" y="109" type="line"/>
      <point x="128" y="152" type="line"/>
    </contour>
  </outline>
</glyph>
<glyph name="yen" format="1">
  <advance width="444"/>
  <unicode hex="00A5"/>
  <outline>
    <contour>
      <point x="362" y="185" type="line"/>
      <point x="249" y="185" type="line"/>
      <point x="249" y="121" type="line"/>
      <point x="362" y="121" type="line"/>
      <point x="362" y="74" type="line"/>
      <point x="249" y="74" type="line"/>
      <point x="249" y="0" type="line"/>
      <point x="188" y="0" type="line"/>
      <point x="188" y="74" type="line"/>
      <point x="82" y="74" type="line"/>
      <point x="82" y="121" type="line"/>
      <point x="188" y="121" type="line"/>
      <point x="188" y="185" type="line"/>
      <point x="82" y="185" type="line"/>
      <point x="82" y="234" type="line"/>
      <point x="186" y="234" type="line"/>
      <point x="50" y="456" type="line"/>
      <point x="114" y="456" type="line"/>
      <point x="222" y="279" type="line"/>
      <point x="332" y="456" type="line"/>
      <point x="394" y="456" type="line"/>
      <point x="252" y="234" type="line"/>
      <point x="362" y="234" type="line"/>
    </contour>
  </outline>
</glyph>
<glyph name="copyright" format="1">
  <advance width="684"/>
  <unicode hex="00A9"/>
  <outline>
    <contour>
      <point x="269" y="93"/>
      <point x="221" y="146"/>
      <point x="221" y="230" type="curve" smooth="yes"/>
      <point x="221" y="321"/>
      <point x="261" y="378"/>
      <point x="359" y="378" type="curve" smooth="yes"/>
      <point x="386" y="378"/>
      <point x="406" y="373"/>
      <point x="433" y="362" type="curve"/>
      <point x="418" y="320" type="line"/>
      <point x="398" y="327"/>
      <point x="380" y="330"/>
      <point x="361" y="330" type="curve" smooth="yes"/>
      <point x="297" y="330"/>
      <point x="275" y="293"/>
      <point x="275" y="239" type="curve" smooth="yes"/>
      <point x="275" y="180"/>
      <point x="298" y="141"/>
      <point x="367" y="141" type="curve" smooth="yes"/>
      <point x="382" y="141"/>
      <point x="396" y="144"/>
      <point x="415" y="151" type="curve"/>
      <point x="430" y="109" type="line"/>
      <point x="403" y="98"/>
      <point x="378" y="93"/>
      <point x="353" y="93" type="curve" smooth="yes"/>
    </contour>
    <contour>
      <point x="617" y="153"/>
      <point x="586" y="85"/>
      <point x="536" y="38" type="curve" smooth="yes"/>
      <point x="486" y="-10"/>
      <point x="416" y="-37"/>
      <point x="340" y="-37" type="curve" smooth="yes"/>
      <point x="265" y="-37"/>
      <point x="197" y="-10"/>
      <point x="148" y="38" type="curve" smooth="yes"/>
      <point x="99" y="85"/>
      <point x="67" y="153"/>
      <point x="67" y="234" type="curve" smooth="yes"/>
      <point x="67" y="315"/>
      <point x="99" y="383"/>
      <point x="148" y="431" type="curve" smooth="yes"/>
      <point x="197" y="478"/>
      <point x="265" y="505"/>
      <point x="340" y="505" type="curve" smooth="yes"/>
      <point x="416" y="505"/>
      <point x="486" y="478"/>
      <point x="536" y="431" type="curve" smooth="yes"/>
      <point x="586" y="383"/>
      <point x="617" y="315"/>
      <point x="617" y="234" type="curve" smooth="yes"/>
    </contour>
    <contour>
      <point x="566" y="297"/>
      <point x="541" y="352"/>
      <point x="501" y="392" type="curve" smooth="yes"/>
      <point x="460" y="431"/>
      <point x="404" y="454"/>
      <point x="343" y="454" type="curve" smooth="yes"/>
      <point x="280" y="454"/>
      <point x="224" y="431"/>
      <point x="184" y="392" type="curve" smooth="yes"/>
      <point x="144" y="352"/>
      <point x="119" y="297"/>
      <point x="119" y="234" type="curve" smooth="yes"/>
      <point x="119" y="171"/>
      <point x="144" y="117"/>
      <point x="184" y="78" type="curve" smooth="yes"/>
      <point x="224" y="39"/>
      <point x="280" y="16"/>
      <point x="343" y="16" type="curve" smooth="yes"/>
      <point x="404" y="16"/>
      <point x="460" y="39"/>
      <point x="501" y="78" type="curve" smooth="yes"/>
      <point x="541" y="117"/>
      <point x="566" y="171"/>
      <point x="566" y="234" type="curve" smooth="yes"/>
    </contour>
  </outline>
</glyph>
<glyph name="guillemetleft" format="1">
  <advance width="364"/>
  <unicode hex="00AB"/>
  <outline>
    <contour>
      <point x="344" y="384" type="line"/>
      <point x="237" y="241" type="line"/>
      <point x="344" y="100" type="line"/>
      <point x="272" y="100" type="line"/>
      <point x="172" y="241" type="line"/>
      <point x="272" y="384" type="line"/>
    </contour>
    <contour>
      <point x="199" y="384" type="line"/>
      <point x="93" y="241" type="line"/>
      <point x="199" y="100" type="line"/>
      <point x="128" y="100" type="line"/>
      <point x="29" y="241" type="line"/>
      <point x="128" y="384" type="line"/>
    </contour>
  </outline>
</glyph>
<glyph name="degree" format="1">
  <advance width="237"/>
  <unicode hex="00B0"/>
  <outline>
    <contour>
      <point x="15" y="437"/>
      <point x="59" y="482"/>
      <point x="118" y="482" type="curve" smooth="yes"/>
      <point x="177" y="482"/>
      <point x="222" y="437"/>
      <point x="222" y="378" type="curve" smooth="yes"/>
      <point x="222" y="350"/>
      <point x="211" y="325"/>
      <point x="192" y="306" type="curve" smooth="yes"/>
      <point x="173" y="287"/>
      <point x="147" y="275"/>
      <point x="118" y="275" type="curve" smooth="yes"/>
      <point x="89" y="275"/>
      <point x="64" y="287"/>
      <point x="45" y="306" type="curve" smooth="yes"/>
      <point x="26" y="325"/>
      <point x="15" y="350"/>
      <point x="15" y="378" type="curve" smooth="yes"/>
    </contour>
    <contour>
      <point x="65" y="347"/>
      <point x="87" y="325"/>
      <point x="118" y="325" type="curve" smooth="yes"/>
      <point x="149" y="325"/>
      <point x="173" y="347"/>
      <point x="173" y="378" type="curve" smooth="yes"/>
      <point x="173" y="410"/>
      <point x="149" y="434"/>
      <point x="118" y="434" type="curve" smooth="yes"/>
      <point x="87" y="434"/>
      <point x="65" y="410"/>
      <point x="65" y="378" type="curve" smooth="yes"/>
    </contour>
  </outline>
</glyph>
<glyph name="plusminus" format="1">
  <advance width="452"/>
  <unicode hex="00B1"/>
  <outline>
    <contour>
      <point x="392" y="300" type="line"/>
      <point x="392" y="244" type="line"/>
      <point x="60" y="244" type="line"/>
      <point x="60" y="300" type="line"/>
    </contour>
    <contour>
      <point x="197" y="435" type="line"/>
      <point x="253" y="435" type="line"/>
      <point x="253" y="103" type="line"/>
      <point x="197" y="103" type="line"/>
    </contour>
    <contour>
      <point x="392" y="56" type="line"/>
      <point x="392" y="0" type="line"/>
      <point x="60" y="0" type="line"/>
      <point x="60" y="56" type="line"/>
    </contour>
  </outline>
</glyph>
<glyph name="acute" format="1">
  <advance width="193"/>
  <unicode hex="00B4"/>
  <outline>
    <contour>
      <point x="38" y="427" type="line"/>
      <point x="188" y="550" type="line"/>
      <point x="152" y="593" type="line"/>
      <point x="5" y="465" type="line"/>
    </contour>
    <contour>
      <point x="105" y="384" type="move" name="_top"/>
    </contour>
  </outline>
</glyph>
<glyph name="uni00B5" format="1">
  <advance width="429"/>
  <unicode hex="00B5"/>
  <outline>
    <contour>
      <point x="121" y="384" type="line"/>
      <point x="121" y="176" type="line" smooth="yes"/>
      <point x="121" y="136"/>
      <point x="122" y="112"/>
      <point x="137" y="85" type="curve" smooth="yes"/>
      <point x="152" y="58"/>
      <point x="177" y="44"/>
      <point x="214" y="44" type="curve" smooth="yes"/>
      <point x="237" y="44"/>
      <point x="270" y="53"/>
      <point x="311" y="73" type="curve"/>
      <point x="311" y="384" type="line"/>
      <point x="374" y="384" type="line"/>
      <point x="374" y="0" type="line"/>
      <point x="330" y="0" type="line"/>
      <point x="317" y="27" type="line"/>
      <point x="280" y="2"/>
      <point x="243" y="-10"/>
      <point x="208" y="-10" type="curve" smooth="yes"/>
      <point x="171" y="-10"/>
      <point x="142" y="0"/>
      <point x="121" y="21" type="curve"/>
      <point x="121" y="-159" type="line"/>
      <point x="58" y="-159" type="line"/>
      <point x="58" y="384" type="line"/>
    </contour>
  </outline>
</glyph>
<glyph name="periodcentered" format="1">
  <advance width="229"/>
  <unicode hex="00B7"/>
  <outline>
    <contour>
      <point x="142" y="235"/>
      <point x="164" y="257"/>
      <point x="164" y="285" type="curve" smooth="yes"/>
      <point x="164" y="312"/>
      <point x="142" y="334"/>
      <point x="115" y="334" type="curve" smooth="yes"/>
      <point x="87" y="334"/>
      <point x="65" y="312"/>
      <point x="65" y="285" type="curve" smooth="yes"/>
      <point x="65" y="257"/>
      <point x="87" y="235"/>
      <point x="115" y="235" type="curve" smooth="yes"/>
    </contour>
  </outline>
</glyph>
<glyph name="onesuperior" format="1">
  <advance width="179"/>
  <unicode hex="00B9"/>
  <outline>
    <contour>
      <point x="151" y="275" type="line"/>
      <point x="99" y="275" type="line"/>
      <point x="99" y="530" type="line"/>
      <point x="43" y="514" type="line"/>
      <point x="24" y="555" type="line"/>
      <point x="107" y="582" type="line"/>
      <point x="151" y="582" type="line"/>
    </contour>
  </outline>
</glyph>
<glyph name="guillemetright" format="1">
  <advance width="363"/>
  <unicode hex="00BB"/>
  <outline>
    <contour>
      <point x="190" y="241" type="line"/>
      <point x="92" y="100" type="line"/>
      <point x="20" y="100" type="line"/>
      <point x="126" y="241" type="line"/>
      <point x="20" y="384" type="line"/>
      <point x="92" y="384" type="line"/>
    </contour>
    <contour>
      <point x="334" y="241" type="line"/>
      <point x="237" y="100" type="line"/>
      <point x="165" y="100" type="line"/>
      <point x="270" y="241" type="line"/>
      <point x="165" y="384" type="line"/>
      <point x="237" y="384" type="line"/>
    </contour>
  </outline>
</glyph>
<glyph name="onequarter" format="1">
  <advance width="674"/>
  <unicode hex="00BC"/>
  <outline>
    <contour>
      <point x="520" y="550" type="line"/>
      <point x="170" y="0" type="line"/>
      <point x="108" y="0" type="line"/>
      <point x="459" y="550" type="line"/>
    </contour>
    <contour>
      <point x="175" y="240" type="line"/>
      <point x="122" y="240" type="line"/>
      <point x="122" y="498" type="line"/>
      <point x="66" y="483" type="line"/>
      <point x="47" y="524" type="line"/>
      <point x="131" y="550" type="line"/>
      <point x="175" y="550" type="line"/>
    </contour>
    <contour>
      <point x="565" y="113" type="line"/>
      <point x="619" y="113" type="line"/>
      <point x="619" y="66" type="line"/>
      <point x="565" y="66" type="line"/>
      <point x="565" y="0" type="line"/>
      <point x="514" y="0" type="line"/>
      <point x="514" y="66" type="line"/>
      <point x="364" y="66" type="line"/>
      <point x="364" y="107" type="line"/>
      <point x="503" y="309" type="line"/>
      <point x="565" y="309" type="line"/>
    </contour>
    <contour>
      <point x="514" y="240" type="line"/>
      <point x="427" y="113" type="line"/>
      <point x="514" y="113" type="line"/>
    </contour>
  </outline>
</glyph>
<glyph name="threequarters" format="1">
  <advance width="721"/>
  <unicode hex="00BE"/>
  <outline>
    <contour>
      <point x="568" y="550" type="line"/>
      <point x="218" y="0" type="line"/>
      <point x="156" y="0" type="line"/>
      <point x="506" y="550" type="line"/>
    </contour>
    <contour>
      <point x="613" y="113" type="line"/>
      <point x="661" y="113" type="line"/>
      <point x="661" y="66" type="line"/>
      <point x="613" y="66" type="line"/>
      <point x="613" y="0" type="line"/>
      <point x="562" y="0" type="line"/>
      <point x="562" y="66" type="line"/>
      <point x="410" y="66" type="line"/>
      <point x="410" y="107" type="line"/>
      <point x="550" y="309" type="line"/>
      <point x="613" y="309" type="line"/>
    </contour>
    <contour>
      <point x="562" y="240" type="line"/>
      <point x="476" y="113" type="line"/>
      <point x="562" y="113" type="line"/>
    </contour>
    <contour>
      <point x="208" y="556"/>
      <point x="250" y="527"/>
      <point x="250" y="469" type="curve" smooth="yes"/>
      <point x="250" y="443"/>
      <point x="242" y="421"/>
      <point x="214" y="400" type="curve"/>
      <point x="246" y="383"/>
      <point x="262" y="365"/>
      <point x="262" y="318" type="curve" smooth="yes"/>
      <point x="262" y="271"/>
      <point x="225" y="233"/>
      <point x="155" y="233" type="curve" smooth="yes"/>
      <point x="115" y="233"/>
      <point x="77" y="243"/>
      <point x="57" y="251" type="curve"/>
      <point x="70" y="294" type="line"/>
      <point x="103" y="284"/>
      <point x="128" y="279"/>
      <point x="145" y="279" type="curve" smooth="yes"/>
      <point x="196" y="279"/>
      <point x="214" y="296"/>
      <point x="214" y="329" type="curve" smooth="yes"/>
      <point x="214" y="365"/>
      <point x="186" y="376"/>
      <point x="130" y="376" type="curve" smooth="yes"/>
      <point x="119" y="376" type="line"/>
      <point x="119" y="418" type="line"/>
      <point x="126" y="418" type="line" smooth="yes"/>
      <point x="189" y="418"/>
      <point x="202" y="442"/>
      <point x="202" y="465" type="curve" smooth="yes"/>
      <point x="202" y="500"/>
      <point x="181" y="510"/>
      <point x="151" y="510" type="curve" smooth="yes"/>
      <point x="134" y="510"/>
      <point x="108" y="505"/>
      <point x="80" y="492" type="curve"/>
      <point x="62" y="535" type="line"/>
      <point x="95" y="548"/>
      <point x="125" y="556"/>
      <point x="153" y="556" type="curve" smooth="yes"/>
    </contour>
  </outline>
</glyph>
<glyph name="questiondown" format="1">
  <advance width="395"/>
  <unicode hex="00BF"/>
  <outline>
    <contour>
      <point x="221" y="483"/>
      <point x="207" y="467"/>
      <point x="207" y="445" type="curve" smooth="yes"/>
      <point x="207" y="423"/>
      <point x="220" y="407"/>
      <point x="245" y="407" type="curve" smooth="yes"/>
      <point x="270" y="407"/>
      <point x="283" y="423"/>
      <point x="283" y="445" type="curve" smooth="yes"/>
      <point x="283" y="467"/>
      <point x="270" y="483"/>
      <point x="245" y="483" type="curve" smooth="yes"/>
    </contour>
    <contour>
      <point x="286" y="-55"/>
      <point x="329" y="-37"/>
      <point x="365" y="-21" type="curve"/>
      <point x="345" y="33" type="line"/>
      <point x="313" y="18"/>
      <point x="279" y="3"/>
      <point x="225" y="3" type="curve" smooth="yes"/>
      <point x="166" y="3"/>
      <point x="131" y="28"/>
      <point x="131" y="82" type="curve" smooth="yes"/>
      <point x="131" y="144"/>
      <point x="200" y="181"/>
      <point x="242" y="233" type="curve"/>
      <point x="272" y="273"/>
      <point x="276" y="321"/>
      <point x="276" y="351" type="curve"/>
      <point x="213" y="351" type="line"/>
      <point x="213" y="278"/>
      <point x="188" y="259"/>
      <point x="141" y="213" type="curve"/>
      <point x="103" y="178"/>
      <point x="70" y="144"/>
      <point x="70" y="77" type="curve" smooth="yes"/>
      <point x="70" y="-12"/>
      <point x="139" y="-55"/>
      <point x="221" y="-55" type="curve" smooth="yes"/>
    </contour>
  </outline>
</glyph>
<glyph name="Aring" format="1">
  <advance width="499"/>
  <unicode hex="00C5"/>
  <outline>
    <contour>
      <point x="145" y="587"/>
      <point x="171" y="552"/>
      <point x="207" y="536" type="curve"/>
      <point x="16" y="0" type="line"/>
      <point x="78" y="0" type="line"/>
      <point x="133" y="161" type="line"/>
      <point x="360" y="161" type="line"/>
      <point x="416" y="0" type="line"/>
      <point x="483" y="0" type="line"/>
      <point x="292" y="538" type="line"/>
      <point x="326" y="554"/>
      <point x="351" y="588"/>
      <point x="351" y="627" type="curve" smooth="yes"/>
      <point x="351" y="681"/>
      <point x="304" y="727"/>
      <point x="248" y="727" type="curve" smooth="yes"/>
      <point x="191" y="727"/>
      <point x="145" y="681"/>
      <point x="145" y="627" type="curve" smooth="yes"/>
    </contour>
    <contour>
      <point x="339" y="218" type="line"/>
      <point x="153" y="218" type="line"/>
      <point x="247" y="486" type="line"/>
    </contour>
    <contour>
      <point x="305" y="596"/>
      <point x="279" y="570"/>
      <point x="246" y="570" type="curve" smooth="yes"/>
      <point x="212" y="570"/>
      <point x="190" y="595"/>
      <point x="190" y="627" type="curve" smooth="yes"/>
      <point x="190" y="660"/>
      <point x="212" y="684"/>
      <point x="247" y="684" type="curve" smooth="yes"/>
      <point x="279" y="684"/>
      <point x="306" y="658"/>
      <point x="305" y="627" type="curve" smooth="yes"/>
    </contour>
  </outline>
</glyph>
<glyph name="Oslash" format="1">
  <advance width="647"/>
  <unicode hex="00D8"/>
  <outline>
    <contour>
      <point x="72" y="-8" type="line"/>
      <point x="144" y="62" type="line"/>
      <point x="187" y="20"/>
      <point x="244" y="-7"/>
      <point x="323" y="-7" type="curve" smooth="yes"/>
      <point x="435" y="-7"/>
      <point x="508" y="49"/>
      <point x="548" y="127" type="curve" smooth="yes"/>
      <point x="568" y="169"/>
      <point x="579" y="219"/>
      <point x="579" y="275" type="curve" smooth="yes"/>
      <point x="579" y="331"/>
      <point x="568" y="383"/>
      <point x="539" y="437" type="curve"/>
      <point x="617" y="511" type="line"/>
      <point x="575" y="556" type="line"/>
      <point x="502" y="486" type="line"/>
      <point x="459" y="529"/>
      <point x="402" y="556"/>
      <point x="323" y="556" type="curve" smooth="yes"/>
      <point x="209" y="556"/>
      <point x="136" y="500"/>
      <point x="97" y="424" type="curve" smooth="yes"/>
      <point x="76" y="380"/>
      <point x="65" y="331"/>
      <point x="65" y="275" type="curve" smooth="yes"/>
      <point x="65" y="219"/>
      <point x="76" y="169"/>
      <point x="97" y="127" type="curve" smooth="yes"/>
      <point x="106" y="109" type="line"/>
      <point x="30" y="37" type="line"/>
    </contour>
    <contour>
      <point x="136" y="317"/>
      <point x="144" y="355"/>
      <point x="160" y="389" type="curve" smooth="yes"/>
      <point x="188" y="447"/>
      <point x="232" y="498"/>
      <point x="323" y="498" type="curve" smooth="yes"/>
      <point x="385" y="498"/>
      <point x="425" y="475"/>
      <point x="454" y="440" type="curve"/>
      <point x="160" y="160" type="line"/>
      <point x="160" y="161" type="line"/>
      <point x="144" y="194"/>
      <point x="136" y="232"/>
      <point x="136" y="275" type="curve" smooth="yes"/>
    </contour>
    <contour>
      <point x="260" y="51"/>
      <point x="221" y="74"/>
      <point x="193" y="107" type="curve"/>
      <point x="485" y="387" type="line"/>
      <point x="502" y="353"/>
      <point x="509" y="315"/>
      <point x="509" y="275" type="curve" smooth="yes"/>
      <point x="509" y="232"/>
      <point x="502" y="194"/>
      <point x="485" y="161" type="curve"/>
      <point x="458" y="101"/>
      <point x="412" y="51"/>
      <point x="323" y="51" type="curve" smooth="yes"/>
    </contour>
  </outline>
</glyph>
<glyph name="germandbls" format="1">
  <advance width="488"/>
  <unicode hex="00DF"/>
  <outline>
    <contour>
      <point x="79" y="0" type="line"/>
      <point x="142" y="0" type="line"/>
      <point x="142" y="396" type="line" smooth="yes"/>
      <point x="142" y="429"/>
      <point x="149" y="455"/>
      <point x="165" y="471" type="curve"/>
      <point x="181" y="489"/>
      <point x="200" y="497"/>
      <point x="225" y="497" type="curve" smooth="yes"/>
      <point x="261" y="497"/>
      <point x="302" y="465"/>
      <point x="302" y="424" type="curve"/>
      <point x="302" y="396"/>
      <point x="281" y="383"/>
      <point x="264" y="368" type="curve"/>
      <point x="235" y="345"/>
      <point x="200" y="314"/>
      <point x="200" y="272" type="curve" smooth="yes"/>
      <point x="200" y="216"/>
      <point x="246" y="194"/>
      <point x="289" y="175" type="curve" smooth="yes"/>
      <point x="332" y="156"/>
      <point x="375" y="148"/>
      <point x="375" y="100" type="curve" smooth="yes"/>
      <point x="375" y="56"/>
      <point x="347" y="42"/>
      <point x="301" y="42" type="curve" smooth="yes"/>
      <point x="279" y="42"/>
      <point x="248" y="46"/>
      <point x="207" y="53" type="curve"/>
      <point x="196" y="9" type="line"/>
      <point x="237" y="-4"/>
      <point x="276" y="-10"/>
      <point x="315" y="-10" type="curve" smooth="yes"/>
      <point x="354" y="-10"/>
      <point x="384" y="-1"/>
      <point x="406" y="18" type="curve" smooth="yes"/>
      <point x="424" y="33"/>
      <point x="443" y="64"/>
      <point x="443" y="101" type="curve" smooth="yes"/>
      <point x="443" y="156"/>
      <point x="408" y="195"/>
      <point x="338" y="219" type="curve" smooth="yes"/>
      <point x="311" y="229" type="line" smooth="yes"/>
      <point x="291" y="237"/>
      <point x="277" y="246"/>
      <point x="271" y="256" type="curve"/>
      <point x="267" y="261"/>
      <point x="264" y="269"/>
      <point x="264" y="279" type="curve" smooth="yes"/>
      <point x="264" y="302"/>
      <point x="300" y="324"/>
      <point x="328" y="349" type="curve" smooth="yes"/>
      <point x="351" y="371"/>
      <point x="366" y="396"/>
      <point x="366" y="427" type="curve" smooth="yes"/>
      <point x="366" y="460"/>
      <point x="350" y="493"/>
      <point x="325" y="517" type="curve" smooth="yes"/>
      <point x="302" y="539"/>
      <point x="272" y="554"/>
      <point x="233" y="554" type="curve" smooth="yes"/>
      <point x="137" y="554"/>
      <point x="78" y="490"/>
      <point x="78" y="397" type="curve" smooth="yes"/>
    </contour>
  </outline>
</glyph>
<glyph name="thorn" format="1">
  <advance width="439"/>
  <unicode hex="00FE"/>
  <outline>
    <contour>
      <point x="246" y="-10"/>
      <point x="269" y="-4"/>
      <point x="291" y="7" type="curve"/>
      <point x="356" y="34"/>
      <point x="401" y="108"/>
      <point x="401" y="195" type="curve" smooth="yes"/>
      <point x="401" y="250"/>
      <point x="387" y="296"/>
      <point x="357" y="330" type="curve" smooth="yes"/>
      <point x="329" y="364"/>
      <point x="284" y="388"/>
      <point x="226" y="388" type="curve" smooth="yes"/>
      <point x="177" y="388"/>
      <point x="142" y="373"/>
      <point x="116" y="344" type="curve"/>
      <point x="116" y="550" type="line"/>
      <point x="51" y="550" type="line"/>
      <point x="51" y="-206" type="line"/>
      <point x="116" y="-206" type="line"/>
      <point x="116" y="32" type="line"/>
      <point x="142" y="7"/>
      <point x="177" y="-10"/>
      <point x="222" y="-10" type="curve" smooth="yes"/>
    </contour>
    <contour>
      <point x="179" y="46"/>
      <point x="149" y="62"/>
      <point x="129" y="95" type="curve"/>
      <point x="117" y="113"/>
      <point x="111" y="145"/>
      <point x="111" y="189" type="curve" smooth="yes"/>
      <point x="111" y="268"/>
      <point x="140" y="334"/>
      <point x="217" y="334" type="curve" smooth="yes"/>
      <point x="259" y="333"/>
      <point x="293" y="312"/>
      <point x="319" y="270" type="curve" smooth="yes"/>
      <point x="333" y="248"/>
      <point x="339" y="218"/>
      <point x="339" y="180" type="curve" smooth="yes"/>
      <point x="339" y="106"/>
      <point x="290" y="46"/>
      <point x="217" y="46" type="curve" smooth="yes"/>
    </contour>
  </outline>
</glyph>
<glyph name="Aogonek" format="1">
  <advance width="493"/>
  <unicode hex="0104"/>
  <outline>
    <contour>
      <point x="339" y="218" type="line"/>
      <point x="153" y="218" type="line"/>
      <point x="247" y="486" type="line"/>
    </contour>
    <contour>
      <point x="381" y="-4" type="line" smooth="yes"/>
      <point x="333" y="-36"/>
      <point x="299" y="-82"/>
      <point x="299" y="-129" type="curve" smooth="yes"/>
      <point x="299" y="-181"/>
      <point x="332" y="-210"/>
      <point x="378" y="-210" type="curve" smooth="yes"/>
      <point x="409" y="-210"/>
      <point x="446" y="-197"/>
      <point x="480" y="-172" type="curve"/>
      <point x="460" y="-136" type="line"/>
      <point x="435" y="-151"/>
      <point x="415" y="-159"/>
      <point x="395" y="-159" type="curve" smooth="yes"/>
      <point x="372" y="-159"/>
      <point x="355" y="-147"/>
      <point x="355" y="-118" type="curve" smooth="yes"/>
      <point x="355" y="-93"/>
      <point x="373" y="-66"/>
      <point x="410" y="-38" type="curve" smooth="yes"/>
      <point x="478" y="10" type="line"/>
      <point x="287" y="550" type="line"/>
      <point x="212" y="550" type="line"/>
      <point x="16" y="0" type="line"/>
      <point x="78" y="0" type="line"/>
      <point x="133" y="161" type="line"/>
      <point x="360" y="161" type="line"/>
      <point x="410" y="16" type="line"/>
    </contour>
  </outline>
</glyph>
<glyph name="gcommaaccent" format="1">
  <advance width="439"/>
  <unicode hex="0123"/>
  <outline>
    <contour>
      <point x="191" y="435" type="line"/>
      <point x="237" y="435" type="line"/>
      <point x="274" y="586" type="line"/>
      <point x="214" y="586" type="line"/>
    </contour>
    <component base="g"/>
  </outline>
</glyph>
<glyph name="iogonek" format="1">
  <advance width="198"/>
  <unicode hex="012F"/>
  <outline>
    <contour>
      <point x="64" y="478" type="line"/>
      <point x="139" y="478" type="line"/>
      <point x="139" y="550" type="line"/>
      <point x="64" y="550" type="line"/>
    </contour>
    <contour>
      <point x="43" y="-10" type="line"/>
      <point x="-19" y="-48"/>
      <point x="-38" y="-93"/>
      <point x="-38" y="-131" type="curve" smooth="yes"/>
      <point x="-38" y="-190"/>
      <point x="0" y="-214"/>
      <point x="42" y="-214" type="curve" smooth="yes"/>
      <point x="76" y="-214"/>
      <point x="108" y="-200"/>
      <point x="146" y="-177" type="curve"/>
      <point x="128" y="-142" type="line"/>
      <point x="102" y="-157"/>
      <point x="81" y="-164"/>
      <point x="63" y="-164" type="curve" smooth="yes"/>
      <point x="39" y="-164"/>
      <point x="21" y="-151"/>
      <point x="21" y="-117" type="curve" smooth="yes"/>
      <point x="21" y="-99"/>
      <point x="28" y="-77"/>
      <point x="66" y="-46" type="curve"/>
      <point x="79" y="-37"/>
      <point x="98" y="-24"/>
      <point x="133" y="-7" type="curve"/>
      <point x="133" y="384" type="line"/>
      <point x="69" y="384" type="line"/>
      <point x="69" y="4" type="line"/>
    </contour>
  </outline>
</glyph>
<glyph name="tcaron" format="1">
  <advance width="297"/>
  <unicode hex="0165"/>
  <outline>
    <contour>
      <point x="215" y="-8"/>
      <point x="250" y="-2"/>
      <point x="279" y="9" type="curve"/>
      <point x="268" y="53" type="line"/>
      <point x="250" y="49"/>
      <point x="225" y="47"/>
      <point x="207" y="47" type="curve" smooth="yes"/>
      <point x="157" y="47"/>
      <point x="146" y="73"/>
      <point x="146" y="123" type="curve" smooth="yes"/>
      <point x="146" y="330" type="line"/>
      <point x="272" y="330" type="line"/>
      <point x="272" y="384" type="line"/>
      <point x="146" y="384" type="line"/>
      <point x="146" y="483" type="line"/>
      <point x="81" y="478" type="line"/>
      <point x="81" y="384" type="line"/>
      <point x="16" y="384" type="line"/>
      <point x="16" y="330" type="line"/>
      <point x="81" y="330" type="line"/>
      <point x="81" y="119" type="line" smooth="yes"/>
      <point x="81" y="38"/>
      <point x="108" y="-8"/>
      <point x="188" y="-8" type="curve" smooth="yes"/>
    </contour>
    <contour>
      <point x="194" y="435" type="line"/>
      <point x="240" y="435" type="line"/>
      <point x="277" y="586" type="line"/>
      <point x="217" y="586" type="line"/>
    </contour>
  </outline>
</glyph>
<glyph name="florin" format="1">
  <advance width="333"/>
  <unicode hex="0192"/>
  <outline>
    <contour>
      <point x="81" y="-118"/>
      <point x="110" y="-96"/>
      <point x="110" y="-36" type="curve" smooth="yes"/>
      <point x="110" y="243" type="line"/>
      <point x="42" y="243" type="line"/>
      <point x="42" y="294" type="line"/>
      <point x="110" y="294" type="line"/>
      <point x="110" y="335" type="line" smooth="yes"/>
      <point x="110" y="422"/>
      <point x="148" y="464"/>
      <point x="222" y="464" type="curve" smooth="yes"/>
      <point x="249" y="464"/>
      <point x="280" y="460"/>
      <point x="313" y="449" type="curve"/>
      <point x="303" y="401" type="line"/>
      <point x="281" y="406"/>
      <point x="262" y="410"/>
      <point x="246" y="410" type="curve" smooth="yes"/>
      <point x="196" y="410"/>
      <point x="170" y="397"/>
      <point x="170" y="329" type="curve" smooth="yes"/>
      <point x="170" y="294" type="line"/>
      <point x="279" y="294" type="line"/>
      <point x="279" y="243" type="line"/>
      <point x="170" y="243" type="line"/>
      <point x="170" y="-53" type="line" smooth="yes"/>
      <point x="170" y="-133"/>
      <point x="122" y="-170"/>
      <point x="55" y="-170" type="curve" smooth="yes"/>
      <point x="28" y="-170"/>
      <point x="9" y="-168"/>
      <point x="-26" y="-159" type="curve"/>
      <point x="-17" y="-112" type="line"/>
      <point x="8" y="-117"/>
      <point x="17" y="-118"/>
      <point x="31" y="-118" type="curve" smooth="yes"/>
    </contour>
  </outline>
</glyph>
<glyph name="circumflex" format="1">
  <advance width="244"/>
  <unicode hex="02C6"/>
  <outline>
    <contour>
      <point x="5" y="470" type="line"/>
      <point x="41" y="435" type="line"/>
      <point x="122" y="517" type="line"/>
      <point x="203" y="435" type="line"/>
      <point x="239" y="470" type="line"/>
      <point x="122" y="592" type="line"/>
    </contour>
    <contour>
      <point x="122" y="384" type="move" name="_top"/>
    </contour>
  </outline>
</glyph>
<glyph name="dotaccent" format="1">
  <advance width="85"/>
  <unicode hex="02D9"/>
  <outline>
    <contour>
      <point x="65.1962" y="466"/>
      <point x="84" y="484.804"/>
      <point x="84" y="508" type="curve" smooth="yes"/>
      <point x="84" y="531.196"/>
      <point x="65.1962" y="550"/>
      <point x="42" y="550" type="curve" smooth="yes"/>
      <point x="18.8038" y="550"/>
      <point x="0" y="531.196"/>
      <point x="0" y="508" type="curve" smooth="yes"/>
      <point x="0" y="484.804"/>
      <point x="18.8038" y="466"/>
      <point x="42" y="466" type="curve" smooth="yes"/>
    </contour>
    <contour>
      <point x="43" y="384" type="move" name="_top"/>
    </contour>
  </outline>
</glyph>
<glyph name="ring" format="1">
  <advance width="181"/>
  <unicode hex="02DA"/>
  <outline>
    <contour>
      <point x="137" y="496"/>
      <point x="118" y="475"/>
      <point x="90" y="475" type="curve" smooth="yes"/>
      <point x="63" y="475"/>
      <point x="45" y="495"/>
      <point x="45" y="522" type="curve" smooth="yes"/>
      <point x="45" y="550"/>
      <point x="63" y="569"/>
      <point x="91" y="569" type="curve" smooth="yes"/>
      <point x="118" y="569"/>
      <point x="137" y="549"/>
      <point x="137" y="522" type="curve" smooth="yes"/>
    </contour>
    <contour>
      <point x="5" y="475"/>
      <point x="44" y="435"/>
      <point x="91" y="435" type="curve" smooth="yes"/>
      <point x="138" y="435"/>
      <point x="176" y="476"/>
      <point x="176" y="522" type="curve" smooth="yes"/>
      <point x="176" y="569"/>
      <point x="137" y="609"/>
      <point x="91" y="609" type="curve" smooth="yes"/>
      <point x="44" y="609"/>
      <point x="5" y="569"/>
      <point x="5" y="522" type="curve" smooth="yes"/>
    </contour>
    <contour>
      <point x="91" y="384" type="move" name="_top"/>
    </contour>
  </outline>
</glyph>
<glyph name="hungarumlaut" format="1">
  <advance width="343"/>
  <unicode hex="02DD"/>
  <outline>
    <component base="acute"/>
    <component base="acute" xOffset="150"/>
    <contour>
      <point x="117" y="384" type="move" name="_top"/>
    </contour>
  </outline>
</glyph>
<glyph name="pi" format="1">
  <advance width="438"/>
  <unicode hex="03C0"/>
  <outline>
    <contour>
      <point x="10" y="384" type="line"/>
      <point x="406" y="384" type="line"/>
      <point x="406" y="324" type="line"/>
      <point x="341" y="324" type="line"/>
      <point x="341" y="106" type="line" smooth="yes"/>
      <point x="341" y="74"/>
      <point x="344" y="51"/>
      <point x="392" y="51" type="curve" smooth="yes"/>
      <point x="405" y="51"/>
      <point x="414" y="53"/>
      <point x="426" y="57" type="curve"/>
      <point x="438" y="10" type="line"/>
      <point x="423" y="4"/>
      <point x="402" y="-9"/>
      <point x="360" y="-9" type="curve" smooth="yes"/>
      <point x="311" y="-9"/>
      <point x="279" y="28"/>
      <point x="278" y="83" type="curve"/>
      <point x="278" y="324" type="line"/>
      <point x="136" y="324" type="line"/>
      <point x="136" y="0" type="line"/>
      <point x="69" y="0" type="line"/>
      <point x="69" y="324" type="line"/>
      <point x="10" y="324" type="line"/>
    </contour>
  </outline>
</glyph>
<glyph name="candraBindu-deva" format="1">
  <advance width="297"/>
  <unicode hex="0901"/>
  <outline>
    <contour>
      <point x="221" y="509"/>
      <point x="266" y="550"/>
      <point x="282" y="608" type="curve"/>
      <point x="240" y="627" type="line"/>
      <point x="222" y="582"/>
      <point x="200" y="557"/>
      <point x="149" y="557" type="curve" smooth="yes"/>
      <point x="99" y="557"/>
      <point x="76" y="582"/>
      <point x="59" y="627" type="curve"/>
      <point x="15" y="608" type="line"/>
      <point x="32" y="550"/>
      <point x="78" y="509"/>
      <point x="149" y="509" type="curve" smooth="yes"/>
    </contour>
    <contour>
      <point x="170" y="614"/>
      <point x="182" y="628"/>
      <point x="182" y="645" type="curve" smooth="yes"/>
      <point x="182" y="663"/>
      <point x="170" y="677"/>
      <point x="150" y="677" type="curve" smooth="yes"/>
      <point x="131" y="677"/>
      <point x="119" y="663"/>
      <point x="119" y="645" type="curve" smooth="yes"/>
      <point x="119" y="628"/>
      <point x="131" y="614"/>
      <point x="150" y="614" type="curve" smooth="yes"/>
    </contour>
    <contour>
      <point x="149" y="447" type="move" name="_top"/>
    </contour>
  </outline>
</glyph>
<glyph name="candrabindudeva" format="1">
  <advance width="0"/>
  <unicode hex="0901"/>
  <outline>
    <contour>
      <point x="-29" y="509"/>
      <point x="16" y="550"/>
      <point x="32" y="608" type="curve"/>
      <point x="-10" y="627" type="line"/>
      <point x="-28" y="582"/>
      <point x="-50" y="557"/>
      <point x="-101" y="557" type="curve" smooth="yes"/>
      <point x="-151" y="557"/>
      <point x="-174" y="582"/>
      <point x="-191" y="627" type="curve"/>
      <point x="-235" y="608" type="line"/>
      <point x="-218" y="550"/>
      <point x="-172" y="509"/>
      <point x="-101" y="509" type="curve" smooth="yes"/>
    </contour>
    <contour>
      <point x="-130" y="617" type="line"/>
      <point x="-71" y="617" type="line"/>
      <point x="-71" y="674" type="line"/>
      <point x="-130" y="674" type="line"/>
    </contour>
    <contour>
      <point x="-101" y="447" type="move" name="_top"/>
    </contour>
  </outline>
</glyph>
<glyph name="anusvara-deva" format="1">
  <advance width="0"/>
  <unicode hex="0902"/>
  <outline>
    <contour>
      <point x="-60" y="519"/>
      <point x="-46" y="535"/>
      <point x="-46" y="555" type="curve" smooth="yes"/>
      <point x="-46" y="576"/>
      <point x="-60" y="592"/>
      <point x="-83" y="592" type="curve" smooth="yes"/>
      <point x="-105" y="592"/>
      <point x="-119" y="576"/>
      <point x="-119" y="555" type="curve" smooth="yes"/>
      <point x="-119" y="535"/>
      <point x="-105" y="519"/>
      <point x="-83" y="519" type="curve" smooth="yes"/>
    </contour>
    <contour>
      <point x="-83" y="447" type="move" name="_top"/>
    </contour>
  </outline>
</glyph>
<glyph name="anusvaradeva" format="1">
  <advance width="0"/>
  <unicode hex="0902"/>
  <outline>
    <contour>
      <point x="-117" y="523" type="line"/>
      <point x="-49" y="523" type="line"/>
      <point x="-49" y="588" type="line"/>
      <point x="-117" y="588" type="line"/>
    </contour>
    <contour>
      <point x="-83" y="447" type="move" name="_top"/>
    </contour>
  </outline>
</glyph>
<glyph name="adeva" format="1">
  <advance width="600"/>
  <unicode hex="0905"/>
  <outline>
    <contour>
      <point x="457" y="0" type="line"/>
      <point x="511" y="0" type="line"/>
      <point x="511" y="456" type="line"/>
      <point x="457" y="456" type="line"/>
    </contour>
    <contour>
      <point x="363" y="456" type="line"/>
      <point x="363" y="408" type="line"/>
      <point x="614" y="408" type="line"/>
      <point x="614" y="456" type="line"/>
    </contour>
    <contour>
      <point x="358" y="167"/>
      <point x="352" y="189"/>
      <point x="331" y="209" type="curve" smooth="yes"/>
      <point x="312" y="227"/>
      <point x="291" y="243"/>
      <point x="271" y="250" type="curve"/>
      <point x="320" y="272"/>
      <point x="343" y="309"/>
      <point x="343" y="353" type="curve" smooth="yes"/>
      <point x="343" y="413"/>
      <point x="294" y="457"/>
      <point x="222" y="457" type="curve" smooth="yes"/>
      <point x="160" y="457"/>
      <point x="122" y="423"/>
      <point x="102" y="407" type="curve"/>
      <point x="132" y="366" type="line"/>
      <point x="153" y="385"/>
      <point x="177" y="406"/>
      <point x="221" y="406" type="curve" smooth="yes"/>
      <point x="261" y="406"/>
      <point x="291" y="386"/>
      <point x="291" y="347" type="curve" smooth="yes"/>
      <point x="291" y="326"/>
      <point x="286" y="274"/>
      <point x="182" y="275" type="curve" smooth="yes"/>
      <point x="159" y="275" type="line"/>
      <point x="159" y="226" type="line"/>
      <point x="178" y="226" type="line"/>
      <point x="286" y="230"/>
      <point x="306" y="187"/>
      <point x="306" y="147" type="curve" smooth="yes"/>
      <point x="306" y="100"/>
      <point x="269" y="77"/>
      <point x="221" y="77" type="curve" smooth="yes"/>
      <point x="148" y="77"/>
      <point x="106" y="127"/>
      <point x="62" y="207" type="curve"/>
      <point x="18" y="180" type="line"/>
      <point x="74" y="81"/>
      <point x="127" y="25"/>
      <point x="222" y="25" type="curve" smooth="yes"/>
      <point x="298" y="25"/>
      <point x="358" y="74"/>
      <point x="358" y="137" type="curve" smooth="yes"/>
    </contour>
    <contour>
      <point x="449" y="246"/>
      <point x="427" y="230"/>
      <point x="375" y="230" type="curve" smooth="yes"/>
      <point x="346" y="230"/>
      <point x="313" y="239"/>
      <point x="271" y="257" type="curve"/>
      <point x="253" y="236" type="line"/>
      <point x="299" y="194"/>
      <point x="347" y="182"/>
      <point x="388" y="182" type="curve" smooth="yes"/>
      <point x="444" y="182"/>
      <point x="485" y="205"/>
      <point x="485" y="205" type="curve"/>
      <point x="483" y="264" type="line"/>
    </contour>
  </outline>
</glyph>
<glyph name="aa-deva" format="1">
  <advance width="794"/>
  <unicode hex="0906"/>
  <outline>
    <contour>
      <point x="666" y="0" type="line"/>
      <point x="721" y="0" type="line"/>
      <point x="721" y="456" type="line"/>
      <point x="666" y="456" type="line"/>
    </contour>
    <contour>
      <point x="562" y="456" type="line"/>
      <point x="562" y="408" type="line"/>
      <point x="818" y="408" type="line"/>
      <point x="818" y="456" type="line"/>
    </contour>
    <component base="a-deva"/>
    <contour>
      <point x="694" y="447" type="move" name="top"/>
    </contour>
  </outline>
</glyph>
<glyph name="ideva" format="1">
  <advance width="376"/>
  <unicode hex="0907"/>
  <outline>
    <contour>
      <point x="-28" y="456" type="line"/>
      <point x="-28" y="408" type="line"/>
      <point x="400" y="408" type="line"/>
      <point x="400" y="456" type="line"/>
    </contour>
    <contour>
      <point x="81" y="53" type="line"/>
      <point x="190" y="-99" type="line"/>
      <point x="239" y="-69" type="line"/>
      <point x="140" y="59" type="line"/>
    </contour>
    <contour>
      <point x="179" y="164"/>
      <point x="193" y="165"/>
      <point x="206" y="165" type="curve" smooth="yes"/>
      <point x="255" y="165"/>
      <point x="273" y="144"/>
      <point x="273" y="116" type="curve" smooth="yes"/>
      <point x="273" y="77"/>
      <point x="230" y="59"/>
      <point x="185" y="59" type="curve" smooth="yes"/>
      <point x="165" y="59"/>
      <point x="152" y="60"/>
      <point x="139" y="64" type="curve"/>
      <point x="83" y="136" type="line"/>
      <point x="42" y="136"/>
      <point x="31" y="114"/>
      <point x="31" y="95" type="curve" smooth="yes"/>
      <point x="31" y="36"/>
      <point x="125" y="9"/>
      <point x="189" y="9" type="curve" smooth="yes"/>
      <point x="269" y="9"/>
      <point x="327" y="50"/>
      <point x="327" y="115" type="curve" smooth="yes"/>
      <point x="327" y="184"/>
      <point x="275" y="215"/>
      <point x="213" y="215" type="curve" smooth="yes"/>
      <point x="199" y="215"/>
      <point x="186" y="214"/>
      <point x="173" y="214" type="curve" smooth="yes"/>
      <point x="121" y="214"/>
      <point x="97" y="224"/>
      <point x="97" y="256" type="curve" smooth="yes"/>
      <point x="97" y="282"/>
      <point x="121" y="294"/>
      <point x="171" y="294" type="curve" smooth="yes"/>
      <point x="233" y="294"/>
      <point x="250" y="289"/>
      <point x="285" y="285" type="curve"/>
      <point x="295" y="292" type="line"/>
      <point x="295" y="456" type="line"/>
      <point x="239" y="456" type="line"/>
      <point x="239" y="341" type="line"/>
      <point x="213" y="344"/>
      <point x="207" y="345"/>
      <point x="174" y="345" type="curve" smooth="yes"/>
      <point x="98" y="345"/>
      <point x="45" y="319"/>
      <point x="45" y="255" type="curve" smooth="yes"/>
      <point x="45" y="167"/>
      <point x="134" y="164"/>
      <point x="164" y="164" type="curve" smooth="yes"/>
    </contour>
  </outline>
</glyph>
<glyph name="ii-deva" format="1">
  <advance width="376"/>
  <unicode hex="0908"/>
  <outline>
    <contour>
      <point x="285" y="461"/>
      <point x="219" y="496"/>
      <point x="219" y="550" type="curve" smooth="yes"/>
      <point x="219" y="584"/>
      <point x="249" y="602"/>
      <point x="284" y="602" type="curve" smooth="yes"/>
      <point x="305" y="602"/>
      <point x="338" y="592"/>
      <point x="355" y="580" type="curve"/>
      <point x="355" y="580"/>
      <point x="381" y="620"/>
      <point x="381" y="620" type="curve"/>
      <point x="357" y="642"/>
      <point x="313" y="654"/>
      <point x="281" y="654" type="curve" smooth="yes"/>
      <point x="220" y="654"/>
      <point x="165" y="614"/>
      <point x="165" y="550" type="curve" smooth="yes"/>
      <point x="165" y="505"/>
      <point x="205" y="461"/>
      <point x="254" y="437" type="curve"/>
      <point x="322" y="437" type="line"/>
    </contour>
    <component base="i-deva"/>
  </outline>
</glyph>
<glyph name="udeva" format="1">
  <advance width="429"/>
  <unicode hex="0909"/>
  <outline>
    <contour>
      <point x="-24" y="456" type="line"/>
      <point x="-24" y="408" type="line"/>
      <point x="453" y="408" type="line"/>
      <point x="453" y="456" type="line"/>
    </contour>
    <contour>
      <point x="358" y="194"/>
      <point x="327" y="226"/>
      <point x="280" y="242" type="curve"/>
      <point x="325" y="265"/>
      <point x="343" y="296"/>
      <point x="343" y="339" type="curve" smooth="yes"/>
      <point x="343" y="373"/>
      <point x="331" y="403"/>
      <point x="298" y="424" type="curve" smooth="yes"/>
      <point x="267" y="444"/>
      <point x="217" y="456"/>
      <point x="182" y="456" type="curve"/>
      <point x="230" y="408" type="line"/>
      <point x="276" y="400"/>
      <point x="294" y="378"/>
      <point x="294" y="339" type="curve" smooth="yes"/>
      <point x="294" y="313"/>
      <point x="286" y="264"/>
      <point x="182" y="265" type="curve" smooth="yes"/>
      <point x="169" y="265" type="line"/>
      <point x="169" y="216" type="line"/>
      <point x="178" y="216" type="line"/>
      <point x="286" y="220"/>
      <point x="306" y="177"/>
      <point x="306" y="132" type="curve" smooth="yes"/>
      <point x="306" y="80"/>
      <point x="269" y="57"/>
      <point x="221" y="57" type="curve" smooth="yes"/>
      <point x="148" y="57"/>
      <point x="106" y="107"/>
      <point x="62" y="187" type="curve"/>
      <point x="18" y="160" type="line"/>
      <point x="74" y="61"/>
      <point x="127" y="5"/>
      <point x="222" y="5" type="curve" smooth="yes"/>
      <point x="298" y="5"/>
      <point x="358" y="54"/>
      <point x="358" y="126" type="curve" smooth="yes"/>
    </contour>
    <contour>
      <point x="234" y="447" type="move" name="top"/>
    </contour>
  </outline>
</glyph>
<glyph name="uudeva" format="1">
  <advance width="582"/>
  <unicode hex="090A"/>
  <outline>
    <contour>
      <point x="-24" y="456" type="line"/>
      <point x="-24" y="408" type="line"/>
      <point x="606" y="408" type="line"/>
      <point x="606" y="456" type="line"/>
    </contour>
    <contour>
      <point x="358" y="204"/>
      <point x="327" y="236"/>
      <point x="280" y="252" type="curve"/>
      <point x="325" y="275"/>
      <point x="343" y="305"/>
      <point x="343" y="344" type="curve" smooth="yes"/>
      <point x="343" y="373"/>
      <point x="331" y="403"/>
      <point x="298" y="424" type="curve" smooth="yes"/>
      <point x="267" y="444"/>
      <point x="217" y="456"/>
      <point x="182" y="456" type="curve"/>
      <point x="230" y="408" type="line"/>
      <point x="276" y="400"/>
      <point x="293" y="378"/>
      <point x="293" y="344" type="curve" smooth="yes"/>
      <point x="293" y="323"/>
      <point x="286" y="274"/>
      <point x="182" y="275" type="curve" smooth="yes"/>
      <point x="169" y="275" type="line"/>
      <point x="169" y="226" type="line"/>
      <point x="178" y="226" type="line"/>
      <point x="286" y="230"/>
      <point x="306" y="187"/>
      <point x="306" y="147" type="curve" smooth="yes"/>
      <point x="306" y="100"/>
      <point x="269" y="77"/>
      <point x="221" y="77" type="curve" smooth="yes"/>
      <point x="148" y="77"/>
      <point x="106" y="127"/>
      <point x="62" y="207" type="curve"/>
      <point x="18" y="180" type="line"/>
      <point x="74" y="81"/>
      <point x="127" y="25"/>
      <point x="222" y="25" type="curve" smooth="yes"/>
      <point x="298" y="25"/>
      <point x="358" y="74"/>
      <point x="358" y="141" type="curve" smooth="yes"/>
    </contour>
    <contour>
      <point x="328" y="141"/>
      <point x="334" y="155"/>
      <point x="345" y="170" type="curve" smooth="yes"/>
      <point x="363" y="195"/>
      <point x="394" y="227"/>
      <point x="432" y="227" type="curve" smooth="yes"/>
      <point x="473" y="227"/>
      <point x="484" y="198"/>
      <point x="484" y="175" type="curve" smooth="yes"/>
      <point x="484" y="130"/>
      <point x="455" y="112"/>
      <point x="429" y="91" type="curve"/>
      <point x="429" y="91"/>
      <point x="463" y="54"/>
      <point x="463" y="54" type="curve"/>
      <point x="494" y="76"/>
      <point x="534" y="113"/>
      <point x="534" y="175" type="curve" smooth="yes"/>
      <point x="534" y="238"/>
      <point x="487" y="275"/>
      <point x="430" y="275" type="curve" smooth="yes"/>
      <point x="366" y="275"/>
      <point x="312" y="208"/>
      <point x="312" y="208" type="curve"/>
      <point x="328" y="141" type="line"/>
    </contour>
  </outline>
</glyph>
<glyph name="uudeva" format="1">
  <advance width="582"/>
  <unicode hex="090A"/>
  <outline>
    <contour>
      <point x="-24" y="456" type="line"/>
      <point x="-24" y="408" type="line"/>
      <point x="606" y="408" type="line"/>
      <point x="606" y="456" type="line"/>
    </contour>
    <contour>
      <point x="328" y="141"/>
      <point x="334" y="155"/>
      <point x="345" y="170" type="curve" smooth="yes"/>
      <point x="363" y="195"/>
      <point x="394" y="227"/>
      <point x="432" y="227" type="curve" smooth="yes"/>
      <point x="473" y="227"/>
      <point x="484" y="198"/>
      <point x="484" y="175" type="curve" smooth="yes"/>
      <point x="484" y="130"/>
      <point x="455" y="112"/>
      <point x="429" y="91" type="curve"/>
      <point x="429" y="91"/>
      <point x="463" y="53"/>
      <point x="463" y="53" type="curve"/>
      <point x="494" y="75"/>
      <point x="536" y="113"/>
      <point x="536" y="175" type="curve" smooth="yes"/>
      <point x="536" y="238"/>
      <point x="489" y="277"/>
      <point x="430" y="277" type="curve" smooth="yes"/>
      <point x="366" y="277"/>
      <point x="312" y="210"/>
      <point x="312" y="210" type="curve"/>
      <point x="328" y="141" type="line"/>
    </contour>
    <contour>
      <point x="358" y="194"/>
      <point x="327" y="226"/>
      <point x="280" y="242" type="curve"/>
      <point x="325" y="265"/>
      <point x="343" y="296"/>
      <point x="343" y="339" type="curve" smooth="yes"/>
      <point x="343" y="373"/>
      <point x="331" y="403"/>
      <point x="298" y="424" type="curve" smooth="yes"/>
      <point x="267" y="444"/>
      <point x="217" y="456"/>
      <point x="182" y="456" type="curve"/>
      <point x="230" y="408" type="line"/>
      <point x="276" y="400"/>
      <point x="294" y="378"/>
      <point x="294" y="339" type="curve" smooth="yes"/>
      <point x="294" y="313"/>
      <point x="286" y="264"/>
      <point x="182" y="265" type="curve" smooth="yes"/>
      <point x="169" y="265" type="line"/>
      <point x="169" y="216" type="line"/>
      <point x="178" y="216" type="line"/>
      <point x="286" y="220"/>
      <point x="306" y="177"/>
      <point x="306" y="132" type="curve" smooth="yes"/>
      <point x="306" y="80"/>
      <point x="269" y="57"/>
      <point x="221" y="57" type="curve" smooth="yes"/>
      <point x="148" y="57"/>
      <point x="106" y="107"/>
      <point x="62" y="187" type="curve"/>
      <point x="18" y="160" type="line"/>
      <point x="74" y="61"/>
      <point x="127" y="5"/>
      <point x="222" y="5" type="curve" smooth="yes"/>
      <point x="298" y="5"/>
      <point x="358" y="54"/>
      <point x="358" y="126" type="curve" smooth="yes"/>
    </contour>
    <contour>
      <point x="254" y="447" type="move" name="top"/>
    </contour>
  </outline>
</glyph>
<glyph name="rvocalicdeva" format="1">
  <advance width="630"/>
  <unicode hex="090B"/>
  <outline>
    <contour>
      <point x="654" y="408" type="line"/>
      <point x="-24" y="408" type="line"/>
      <point x="-24" y="456" type="line"/>
      <point x="654" y="456" type="line"/>
    </contour>
    <contour>
      <point x="366" y="456" type="line"/>
      <point x="366" y="0" type="line"/>
      <point x="310" y="0" type="line"/>
      <point x="310" y="456" type="line"/>
    </contour>
    <contour>
      <point x="295" y="234" type="line"/>
      <point x="330" y="193" type="line"/>
      <point x="330" y="193"/>
      <point x="118" y="12"/>
      <point x="118" y="12" type="curve" smooth="yes"/>
      <point x="118" y="12"/>
      <point x="80" y="52"/>
      <point x="80" y="52" type="curve"/>
    </contour>
    <contour>
      <point x="318" y="169" type="line"/>
      <point x="308" y="182"/>
      <point x="296" y="201"/>
      <point x="285" y="215" type="curve" smooth="yes"/>
      <point x="254" y="253"/>
      <point x="217" y="283"/>
      <point x="177" y="283" type="curve"/>
      <point x="131" y="285"/>
      <point x="93" y="244"/>
      <point x="59" y="209" type="curve"/>
      <point x="19" y="246" type="line"/>
      <point x="66" y="296"/>
      <point x="108" y="337"/>
      <point x="179" y="337" type="curve"/>
      <point x="236" y="337"/>
      <point x="282" y="302"/>
      <point x="334" y="242" type="curve"/>
    </contour>
    <contour>
      <point x="362" y="243"/>
      <point x="387" y="221"/>
      <point x="429" y="221" type="curve"/>
      <point x="465" y="221"/>
      <point x="488" y="242"/>
      <point x="500" y="266" type="curve"/>
      <point x="528" y="222" type="line"/>
      <point x="503" y="192"/>
      <point x="469" y="172"/>
      <point x="430" y="172" type="curve"/>
      <point x="388" y="172"/>
      <point x="371" y="183"/>
      <point x="339" y="201" type="curve"/>
      <point x="339" y="255" type="line"/>
    </contour>
    <contour>
      <point x="539" y="273" type="line"/>
      <point x="560" y="247"/>
      <point x="602" y="205"/>
      <point x="602" y="149" type="curve"/>
      <point x="602" y="86"/>
      <point x="551" y="51"/>
      <point x="499" y="29" type="curve"/>
      <point x="477" y="71" type="line"/>
      <point x="516" y="89"/>
      <point x="554" y="111"/>
      <point x="554" y="150" type="curve"/>
      <point x="554" y="192"/>
      <point x="512" y="229"/>
      <point x="497" y="247" type="curve"/>
    </contour>
    <contour>
      <point x="492" y="254" type="line"/>
      <point x="444" y="314" type="line"/>
      <point x="457" y="329"/>
      <point x="476" y="342"/>
      <point x="501" y="342" type="curve"/>
      <point x="525" y="342"/>
      <point x="551" y="318"/>
      <point x="551" y="280" type="curve" smooth="yes"/>
      <point x="551" y="258"/>
      <point x="544" y="242"/>
      <point x="525" y="222" type="curve"/>
    </contour>
  </outline>
</glyph>
<glyph name="lvocalicdeva" format="1">
  <advance width="530"/>
  <unicode hex="090C"/>
  <outline>
    <contour>
      <point x="358" y="270" type="line"/>
      <point x="414" y="270" type="line"/>
      <point x="414" y="456" type="line"/>
      <point x="358" y="456" type="line"/>
    </contour>
    <contour>
      <point x="-24" y="456" type="line"/>
      <point x="-24" y="408" type="line"/>
      <point x="554" y="408" type="line"/>
      <point x="554" y="456" type="line"/>
    </contour>
    <contour>
      <point x="275" y="268"/>
      <point x="234" y="310"/>
      <point x="177" y="310" type="curve" smooth="yes"/>
      <point x="94" y="310"/>
      <point x="44" y="253"/>
      <point x="44" y="172" type="curve" smooth="yes"/>
      <point x="44" y="74"/>
      <point x="137" y="-12"/>
      <point x="137" y="-12" type="curve"/>
      <point x="190" y="11" type="line"/>
      <point x="167" y="36"/>
      <point x="101" y="102"/>
      <point x="101" y="172" type="curve" smooth="yes"/>
      <point x="101" y="221"/>
      <point x="129" y="256"/>
      <point x="176" y="256" type="curve" smooth="yes"/>
      <point x="230" y="256"/>
      <point x="255" y="182"/>
      <point x="255" y="182" type="curve"/>
      <point x="292" y="227" type="line"/>
    </contour>
    <contour>
      <point x="449" y="-62"/>
      <point x="479" y="-46"/>
      <point x="502" y="-27" type="curve"/>
      <point x="476" y="17" type="line"/>
      <point x="463" y="7"/>
      <point x="438" y="-11"/>
      <point x="417" y="-11" type="curve" smooth="yes"/>
      <point x="390" y="-11"/>
      <point x="376" y="2"/>
      <point x="376" y="26" type="curve" smooth="yes"/>
      <point x="376" y="60"/>
      <point x="400" y="68"/>
      <point x="430" y="91" type="curve" smooth="yes"/>
      <point x="461" y="115"/>
      <point x="485" y="142"/>
      <point x="486" y="190" type="curve" smooth="yes"/>
      <point x="487" y="249"/>
      <point x="441.41" y="307.62"/>
      <point x="365.23" y="307.62" type="curve" smooth="yes"/>
      <point x="298.83" y="307.62"/>
      <point x="235.35" y="265.62"/>
      <point x="235.35" y="164.06" type="curve" smooth="yes"/>
      <point x="235.35" y="154.3"/>
      <point x="237.3" y="127.93"/>
      <point x="239.26" y="118.16" type="curve"/>
      <point x="291.99" y="110.35" type="line"/>
      <point x="291.02" y="120.12"/>
      <point x="288.09" y="139.65"/>
      <point x="288.09" y="162.11" type="curve" smooth="yes"/>
      <point x="288.09" y="216.8"/>
      <point x="314.45" y="256.84"/>
      <point x="362.3" y="255.86" type="curve" smooth="yes"/>
      <point x="411.13" y="255.86"/>
      <point x="432" y="221"/>
      <point x="432" y="189" type="curve" smooth="yes"/>
      <point x="432" y="153"/>
      <point x="404" y="136"/>
      <point x="387" y="124" type="curve" smooth="yes"/>
      <point x="355" y="101"/>
      <point x="322" y="76"/>
      <point x="322" y="23" type="curve" smooth="yes"/>
      <point x="322" y="-19"/>
      <point x="348" y="-62"/>
      <point x="412" y="-62" type="curve" smooth="yes"/>
    </contour>
    <contour>
      <point x="358" y="270" type="line"/>
      <point x="414" y="270" type="line"/>
      <point x="414" y="456" type="line"/>
      <point x="358" y="456" type="line"/>
    </contour>
    <contour>
      <point x="-24" y="456" type="line"/>
      <point x="-24" y="408" type="line"/>
      <point x="554" y="408" type="line"/>
      <point x="554" y="456" type="line"/>
    </contour>
    <contour>
      <point x="275" y="268"/>
      <point x="234" y="310"/>
      <point x="177" y="310" type="curve" smooth="yes"/>
      <point x="94" y="310"/>
      <point x="44" y="253"/>
      <point x="44" y="172" type="curve" smooth="yes"/>
      <point x="44" y="74"/>
      <point x="137" y="-12"/>
      <point x="137" y="-12" type="curve"/>
      <point x="190" y="11" type="line"/>
      <point x="167" y="36"/>
      <point x="101" y="102"/>
      <point x="101" y="172" type="curve" smooth="yes"/>
      <point x="101" y="221"/>
      <point x="129" y="256"/>
      <point x="176" y="256" type="curve" smooth="yes"/>
      <point x="230" y="256"/>
      <point x="255" y="182"/>
      <point x="255" y="182" type="curve"/>
      <point x="292" y="227" type="line"/>
    </contour>
  </outline>
</glyph>
<glyph name="edeva" format="1">
  <advance width="398"/>
  <unicode hex="090F"/>
  <outline>
    <contour>
      <point x="50" y="456"/>
      <point x="50" y="365"/>
      <point x="50" y="292" type="curve"/>
      <point x="51" y="200" type="line"/>
      <point x="314" y="-11" type="line"/>
      <point x="348" y="30" type="line"/>
      <point x="105" y="224" type="line"/>
      <point x="105" y="290" type="line"/>
      <point x="105" y="336"/>
      <point x="105" y="456"/>
      <point x="105" y="456" type="curve" smooth="yes"/>
      <point x="50" y="456" type="line" smooth="yes"/>
    </contour>
    <contour>
      <point x="-24" y="456" type="line"/>
      <point x="-24" y="408" type="line"/>
      <point x="422" y="408" type="line"/>
      <point x="422" y="456" type="line"/>
    </contour>
    <contour>
      <point x="280" y="287" type="line"/>
      <point x="278" y="240"/>
      <point x="272" y="218"/>
      <point x="228" y="198" type="curve"/>
      <point x="253" y="152" type="line"/>
      <point x="310" y="178"/>
      <point x="332" y="216"/>
      <point x="332" y="276" type="curve"/>
      <point x="332" y="456" type="line"/>
      <point x="280" y="456" type="line"/>
    </contour>
  </outline>
</glyph>
<glyph name="edeva" format="1">
  <advance width="398"/>
  <unicode hex="090F"/>
  <outline>
    <contour>
      <point x="50" y="456"/>
      <point x="50" y="365"/>
      <point x="50" y="292" type="curve" smooth="yes"/>
      <point x="50" y="80"/>
      <point x="211" y="27"/>
      <point x="329" y="-21" type="curve"/>
      <point x="350" y="26" type="line"/>
      <point x="260" y="60"/>
      <point x="187" y="97"/>
      <point x="145" y="152" type="curve" smooth="yes"/>
      <point x="117" y="188"/>
      <point x="103" y="240"/>
      <point x="105" y="290" type="curve"/>
      <point x="105" y="336"/>
      <point x="105" y="456"/>
      <point x="105" y="456" type="curve" smooth="yes"/>
      <point x="50" y="456" type="line" smooth="yes"/>
    </contour>
    <contour>
      <point x="-24" y="456" type="line"/>
      <point x="-24" y="408" type="line"/>
      <point x="422" y="408" type="line"/>
      <point x="422" y="456" type="line"/>
    </contour>
    <contour>
      <point x="280" y="456"/>
      <point x="290" y="386"/>
      <point x="290" y="324" type="curve" smooth="yes"/>
      <point x="293" y="212"/>
      <point x="251" y="202"/>
      <point x="210" y="187" type="curve"/>
      <point x="234" y="141" type="line"/>
      <point x="289" y="157"/>
      <point x="344" y="186"/>
      <point x="344" y="325" type="curve" smooth="yes"/>
      <point x="344" y="387"/>
      <point x="334" y="456"/>
      <point x="332" y="456" type="curve" smooth="yes"/>
      <point x="280" y="456" type="line" smooth="yes"/>
    </contour>
  </outline>
</glyph>
<glyph name="aideva" format="1">
  <advance width="408"/>
  <unicode hex="0910"/>
  <outline>
    <contour>
      <point x="240" y="588" type="line"/>
      <point x="209" y="624"/>
      <point x="191" y="637"/>
      <point x="153" y="637" type="curve" smooth="yes"/>
      <point x="121" y="637"/>
      <point x="91" y="622"/>
      <point x="91" y="622" type="curve" smooth="yes"/>
      <point x="91" y="622"/>
      <point x="112" y="575"/>
      <point x="112" y="575" type="curve" smooth="yes"/>
      <point x="112" y="575"/>
      <point x="131" y="586"/>
      <point x="153" y="586" type="curve" smooth="yes"/>
      <point x="174" y="586"/>
      <point x="183" y="578"/>
      <point x="199" y="559" type="curve"/>
      <point x="296" y="437" type="line"/>
      <point x="358" y="437" type="line"/>
    </contour>
    <component base="edeva"/>
  </outline>
</glyph>
<glyph name="odeva" format="1">
  <advance width="800"/>
  <unicode hex="0913"/>
  <outline>
    <contour>
      <point x="672" y="0" type="line"/>
      <point x="727" y="0" type="line"/>
      <point x="727" y="456" type="line"/>
      <point x="672" y="456" type="line"/>
    </contour>
    <contour>
      <point x="568" y="456" type="line"/>
      <point x="568" y="408" type="line"/>
      <point x="824" y="408" type="line"/>
      <point x="824" y="456" type="line"/>
    </contour>
    <contour>
      <point x="625" y="588" type="line" smooth="yes"/>
      <point x="595" y="624"/>
      <point x="576" y="637"/>
      <point x="539" y="637" type="curve" smooth="yes"/>
      <point x="506" y="637"/>
      <point x="476" y="622"/>
      <point x="476" y="622" type="curve" smooth="yes"/>
      <point x="476" y="622"/>
      <point x="497" y="575"/>
      <point x="497" y="575" type="curve" smooth="yes"/>
      <point x="497" y="575"/>
      <point x="516" y="586"/>
      <point x="539" y="586" type="curve" smooth="yes"/>
      <point x="561" y="586"/>
      <point x="570" y="578"/>
      <point x="584" y="559" type="curve"/>
      <point x="681" y="437" type="line"/>
      <point x="744" y="437" type="line"/>
    </contour>
    <component base="adeva"/>
  </outline>
</glyph>
<glyph name="audeva" format="1">
  <advance width="795"/>
  <unicode hex="0914"/>
  <outline>
    <contour>
      <point x="667" y="0" type="line"/>
      <point x="722" y="0" type="line"/>
      <point x="722" y="456" type="line"/>
      <point x="667" y="456" type="line"/>
    </contour>
    <contour>
      <point x="563" y="456" type="line"/>
      <point x="563" y="408" type="line"/>
      <point x="819" y="408" type="line"/>
      <point x="819" y="456" type="line"/>
    </contour>
    <contour>
      <point x="677" y="601" type="line" smooth="yes"/>
      <point x="661" y="639"/>
      <point x="643" y="678"/>
      <point x="592" y="678" type="curve" smooth="yes"/>
      <point x="567" y="678"/>
      <point x="538" y="670"/>
      <point x="538" y="670" type="curve"/>
      <point x="547" y="621" type="line"/>
      <point x="547" y="621"/>
      <point x="572" y="627"/>
      <point x="587" y="627" type="curve" smooth="yes"/>
      <point x="616" y="627"/>
      <point x="629" y="594"/>
      <point x="643" y="566" type="curve" smooth="yes"/>
      <point x="689" y="469" type="line"/>
      <point x="606" y="541" type="line"/>
      <point x="565" y="573"/>
      <point x="546" y="595"/>
      <point x="509" y="595" type="curve" smooth="yes"/>
      <point x="487" y="595"/>
      <point x="452" y="582"/>
      <point x="452" y="582" type="curve"/>
      <point x="467" y="534" type="line"/>
      <point x="467" y="534"/>
      <point x="492" y="543"/>
      <point x="507" y="543" type="curve" smooth="yes"/>
      <point x="528" y="543"/>
      <point x="550" y="524"/>
      <point x="586" y="498" type="curve" smooth="yes"/>
      <point x="673" y="437" type="line"/>
      <point x="744" y="437" type="line"/>
    </contour>
    <component base="adeva"/>
  </outline>
</glyph>
<glyph name="kadeva" format="1">
  <advance width="551"/>
  <unicode hex="0915"/>
  <outline>
    <contour>
      <point x="259" y="0" type="line"/>
      <point x="312" y="0" type="line"/>
      <point x="312" y="456" type="line"/>
      <point x="259" y="456" type="line"/>
    </contour>
    <contour>
      <point x="-24" y="456" type="line"/>
      <point x="-24" y="408" type="line"/>
      <point x="575" y="408" type="line"/>
      <point x="575" y="456" type="line"/>
    </contour>
    <contour>
      <point x="30" y="124"/>
      <point x="90" y="73"/>
      <point x="173" y="73" type="curve" smooth="yes"/>
      <point x="235" y="73"/>
      <point x="268" y="100"/>
      <point x="295" y="118" type="curve"/>
      <point x="281" y="169" type="line"/>
      <point x="265" y="157"/>
      <point x="239" y="124"/>
      <point x="182" y="124" type="curve" smooth="yes"/>
      <point x="123" y="124"/>
      <point x="86" y="151"/>
      <point x="86" y="205" type="curve" smooth="yes"/>
      <point x="86" y="258"/>
      <point x="123" y="286"/>
      <point x="177" y="286" type="curve" smooth="yes"/>
      <point x="229" y="286"/>
      <point x="265" y="253"/>
      <point x="281" y="241" type="curve"/>
      <point x="295" y="292" type="line"/>
      <point x="268" y="310"/>
      <point x="225" y="337"/>
      <point x="173" y="337" type="curve" smooth="yes"/>
      <point x="90" y="337"/>
      <point x="30" y="286"/>
      <point x="30" y="205" type="curve" smooth="yes"/>
    </contour>
    <contour>
      <point x="516" y="280"/>
      <point x="462" y="333"/>
      <point x="379" y="333" type="curve" smooth="yes"/>
      <point x="327" y="333"/>
      <point x="284" y="296"/>
      <point x="257" y="278" type="curve"/>
      <point x="271" y="227" type="line"/>
      <point x="287" y="239"/>
      <point x="329" y="282"/>
      <point x="375" y="282" type="curve" smooth="yes"/>
      <point x="429" y="282"/>
      <point x="460" y="254"/>
      <point x="460" y="207" type="curve" smooth="yes"/>
      <point x="460" y="156"/>
      <point x="423" y="128"/>
      <point x="394" y="101" type="curve"/>
      <point x="433" y="62" type="line"/>
      <point x="470" y="91"/>
      <point x="516" y="138"/>
      <point x="516" y="201" type="curve" smooth="yes"/>
    </contour>
    <contour>
      <point x="286" y="447" type="move" name="top"/>
    </contour>
    <contour>
      <point x="286" y="5" type="move" name="bottom"/>
    </contour>
  </outline>
</glyph>
<glyph name="kha-deva" format="1">
  <advance width="580"/>
  <unicode hex="0916"/>
  <outline>
    <contour>
      <point x="453" y="0" type="line"/>
      <point x="506" y="0" type="line"/>
      <point x="506" y="456" type="line"/>
      <point x="453" y="456" type="line"/>
    </contour>
    <contour>
      <point x="-24" y="456" type="line"/>
      <point x="-24" y="408" type="line"/>
      <point x="604" y="408" type="line"/>
      <point x="604" y="456" type="line"/>
    </contour>
    <contour>
      <point x="87" y="427"/>
      <point x="158" y="403"/>
      <point x="158" y="306" type="curve" smooth="yes"/>
      <point x="158" y="209"/>
      <point x="44" y="206"/>
      <point x="44" y="206" type="curve" smooth="yes"/>
      <point x="44" y="206"/>
      <point x="66" y="157"/>
      <point x="66" y="157" type="curve"/>
      <point x="105" y="157"/>
      <point x="212" y="191"/>
      <point x="212" y="304" type="curve" smooth="yes"/>
      <point x="212" y="412"/>
      <point x="139" y="443"/>
      <point x="139" y="443" type="curve"/>
      <point x="87" y="427" type="line"/>
    </contour>
    <contour>
      <point x="14" y="212"/>
      <point x="209" y="-17"/>
      <point x="209" y="-17" type="curve" smooth="yes"/>
      <point x="209" y="-17"/>
      <point x="253" y="18"/>
      <point x="253" y="18" type="curve"/>
      <point x="54" y="246" type="line"/>
      <point x="14" y="212" type="line"/>
    </contour>
    <contour>
      <point x="245" y="121"/>
      <point x="303" y="70"/>
      <point x="376" y="70" type="curve" smooth="yes"/>
      <point x="428" y="70"/>
      <point x="463" y="84"/>
      <point x="490" y="102" type="curve"/>
      <point x="476" y="154" type="line"/>
      <point x="460" y="140"/>
      <point x="432" y="121"/>
      <point x="385" y="121" type="curve" smooth="yes"/>
      <point x="336" y="121"/>
      <point x="301" y="148"/>
      <point x="301" y="202" type="curve" smooth="yes"/>
      <point x="301" y="255"/>
      <point x="336" y="283"/>
      <point x="380" y="283" type="curve" smooth="yes"/>
      <point x="432" y="283"/>
      <point x="460" y="258"/>
      <point x="476" y="245" type="curve"/>
      <point x="490" y="298" type="line"/>
      <point x="463" y="314"/>
      <point x="428" y="334"/>
      <point x="376" y="334" type="curve" smooth="yes"/>
      <point x="303" y="334"/>
      <point x="245" y="283"/>
      <point x="245" y="202" type="curve" smooth="yes"/>
    </contour>
    <contour>
      <point x="480" y="447" type="move" name="top"/>
    </contour>
    <contour>
      <point x="480" y="5" type="move" name="bottom"/>
    </contour>
  </outline>
</glyph>
<glyph name="khadeva" format="1">
  <advance width="595"/>
  <unicode hex="0916"/>
  <outline>
    <contour>
      <point x="468" y="0" type="line"/>
      <point x="521" y="0" type="line"/>
      <point x="521" y="456" type="line"/>
      <point x="468" y="456" type="line"/>
    </contour>
    <contour>
      <point x="-28" y="456" type="line"/>
      <point x="-28" y="408" type="line"/>
      <point x="619" y="408" type="line"/>
      <point x="619" y="456" type="line"/>
    </contour>
    <contour>
      <point x="87" y="427"/>
      <point x="158" y="403"/>
      <point x="158" y="306" type="curve" smooth="yes"/>
      <point x="158" y="209"/>
      <point x="44" y="206"/>
      <point x="44" y="206" type="curve" smooth="yes"/>
      <point x="44" y="206"/>
      <point x="66" y="157"/>
      <point x="66" y="157" type="curve"/>
      <point x="105" y="157"/>
      <point x="212" y="191"/>
      <point x="212" y="304" type="curve" smooth="yes"/>
      <point x="212" y="412"/>
      <point x="139" y="443"/>
      <point x="139" y="443" type="curve"/>
      <point x="87" y="427" type="line"/>
    </contour>
    <contour>
      <point x="14" y="212"/>
      <point x="209" y="-17"/>
      <point x="209" y="-17" type="curve" smooth="yes"/>
      <point x="209" y="-17"/>
      <point x="253" y="18"/>
      <point x="253" y="18" type="curve"/>
      <point x="54" y="246" type="line"/>
      <point x="14" y="212" type="line"/>
    </contour>
    <contour>
      <point x="240" y="121"/>
      <point x="300" y="70"/>
      <point x="383" y="70" type="curve" smooth="yes"/>
      <point x="445" y="70"/>
      <point x="478" y="97"/>
      <point x="505" y="115" type="curve"/>
      <point x="491" y="166" type="line"/>
      <point x="475" y="154"/>
      <point x="449" y="121"/>
      <point x="392" y="121" type="curve" smooth="yes"/>
      <point x="333" y="121"/>
      <point x="296" y="148"/>
      <point x="296" y="202" type="curve" smooth="yes"/>
      <point x="296" y="255"/>
      <point x="333" y="283"/>
      <point x="387" y="283" type="curve" smooth="yes"/>
      <point x="439" y="283"/>
      <point x="475" y="250"/>
      <point x="491" y="238" type="curve"/>
      <point x="505" y="289" type="line"/>
      <point x="478" y="307"/>
      <point x="435" y="334"/>
      <point x="383" y="334" type="curve" smooth="yes"/>
      <point x="300" y="334"/>
      <point x="240" y="283"/>
      <point x="240" y="202" type="curve" smooth="yes"/>
    </contour>
    <contour>
      <point x="495" y="447" type="move" name="top"/>
    </contour>
    <contour>
      <point x="495" y="5" type="move" name="bottom"/>
    </contour>
  </outline>
</glyph>
<glyph name="gadeva" format="1">
  <advance width="447"/>
  <unicode hex="0917"/>
  <outline>
    <contour>
      <point x="317" y="0" type="line"/>
      <point x="373" y="0" type="line"/>
      <point x="373" y="456" type="line"/>
      <point x="317" y="456" type="line"/>
    </contour>
    <contour>
      <point x="96" y="151" type="line"/>
      <point x="151" y="151" type="line"/>
      <point x="151" y="456" type="line"/>
      <point x="96" y="456" type="line"/>
    </contour>
    <contour>
      <point x="-24" y="456" type="line"/>
      <point x="-24" y="408" type="line"/>
      <point x="471" y="408" type="line"/>
      <point x="471" y="456" type="line"/>
    </contour>
    <contour>
      <point x="38" y="215" type="line"/>
      <point x="38" y="181" type="line"/>
      <point x="113" y="90" type="line"/>
      <point x="113" y="90"/>
      <point x="151" y="90"/>
      <point x="151" y="90" type="curve"/>
      <point x="151" y="215" type="line"/>
    </contour>
    <contour>
      <point x="345" y="447" type="move" name="top"/>
    </contour>
    <contour>
      <point x="345" y="5" type="move" name="bottom"/>
    </contour>
  </outline>
</glyph>
<glyph name="ca-deva" format="1">
  <advance width="470"/>
  <unicode hex="091A"/>
  <outline>
    <contour>
      <point x="340" y="0" type="line"/>
      <point x="396" y="0" type="line"/>
      <point x="396" y="456" type="line"/>
      <point x="340" y="456" type="line"/>
    </contour>
    <contour>
      <point x="-24" y="456" type="line"/>
      <point x="-24" y="408" type="line"/>
      <point x="494" y="408" type="line"/>
      <point x="494" y="456" type="line"/>
    </contour>
    <contour>
      <point x="362" y="187"/>
      <point x="322" y="130"/>
      <point x="238" y="130" type="curve" smooth="yes"/>
      <point x="184" y="130"/>
      <point x="143" y="155"/>
      <point x="143" y="200" type="curve" smooth="yes"/>
      <point x="143" y="261"/>
      <point x="205" y="271"/>
      <point x="205" y="271" type="curve" smooth="yes"/>
      <point x="124" y="271" type="line" smooth="yes"/>
      <point x="124" y="271"/>
      <point x="87" y="259"/>
      <point x="87" y="194" type="curve" smooth="yes"/>
      <point x="87" y="133"/>
      <point x="139" y="78"/>
      <point x="237" y="78" type="curve" smooth="yes"/>
      <point x="314" y="78"/>
      <point x="352" y="112"/>
      <point x="373" y="130" type="curve"/>
      <point x="373" y="200" type="line"/>
    </contour>
    <contour>
      <point x="21" y="301" type="line"/>
      <point x="21" y="253" type="line"/>
      <point x="253" y="253" type="line"/>
      <point x="253" y="301" type="line"/>
    </contour>
    <contour>
      <point x="368" y="447" type="move" name="top"/>
    </contour>
    <contour>
      <point x="368" y="5" type="move" name="bottom"/>
    </contour>
  </outline>
</glyph>
<glyph name="cadeva" format="1">
  <advance width="465"/>
  <unicode hex="091A"/>
  <outline>
    <contour>
      <point x="335" y="0" type="line"/>
      <point x="391" y="0" type="line"/>
      <point x="391" y="456" type="line"/>
      <point x="335" y="456" type="line"/>
    </contour>
    <contour>
      <point x="-24" y="456" type="line"/>
      <point x="-24" y="408" type="line"/>
      <point x="489" y="408" type="line"/>
      <point x="489" y="456" type="line"/>
    </contour>
    <contour>
      <point x="357" y="187"/>
      <point x="317" y="130"/>
      <point x="233" y="130" type="curve" smooth="yes"/>
      <point x="179" y="130"/>
      <point x="138" y="155"/>
      <point x="138" y="200" type="curve" smooth="yes"/>
      <point x="138" y="251"/>
      <point x="190" y="266"/>
      <point x="190" y="266" type="curve" smooth="yes"/>
      <point x="115" y="266" type="line" smooth="yes"/>
      <point x="115" y="266"/>
      <point x="82" y="249"/>
      <point x="82" y="194" type="curve" smooth="yes"/>
      <point x="82" y="133"/>
      <point x="134" y="78"/>
      <point x="232" y="78" type="curve" smooth="yes"/>
      <point x="310" y="78"/>
      <point x="347" y="112"/>
      <point x="368" y="130" type="curve"/>
      <point x="368" y="200" type="line"/>
    </contour>
    <contour>
      <point x="16" y="296" type="line"/>
      <point x="16" y="248" type="line"/>
      <point x="248" y="248" type="line"/>
      <point x="248" y="296" type="line"/>
    </contour>
    <contour>
      <point x="363" y="447" type="move" name="top"/>
    </contour>
    <contour>
      <point x="363" y="5" type="move" name="bottom"/>
    </contour>
  </outline>
</glyph>
<glyph name="chadeva" format="1">
  <advance width="534"/>
  <unicode hex="091B"/>
  <outline>
    <contour>
      <point x="558" y="408" type="line"/>
      <point x="558" y="456" type="line"/>
      <point x="-24" y="456" type="line"/>
      <point x="-24" y="408" type="line"/>
    </contour>
    <contour>
      <point x="450" y="121"/>
      <point x="375" y="58"/>
      <point x="254" y="58" type="curve" smooth="yes"/>
      <point x="186" y="58"/>
      <point x="118" y="90"/>
      <point x="118" y="147" type="curve" smooth="yes"/>
      <point x="118" y="187"/>
      <point x="133" y="230"/>
      <point x="241" y="226" type="curve"/>
      <point x="246" y="226" type="line"/>
      <point x="246" y="275" type="line"/>
      <point x="237" y="275" type="line" smooth="yes"/>
      <point x="133" y="274"/>
      <point x="126" y="323"/>
      <point x="126" y="344" type="curve" smooth="yes"/>
      <point x="126" y="378"/>
      <point x="143" y="400"/>
      <point x="189" y="408" type="curve"/>
      <point x="237" y="456" type="line"/>
      <point x="202" y="456"/>
      <point x="148" y="444"/>
      <point x="117" y="424" type="curve" smooth="yes"/>
      <point x="84" y="403"/>
      <point x="72" y="373"/>
      <point x="72" y="344" type="curve" smooth="yes"/>
      <point x="72" y="305"/>
      <point x="90" y="275"/>
      <point x="135" y="252" type="curve"/>
      <point x="94" y="232"/>
      <point x="64" y="204"/>
      <point x="64" y="153" type="curve" smooth="yes"/>
      <point x="64" y="64"/>
      <point x="141" y="6"/>
      <point x="254" y="6" type="curve" smooth="yes"/>
      <point x="358" y="6"/>
      <point x="501" y="57"/>
      <point x="501" y="220" type="curve" smooth="yes"/>
      <point x="501" y="298"/>
      <point x="457" y="349"/>
      <point x="400" y="349" type="curve" smooth="yes"/>
      <point x="343" y="349"/>
      <point x="298" y="298"/>
      <point x="298" y="228" type="curve" smooth="yes"/>
      <point x="298" y="147"/>
      <point x="340" y="98"/>
      <point x="360" y="69" type="curve"/>
      <point x="360" y="69"/>
      <point x="420" y="94"/>
      <point x="410" y="94" type="curve" smooth="yes"/>
      <point x="410" y="94"/>
      <point x="351" y="140"/>
      <point x="351" y="228" type="curve" smooth="yes"/>
      <point x="351" y="266"/>
      <point x="374" y="295"/>
      <point x="400" y="295" type="curve" smooth="yes"/>
      <point x="422" y="295"/>
      <point x="450" y="273"/>
      <point x="450" y="216" type="curve" smooth="yes"/>
    </contour>
    <contour>
      <point x="381" y="333" type="line"/>
      <point x="431" y="333" type="line"/>
      <point x="431" y="456" type="line"/>
      <point x="381" y="456" type="line"/>
    </contour>
    <contour>
      <point x="406" y="447" type="move" name="top"/>
    </contour>
    <contour>
      <point x="254" y="-19" type="move" name="bottom"/>
    </contour>
  </outline>
</glyph>
<glyph name="ja-deva" format="1">
  <advance width="539"/>
  <unicode hex="091C"/>
  <outline>
    <contour>
      <point x="409" y="0" type="line"/>
      <point x="465" y="0" type="line"/>
      <point x="465" y="456" type="line"/>
      <point x="409" y="456" type="line"/>
    </contour>
    <contour>
      <point x="-24" y="456" type="line"/>
      <point x="-24" y="408" type="line"/>
      <point x="563" y="408" type="line"/>
      <point x="563" y="456" type="line"/>
    </contour>
    <contour>
      <point x="430" y="284"/>
      <point x="295" y="284"/>
      <point x="231" y="284" type="curve"/>
      <point x="227" y="236" type="line"/>
      <point x="299" y="236"/>
      <point x="430" y="236"/>
      <point x="430" y="236" type="curve"/>
      <point x="430" y="284" type="line"/>
    </contour>
    <contour>
      <point x="334" y="186"/>
      <point x="324" y="231"/>
      <point x="276" y="265" type="curve" smooth="yes"/>
      <point x="265" y="273"/>
      <point x="254" y="276"/>
      <point x="241" y="284" type="curve"/>
      <point x="198" y="284" type="line"/>
      <point x="198" y="239" type="line"/>
      <point x="264" y="239"/>
      <point x="282" y="193"/>
      <point x="282" y="160" type="curve" smooth="yes"/>
      <point x="282" y="112"/>
      <point x="247" y="87"/>
      <point x="204" y="87" type="curve" smooth="yes"/>
      <point x="146" y="87"/>
      <point x="91" y="144"/>
      <point x="61" y="245" type="curve"/>
      <point x="14" y="225" type="line"/>
      <point x="51" y="104"/>
      <point x="116" y="35"/>
      <point x="205" y="35" type="curve" smooth="yes"/>
      <point x="256" y="35"/>
      <point x="334" y="64"/>
      <point x="334" y="156" type="curve" smooth="yes"/>
    </contour>
    <contour>
      <point x="437" y="447" type="move" name="top"/>
    </contour>
    <contour>
      <point x="437" y="5" type="move" name="bottom"/>
    </contour>
  </outline>
</glyph>
<glyph name="jha-deva" format="1">
  <advance width="561"/>
  <unicode hex="091D"/>
  <outline>
    <contour>
      <point x="-24" y="456" type="line"/>
      <point x="-24" y="408" type="line"/>
      <point x="585" y="408" type="line"/>
      <point x="585" y="456" type="line"/>
    </contour>
    <contour>
      <point x="477" y="237"/>
      <point x="454" y="184"/>
      <point x="371" y="184" type="curve" smooth="yes"/>
      <point x="346" y="184"/>
      <point x="291" y="203"/>
      <point x="256" y="211" type="curve"/>
      <point x="244" y="168" type="line"/>
      <point x="280" y="159"/>
      <point x="332" y="136"/>
      <point x="382" y="136" type="curve" smooth="yes"/>
      <point x="446" y="136"/>
      <point x="477" y="186"/>
      <point x="477" y="186" type="curve"/>
      <point x="477" y="237" type="line"/>
    </contour>
    <contour>
      <point x="434" y="0" type="line"/>
      <point x="490" y="0" type="line"/>
      <point x="490" y="456" type="line"/>
      <point x="434" y="456" type="line"/>
    </contour>
    <contour>
      <point x="104" y="53" type="line"/>
      <point x="104" y="53"/>
      <point x="199" y="-97"/>
      <point x="199" y="-97" type="curve" smooth="yes"/>
      <point x="199" y="-97"/>
      <point x="247" y="-75"/>
      <point x="247" y="-75" type="curve"/>
      <point x="155" y="59" type="line"/>
    </contour>
    <contour>
      <point x="52" y="189"/>
      <point x="101" y="163"/>
      <point x="150" y="163" type="curve" smooth="yes"/>
      <point x="177" y="163"/>
      <point x="203" y="169"/>
      <point x="223" y="169" type="curve" smooth="yes"/>
      <point x="265" y="169"/>
      <point x="282" y="146"/>
      <point x="282" y="116" type="curve" smooth="yes"/>
      <point x="282" y="77"/>
      <point x="238" y="59"/>
      <point x="203" y="59" type="curve" smooth="yes"/>
      <point x="183" y="59"/>
      <point x="168" y="59"/>
      <point x="151" y="65" type="curve"/>
      <point x="98" y="134" type="line"/>
      <point x="71" y="136"/>
      <point x="46" y="121"/>
      <point x="46" y="96" type="curve" smooth="yes"/>
      <point x="46" y="36"/>
      <point x="140" y="9"/>
      <point x="197" y="9" type="curve" smooth="yes"/>
      <point x="277" y="9"/>
      <point x="336" y="50"/>
      <point x="336" y="115" type="curve" smooth="yes"/>
      <point x="336" y="185"/>
      <point x="292" y="222"/>
      <point x="225" y="222" type="curve" smooth="yes"/>
      <point x="204" y="222"/>
      <point x="181" y="216"/>
      <point x="160" y="216" type="curve" smooth="yes"/>
      <point x="127" y="216"/>
      <point x="105" y="223"/>
      <point x="105" y="256" type="curve" smooth="yes"/>
      <point x="105" y="284"/>
      <point x="129" y="294"/>
      <point x="179" y="294" type="curve" smooth="yes"/>
      <point x="241" y="294"/>
      <point x="258" y="289"/>
      <point x="293" y="285" type="curve"/>
      <point x="303" y="292" type="line"/>
      <point x="303" y="456" type="line"/>
      <point x="247" y="456" type="line"/>
      <point x="247" y="341" type="line"/>
      <point x="221" y="344"/>
      <point x="213" y="345"/>
      <point x="180" y="345" type="curve" smooth="yes"/>
      <point x="107" y="345"/>
      <point x="52" y="323"/>
      <point x="52" y="260" type="curve" smooth="yes"/>
    </contour>
    <contour>
      <point x="462" y="447" type="move" name="top"/>
    </contour>
    <contour>
      <point x="462" y="5" type="move" name="bottom"/>
    </contour>
  </outline>
</glyph>
<glyph name="jhadeva" format="1">
  <advance width="561"/>
  <unicode hex="091D"/>
  <outline>
    <contour>
      <point x="-24" y="456" type="line"/>
      <point x="-24" y="408" type="line"/>
      <point x="585" y="408" type="line"/>
      <point x="585" y="456" type="line"/>
    </contour>
    <contour>
      <point x="474" y="237"/>
      <point x="451" y="184"/>
      <point x="368" y="184" type="curve" smooth="yes"/>
      <point x="343" y="184"/>
      <point x="288" y="203"/>
      <point x="253" y="211" type="curve"/>
      <point x="241" y="168" type="line"/>
      <point x="277" y="159"/>
      <point x="329" y="136"/>
      <point x="379" y="136" type="curve" smooth="yes"/>
      <point x="443" y="136"/>
      <point x="474" y="186"/>
      <point x="474" y="186" type="curve"/>
      <point x="474" y="237" type="line"/>
    </contour>
    <contour>
      <point x="431" y="0" type="line"/>
      <point x="487" y="0" type="line"/>
      <point x="487" y="456" type="line"/>
      <point x="431" y="456" type="line"/>
    </contour>
    <contour>
      <point x="101" y="53" type="line"/>
      <point x="101" y="53"/>
      <point x="196" y="-97"/>
      <point x="196" y="-97" type="curve" smooth="yes"/>
      <point x="196" y="-97"/>
      <point x="244" y="-75"/>
      <point x="244" y="-75" type="curve"/>
      <point x="152" y="59" type="line"/>
    </contour>
    <contour>
      <point x="49" y="189"/>
      <point x="98" y="163"/>
      <point x="147" y="163" type="curve" smooth="yes"/>
      <point x="174" y="163"/>
      <point x="200" y="169"/>
      <point x="220" y="169" type="curve" smooth="yes"/>
      <point x="262" y="169"/>
      <point x="279" y="146"/>
      <point x="279" y="116" type="curve" smooth="yes"/>
      <point x="279" y="77"/>
      <point x="235" y="59"/>
      <point x="200" y="59" type="curve" smooth="yes"/>
      <point x="180" y="59"/>
      <point x="165" y="59"/>
      <point x="148" y="65" type="curve"/>
      <point x="95" y="134" type="line"/>
      <point x="68" y="136"/>
      <point x="43" y="121"/>
      <point x="43" y="96" type="curve" smooth="yes"/>
      <point x="43" y="36"/>
      <point x="137" y="9"/>
      <point x="194" y="9" type="curve" smooth="yes"/>
      <point x="274" y="9"/>
      <point x="333" y="50"/>
      <point x="333" y="115" type="curve" smooth="yes"/>
      <point x="333" y="185"/>
      <point x="289" y="222"/>
      <point x="222" y="222" type="curve" smooth="yes"/>
      <point x="201" y="222"/>
      <point x="178" y="216"/>
      <point x="157" y="216" type="curve" smooth="yes"/>
      <point x="124" y="216"/>
      <point x="102" y="223"/>
      <point x="102" y="256" type="curve" smooth="yes"/>
      <point x="102" y="284"/>
      <point x="126" y="294"/>
      <point x="176" y="294" type="curve" smooth="yes"/>
      <point x="238" y="294"/>
      <point x="255" y="289"/>
      <point x="290" y="285" type="curve"/>
      <point x="300" y="292" type="line"/>
      <point x="300" y="456" type="line"/>
      <point x="244" y="456" type="line"/>
      <point x="244" y="341" type="line"/>
      <point x="218" y="344"/>
      <point x="210" y="345"/>
      <point x="177" y="345" type="curve" smooth="yes"/>
      <point x="104" y="345"/>
      <point x="49" y="323"/>
      <point x="49" y="260" type="curve" smooth="yes"/>
    </contour>
    <contour>
      <point x="459" y="447" type="move" name="top"/>
    </contour>
    <contour>
      <point x="459" y="5" type="move" name="bottom"/>
    </contour>
  </outline>
</glyph>
<glyph name="nya-deva" format="1">
  <advance width="527"/>
  <unicode hex="091E"/>
  <outline>
    <contour>
      <point x="397" y="0" type="line"/>
      <point x="453" y="0" type="line"/>
      <point x="453" y="456" type="line"/>
      <point x="397" y="456" type="line"/>
    </contour>
    <contour>
      <point x="-24" y="456" type="line"/>
      <point x="-24" y="408" type="line"/>
      <point x="551" y="408" type="line"/>
      <point x="551" y="456" type="line"/>
    </contour>
    <contour>
      <point x="252" y="257"/>
      <point x="268" y="226"/>
      <point x="268" y="190" type="curve" smooth="yes"/>
      <point x="268" y="144"/>
      <point x="238" y="116"/>
      <point x="195" y="116" type="curve" smooth="yes"/>
      <point x="133" y="116"/>
      <point x="93" y="174"/>
      <point x="53" y="275" type="curve"/>
      <point x="6" y="256" type="line"/>
      <point x="50" y="135"/>
      <point x="108" y="63"/>
      <point x="197" y="63" type="curve" smooth="yes"/>
      <point x="256" y="63"/>
      <point x="310" y="98"/>
      <point x="320" y="170" type="curve" smooth="yes"/>
      <point x="321" y="174"/>
      <point x="323" y="177"/>
      <point x="323" y="181" type="curve" smooth="yes"/>
      <point x="323" y="251"/>
      <point x="281" y="310"/>
      <point x="205" y="310" type="curve" smooth="yes"/>
      <point x="168" y="310"/>
      <point x="141" y="299"/>
      <point x="118" y="284" type="curve"/>
      <point x="118" y="284"/>
      <point x="141" y="236"/>
      <point x="141" y="236" type="curve" smooth="yes"/>
      <point x="141" y="236"/>
      <point x="171" y="257"/>
      <point x="200" y="257" type="curve" smooth="yes"/>
    </contour>
    <contour>
      <point x="424" y="226"/>
      <point x="399" y="208"/>
      <point x="359" y="208" type="curve" smooth="yes"/>
      <point x="324" y="208"/>
      <point x="317" y="215"/>
      <point x="291" y="228" type="curve"/>
      <point x="287" y="172" type="line"/>
      <point x="313" y="164"/>
      <point x="332" y="158"/>
      <point x="359" y="158" type="curve" smooth="yes"/>
      <point x="392" y="158"/>
      <point x="424" y="171"/>
      <point x="440" y="184" type="curve"/>
      <point x="440" y="239" type="line"/>
    </contour>
    <contour>
      <point x="425" y="447" type="move" name="top"/>
    </contour>
    <contour>
      <point x="425" y="5" type="move" name="bottom"/>
    </contour>
  </outline>
</glyph>
<glyph name="nyadeva" format="1">
  <advance width="522"/>
  <unicode hex="091E"/>
  <outline>
    <contour>
      <point x="392" y="0" type="line"/>
      <point x="448" y="0" type="line"/>
      <point x="448" y="456" type="line"/>
      <point x="392" y="456" type="line"/>
    </contour>
    <contour>
      <point x="-24" y="456" type="line"/>
      <point x="-24" y="408" type="line"/>
      <point x="546" y="408" type="line"/>
      <point x="546" y="456" type="line"/>
    </contour>
    <contour>
      <point x="247" y="257"/>
      <point x="263" y="226"/>
      <point x="263" y="190" type="curve" smooth="yes"/>
      <point x="263" y="144"/>
      <point x="233" y="116"/>
      <point x="190" y="116" type="curve" smooth="yes"/>
      <point x="128" y="116"/>
      <point x="88" y="174"/>
      <point x="48" y="275" type="curve"/>
      <point x="1" y="256" type="line"/>
      <point x="45" y="135"/>
      <point x="103" y="63"/>
      <point x="192" y="63" type="curve" smooth="yes"/>
      <point x="251" y="63"/>
      <point x="305" y="98"/>
      <point x="315" y="170" type="curve" smooth="yes"/>
      <point x="316" y="174"/>
      <point x="318" y="177"/>
      <point x="318" y="181" type="curve" smooth="yes"/>
      <point x="318" y="251"/>
      <point x="276" y="310"/>
      <point x="200" y="310" type="curve" smooth="yes"/>
      <point x="163" y="310"/>
      <point x="136" y="299"/>
      <point x="113" y="284" type="curve"/>
      <point x="113" y="284"/>
      <point x="136" y="236"/>
      <point x="136" y="236" type="curve" smooth="yes"/>
      <point x="136" y="236"/>
      <point x="166" y="257"/>
      <point x="195" y="257" type="curve" smooth="yes"/>
    </contour>
    <contour>
      <point x="419" y="226"/>
      <point x="394" y="208"/>
      <point x="354" y="208" type="curve" smooth="yes"/>
      <point x="319" y="208"/>
      <point x="312" y="215"/>
      <point x="286" y="228" type="curve"/>
      <point x="282" y="172" type="line"/>
      <point x="308" y="164"/>
      <point x="327" y="158"/>
      <point x="354" y="158" type="curve" smooth="yes"/>
      <point x="387" y="158"/>
      <point x="419" y="171"/>
      <point x="435" y="184" type="curve"/>
      <point x="435" y="239" type="line"/>
    </contour>
    <contour>
      <point x="420" y="447" type="move" name="top"/>
    </contour>
    <contour>
      <point x="420" y="5" type="move" name="bottom"/>
    </contour>
  </outline>
</glyph>
<glyph name="tta-deva" format="1">
  <advance width="390"/>
  <unicode hex="091F"/>
  <outline>
    <contour>
      <point x="-24" y="456" type="line"/>
      <point x="-24" y="408" type="line"/>
      <point x="414" y="408" type="line"/>
      <point x="414" y="456" type="line"/>
    </contour>
    <contour>
      <point x="305" y="77"/>
      <point x="264" y="52"/>
      <point x="214" y="52" type="curve" smooth="yes"/>
      <point x="141" y="52"/>
      <point x="96" y="93"/>
      <point x="96" y="161" type="curve" smooth="yes"/>
      <point x="96" y="222"/>
      <point x="130" y="265"/>
      <point x="208" y="265" type="curve" smooth="yes"/>
      <point x="245" y="265"/>
      <point x="270" y="260"/>
      <point x="306" y="256" type="curve"/>
      <point x="315" y="263" type="line"/>
      <point x="315" y="456" type="line"/>
      <point x="259" y="456" type="line"/>
      <point x="259" y="315" type="line"/>
      <point x="233" y="316"/>
      <point x="214" y="317"/>
      <point x="200" y="317" type="curve" smooth="yes"/>
      <point x="91" y="317"/>
      <point x="41" y="244"/>
      <point x="41" y="163" type="curve" smooth="yes"/>
      <point x="41" y="63"/>
      <point x="113" y="0"/>
      <point x="210" y="0" type="curve" smooth="yes"/>
      <point x="277" y="0"/>
      <point x="330" y="29"/>
      <point x="355" y="46" type="curve"/>
      <point x="331" y="92" type="line"/>
    </contour>
    <contour>
      <point x="287" y="447" type="move" name="top"/>
    </contour>
    <contour>
      <point x="205" y="-25" type="move" name="bottom"/>
    </contour>
  </outline>
</glyph>
<glyph name="ttha-deva" format="1">
  <advance width="430"/>
  <unicode hex="0920"/>
  <outline>
    <contour>
      <point x="-24" y="456" type="line"/>
      <point x="-24" y="408" type="line"/>
      <point x="454" y="408" type="line"/>
      <point x="454" y="456" type="line"/>
    </contour>
    <contour>
      <point x="388" y="234"/>
      <point x="335" y="287"/>
      <point x="285" y="316" type="curve"/>
      <point x="243" y="273" type="line"/>
      <point x="279" y="267"/>
      <point x="332" y="225"/>
      <point x="332" y="152" type="curve" smooth="yes"/>
      <point x="332" y="87"/>
      <point x="284" y="53"/>
      <point x="213" y="53" type="curve" smooth="yes"/>
      <point x="138" y="53"/>
      <point x="98" y="96"/>
      <point x="98" y="161" type="curve" smooth="yes"/>
      <point x="98" y="225"/>
      <point x="135" y="264"/>
      <point x="210" y="264" type="curve" smooth="yes"/>
      <point x="298" y="264" type="line"/>
      <point x="307" y="262" type="line"/>
      <point x="307" y="456" type="line"/>
      <point x="251" y="456" type="line"/>
      <point x="251" y="317" type="line"/>
      <point x="202" y="317" type="line" smooth="yes"/>
      <point x="93" y="317"/>
      <point x="43" y="244"/>
      <point x="43" y="158" type="curve" smooth="yes"/>
      <point x="43" y="65"/>
      <point x="110" y="0"/>
      <point x="207" y="0" type="curve" smooth="yes"/>
      <point x="351" y="0"/>
      <point x="388" y="86"/>
      <point x="388" y="158" type="curve" smooth="yes"/>
    </contour>
    <contour>
      <point x="277" y="447" type="move" name="top"/>
    </contour>
    <contour>
      <point x="211" y="-25" type="move" name="bottom"/>
    </contour>
  </outline>
</glyph>
<glyph name="tthadeva" format="1">
  <advance width="428"/>
  <unicode hex="0920"/>
  <outline>
    <contour>
      <point x="-24" y="456" type="line"/>
      <point x="-24" y="408" type="line"/>
      <point x="452" y="408" type="line"/>
      <point x="452" y="456" type="line"/>
    </contour>
    <contour>
      <point x="386" y="234"/>
      <point x="333" y="287"/>
      <point x="283" y="316" type="curve"/>
      <point x="241" y="273" type="line"/>
      <point x="277" y="267"/>
      <point x="330" y="225"/>
      <point x="330" y="152" type="curve" smooth="yes"/>
      <point x="330" y="87"/>
      <point x="282" y="53"/>
      <point x="211" y="53" type="curve" smooth="yes"/>
      <point x="136" y="53"/>
      <point x="96" y="96"/>
      <point x="96" y="161" type="curve" smooth="yes"/>
      <point x="96" y="225"/>
      <point x="133" y="264"/>
      <point x="208" y="264" type="curve" smooth="yes"/>
      <point x="296" y="264" type="line"/>
      <point x="305" y="262" type="line"/>
      <point x="305" y="456" type="line"/>
      <point x="249" y="456" type="line"/>
      <point x="249" y="317" type="line"/>
      <point x="200" y="317" type="line" smooth="yes"/>
      <point x="91" y="317"/>
      <point x="41" y="244"/>
      <point x="41" y="158" type="curve" smooth="yes"/>
      <point x="41" y="65"/>
      <point x="108" y="0"/>
      <point x="205" y="0" type="curve" smooth="yes"/>
      <point x="349" y="0"/>
      <point x="386" y="86"/>
      <point x="386" y="158" type="curve" smooth="yes"/>
    </contour>
    <contour>
      <point x="277" y="447" type="move" name="top"/>
    </contour>
    <contour>
      <point x="211" y="-25" type="move" name="bottom"/>
    </contour>
  </outline>
</glyph>
<glyph name="ddha-deva" format="1">
  <advance width="396"/>
  <unicode hex="0922"/>
  <outline>
    <contour>
      <point x="-24" y="456" type="line"/>
      <point x="-24" y="408" type="line"/>
      <point x="420" y="408" type="line"/>
      <point x="420" y="456" type="line"/>
    </contour>
    <contour>
      <point x="355" y="140"/>
      <point x="331" y="190"/>
      <point x="269" y="190" type="curve" smooth="yes"/>
      <point x="220" y="190"/>
      <point x="183" y="157"/>
      <point x="183" y="104" type="curve" smooth="yes"/>
      <point x="183" y="62"/>
      <point x="201" y="36"/>
      <point x="211" y="23" type="curve"/>
      <point x="211" y="23"/>
      <point x="259" y="36"/>
      <point x="259" y="36" type="curve" smooth="yes"/>
      <point x="259" y="36"/>
      <point x="234" y="55"/>
      <point x="234" y="101" type="curve" smooth="yes"/>
      <point x="234" y="130"/>
      <point x="249" y="138"/>
      <point x="269" y="138" type="curve" smooth="yes"/>
      <point x="288" y="138"/>
      <point x="302" y="124"/>
      <point x="302" y="101" type="curve" smooth="yes"/>
      <point x="302" y="72"/>
      <point x="274" y="50"/>
      <point x="219" y="49" type="curve" smooth="yes"/>
      <point x="149" y="47"/>
      <point x="96" y="91"/>
      <point x="96" y="161" type="curve" smooth="yes"/>
      <point x="96" y="225"/>
      <point x="133" y="264"/>
      <point x="208" y="264" type="curve" smooth="yes"/>
      <point x="245" y="264"/>
      <point x="270" y="259"/>
      <point x="306" y="255" type="curve"/>
      <point x="315" y="262" type="line"/>
      <point x="315" y="456" type="line"/>
      <point x="259" y="456" type="line"/>
      <point x="259" y="315" type="line"/>
      <point x="233" y="317"/>
      <point x="217" y="317"/>
      <point x="203" y="317" type="curve" smooth="yes"/>
      <point x="94" y="317"/>
      <point x="41" y="244"/>
      <point x="41" y="158" type="curve" smooth="yes"/>
      <point x="41" y="67"/>
      <point x="110" y="0"/>
      <point x="215" y="0" type="curve" smooth="yes"/>
      <point x="286" y="0"/>
      <point x="355" y="30"/>
      <point x="355" y="107" type="curve" smooth="yes"/>
    </contour>
    <contour>
      <point x="287" y="447" type="move" name="top"/>
    </contour>
    <contour>
      <point x="215" y="-25" type="move" name="bottom"/>
    </contour>
  </outline>
</glyph>
<glyph name="tadeva" format="1">
  <advance width="433"/>
  <unicode hex="0924"/>
  <outline>
    <contour>
      <point x="303" y="0" type="line"/>
      <point x="359" y="0" type="line"/>
      <point x="359" y="456" type="line"/>
      <point x="303" y="456" type="line"/>
    </contour>
    <contour>
      <point x="-24" y="456" type="line"/>
      <point x="-24" y="408" type="line"/>
      <point x="457" y="408" type="line"/>
      <point x="457" y="456" type="line"/>
    </contour>
    <contour>
      <point x="324" y="297"/>
      <point x="266" y="297"/>
      <point x="182" y="297" type="curve" smooth="yes"/>
      <point x="89" y="297"/>
      <point x="44" y="260"/>
      <point x="44" y="177" type="curve" smooth="yes"/>
      <point x="44" y="114"/>
      <point x="89" y="43"/>
      <point x="123" y="-15" type="curve"/>
      <point x="170" y="11" type="line"/>
      <point x="152" y="42"/>
      <point x="101" y="128"/>
      <point x="101" y="175" type="curve" smooth="yes"/>
      <point x="101" y="227"/>
      <point x="128" y="241"/>
      <point x="188" y="241" type="curve"/>
      <point x="324" y="241" type="line"/>
      <point x="324" y="297" type="line"/>
    </contour>
    <contour>
      <point x="331" y="447" type="move" name="top"/>
    </contour>
    <contour>
      <point x="331" y="5" type="move" name="bottom"/>
    </contour>
  </outline>
</glyph>
<glyph name="thadeva" format="1">
  <advance width="484"/>
  <unicode hex="0925"/>
  <outline>
    <contour>
      <point x="354" y="0" type="line"/>
      <point x="410" y="0" type="line"/>
      <point x="410" y="456" type="line"/>
      <point x="354" y="456" type="line"/>
    </contour>
    <contour>
      <point x="284" y="456" type="line"/>
      <point x="284" y="408" type="line"/>
      <point x="508" y="408" type="line"/>
      <point x="508" y="456" type="line"/>
    </contour>
    <contour>
      <point x="248" y="402"/>
      <point x="217" y="467"/>
      <point x="145" y="467" type="curve" smooth="yes"/>
      <point x="100" y="467"/>
      <point x="50" y="436"/>
      <point x="50" y="379" type="curve" smooth="yes"/>
      <point x="50" y="340"/>
      <point x="73" y="302"/>
      <point x="122" y="279" type="curve"/>
      <point x="151" y="321" type="line"/>
      <point x="127" y="335"/>
      <point x="104" y="351"/>
      <point x="104" y="379" type="curve" smooth="yes"/>
      <point x="104" y="399"/>
      <point x="124" y="414"/>
      <point x="143" y="414" type="curve" smooth="yes"/>
      <point x="178" y="414"/>
      <point x="196" y="380"/>
      <point x="196" y="342" type="curve" smooth="yes"/>
      <point x="196" y="269"/>
      <point x="103" y="230"/>
      <point x="71" y="213" type="curve"/>
      <point x="60" y="182" type="line"/>
      <point x="87" y="136"/>
      <point x="148" y="84"/>
      <point x="239" y="84" type="curve" smooth="yes"/>
      <point x="311" y="84"/>
      <point x="364" y="124"/>
      <point x="364" y="127" type="curve"/>
      <point x="364" y="197" type="line"/>
      <point x="338" y="160"/>
      <point x="285" y="138"/>
      <point x="234" y="138" type="curve" smooth="yes"/>
      <point x="193" y="138"/>
      <point x="152" y="153"/>
      <point x="127" y="183" type="curve"/>
      <point x="165" y="211"/>
      <point x="248" y="253"/>
      <point x="248" y="342" type="curve" smooth="yes"/>
    </contour>
    <contour>
      <point x="382" y="447" type="move" name="top"/>
    </contour>
    <contour>
      <point x="382" y="5" type="move" name="bottom"/>
    </contour>
  </outline>
</glyph>
<glyph name="dhadeva" format="1">
  <advance width="484"/>
  <unicode hex="0927"/>
  <outline>
    <contour>
      <point x="354" y="0" type="line"/>
      <point x="410" y="0" type="line"/>
      <point x="410" y="456" type="line"/>
      <point x="354" y="456" type="line"/>
    </contour>
    <contour>
      <point x="277" y="456" type="line"/>
      <point x="277" y="408" type="line"/>
      <point x="508" y="408" type="line"/>
      <point x="508" y="456" type="line"/>
    </contour>
    <contour>
      <point x="45" y="288"/>
      <point x="106" y="246"/>
      <point x="122" y="234" type="curve"/>
      <point x="122" y="234"/>
      <point x="177" y="264"/>
      <point x="177" y="265" type="curve"/>
      <point x="161" y="273"/>
      <point x="99" y="298"/>
      <point x="99" y="363" type="curve" smooth="yes"/>
      <point x="99" y="405"/>
      <point x="122" y="418"/>
      <point x="145" y="418" type="curve" smooth="yes"/>
      <point x="163" y="418"/>
      <point x="177" y="408"/>
      <point x="177" y="389" type="curve" smooth="yes"/>
      <point x="177" y="368"/>
      <point x="163" y="360"/>
      <point x="147" y="351" type="curve"/>
      <point x="172" y="311" type="line"/>
      <point x="214" y="331"/>
      <point x="227" y="357"/>
      <point x="227" y="390" type="curve" smooth="yes"/>
      <point x="227" y="433"/>
      <point x="196" y="466"/>
      <point x="139" y="466" type="curve" smooth="yes"/>
      <point x="81" y="466"/>
      <point x="45" y="426"/>
      <point x="45" y="363" type="curve" smooth="yes"/>
    </contour>
    <contour>
      <point x="185" y="272"/>
      <point x="148" y="268"/>
      <point x="124" y="250" type="curve" smooth="yes"/>
      <point x="97" y="230"/>
      <point x="84" y="206"/>
      <point x="84" y="178" type="curve" smooth="yes"/>
      <point x="84" y="114"/>
      <point x="141" y="71"/>
      <point x="230" y="71" type="curve" smooth="yes"/>
      <point x="322" y="71"/>
      <point x="372" y="123"/>
      <point x="372" y="123" type="curve"/>
      <point x="372" y="190" type="line"/>
      <point x="372" y="190"/>
      <point x="323" y="122"/>
      <point x="233" y="122" type="curve" smooth="yes"/>
      <point x="175" y="122"/>
      <point x="140" y="144"/>
      <point x="140" y="175" type="curve" smooth="yes"/>
      <point x="140" y="210"/>
      <point x="186" y="220"/>
      <point x="251" y="224" type="curve"/>
      <point x="241" y="275" type="line"/>
    </contour>
    <contour>
      <point x="382" y="447" type="move" name="top"/>
    </contour>
    <contour>
      <point x="382" y="5" type="move" name="bottom"/>
    </contour>
  </outline>
</glyph>
<glyph name="nadeva" format="1">
  <advance width="407"/>
  <unicode hex="0928"/>
  <outline>
    <contour>
      <point x="277" y="0" type="line"/>
      <point x="333" y="0" type="line"/>
      <point x="333" y="456" type="line"/>
      <point x="277" y="456" type="line"/>
    </contour>
    <contour>
      <point x="-24" y="456" type="line"/>
      <point x="-24" y="408" type="line"/>
      <point x="431" y="408" type="line"/>
      <point x="431" y="456" type="line"/>
    </contour>
    <contour>
      <point x="34" y="251" type="line"/>
      <point x="34" y="214" type="line"/>
      <point x="98" y="112" type="line"/>
      <point x="138" y="112" type="line"/>
      <point x="138" y="251" type="line"/>
    </contour>
    <contour>
      <point x="91" y="251" type="line"/>
      <point x="91" y="203" type="line"/>
      <point x="311" y="203" type="line"/>
      <point x="311" y="251" type="line"/>
    </contour>
    <contour>
      <point x="305" y="447" type="move" name="top"/>
    </contour>
    <contour>
      <point x="305" y="5" type="move" name="bottom"/>
    </contour>
  </outline>
</glyph>
<glyph name="nadeva" format="1">
  <advance width="407"/>
  <unicode hex="0928"/>
  <outline>
    <contour>
      <point x="277" y="0" type="line"/>
      <point x="333" y="0" type="line"/>
      <point x="333" y="456" type="line"/>
      <point x="277" y="456" type="line"/>
    </contour>
    <contour>
      <point x="-24" y="456" type="line"/>
      <point x="-24" y="408" type="line"/>
      <point x="431" y="408" type="line"/>
      <point x="431" y="456" type="line"/>
    </contour>
    <contour>
      <point x="34" y="256" type="line"/>
      <point x="34" y="224" type="line"/>
      <point x="85" y="117" type="line"/>
      <point x="85" y="117"/>
      <point x="125" y="117"/>
      <point x="125" y="117" type="curve"/>
      <point x="125" y="256" type="line"/>
    </contour>
    <contour>
      <point x="91" y="256" type="line"/>
      <point x="91" y="208" type="line"/>
      <point x="311" y="208" type="line"/>
      <point x="311" y="256" type="line"/>
    </contour>
    <contour>
      <point x="305" y="447" type="move" name="top"/>
    </contour>
    <contour>
      <point x="305" y="5" type="move" name="bottom"/>
    </contour>
  </outline>
</glyph>
<glyph name="nnnadeva" format="1">
  <advance width="407"/>
  <unicode hex="0929"/>
  <outline>
    <component base="nadeva"/>
    <component base="nuktadeva" xOffset="181" yOffset="98"/>
    <contour>
      <point x="305" y="447" type="move" name="top"/>
    </contour>
    <contour>
      <point x="305" y="5" type="move" name="bottom"/>
    </contour>
  </outline>
</glyph>
<glyph name="nnnadeva" format="1">
  <advance width="419"/>
  <unicode hex="0929"/>
  <outline>
    <contour>
      <point x="119" y="0" type="line"/>
      <point x="178" y="0" type="line"/>
      <point x="178" y="58" type="line"/>
      <point x="119" y="58" type="line"/>
    </contour>
    <component base="nadeva"/>
    <contour>
      <point x="305" y="447" type="move" name="top"/>
    </contour>
    <contour>
      <point x="305" y="5" type="move" name="bottom"/>
    </contour>
  </outline>
</glyph>
<glyph name="padeva" format="1">
  <advance width="437"/>
  <unicode hex="092A"/>
  <outline>
    <contour>
      <point x="307" y="0" type="line"/>
      <point x="363" y="0" type="line"/>
      <point x="363" y="456" type="line"/>
      <point x="307" y="456" type="line"/>
    </contour>
    <contour>
      <point x="-24" y="456" type="line"/>
      <point x="-24" y="408" type="line"/>
      <point x="461" y="408" type="line"/>
      <point x="461" y="456" type="line"/>
    </contour>
    <contour>
      <point x="343" y="190"/>
      <point x="279" y="153"/>
      <point x="205" y="153" type="curve" smooth="yes"/>
      <point x="151" y="153"/>
      <point x="114" y="188"/>
      <point x="114" y="244" type="curve" smooth="yes"/>
      <point x="114" y="456" type="line"/>
      <point x="58" y="456" type="line"/>
      <point x="58" y="244" type="line" smooth="yes"/>
      <point x="58" y="164"/>
      <point x="107" y="103"/>
      <point x="207" y="103" type="curve" smooth="yes"/>
      <point x="270" y="103"/>
      <point x="343" y="133"/>
      <point x="343" y="133" type="curve"/>
      <point x="343" y="190" type="line"/>
    </contour>
    <contour>
      <point x="335" y="447" type="move" name="top"/>
    </contour>
    <contour>
      <point x="335" y="5" type="move" name="bottom"/>
    </contour>
  </outline>
</glyph>
<glyph name="phadeva" format="1">
  <advance width="603"/>
  <unicode hex="092B"/>
  <outline>
    <contour>
      <point x="294" y="0" type="line"/>
      <point x="349" y="0" type="line"/>
      <point x="349" y="456" type="line"/>
      <point x="294" y="456" type="line"/>
    </contour>
    <contour>
      <point x="-24" y="456" type="line"/>
      <point x="-24" y="408" type="line"/>
      <point x="627" y="408" type="line"/>
      <point x="627" y="456" type="line"/>
    </contour>
    <contour>
      <point x="343" y="190"/>
      <point x="274" y="153"/>
      <point x="200" y="153" type="curve" smooth="yes"/>
      <point x="146" y="153"/>
      <point x="114" y="188"/>
      <point x="114" y="244" type="curve" smooth="yes"/>
      <point x="114" y="456" type="line"/>
      <point x="58" y="456" type="line"/>
      <point x="58" y="244" type="line" smooth="yes"/>
      <point x="58" y="164"/>
      <point x="102" y="103"/>
      <point x="202" y="103" type="curve" smooth="yes"/>
      <point x="265" y="103"/>
      <point x="343" y="133"/>
      <point x="343" y="133" type="curve"/>
      <point x="343" y="190" type="line"/>
    </contour>
    <contour>
      <point x="578" y="280"/>
      <point x="524" y="333"/>
      <point x="441" y="333" type="curve" smooth="yes"/>
      <point x="389" y="333"/>
      <point x="346" y="300"/>
      <point x="319" y="282" type="curve"/>
      <point x="333" y="227" type="line"/>
      <point x="349" y="239"/>
      <point x="391" y="282"/>
      <point x="437" y="282" type="curve" smooth="yes"/>
      <point x="491" y="282"/>
      <point x="522" y="254"/>
      <point x="522" y="207" type="curve" smooth="yes"/>
      <point x="522" y="156"/>
      <point x="485" y="128"/>
      <point x="456" y="101" type="curve"/>
      <point x="495" y="62" type="line"/>
      <point x="532" y="91"/>
      <point x="578" y="138"/>
      <point x="578" y="201" type="curve" smooth="yes"/>
    </contour>
    <contour>
      <point x="321" y="447" type="move" name="top"/>
    </contour>
    <contour>
      <point x="321" y="5" type="move" name="bottom"/>
    </contour>
  </outline>
</glyph>
<glyph name="yadeva" format="1">
  <advance width="445"/>
  <unicode hex="092F"/>
  <outline>
    <contour>
      <point x="315" y="0" type="line"/>
      <point x="371" y="0" type="line"/>
      <point x="371" y="456" type="line"/>
      <point x="315" y="456" type="line"/>
    </contour>
    <contour>
      <point x="-24" y="456" type="line"/>
      <point x="-24" y="408" type="line"/>
      <point x="469" y="408" type="line"/>
      <point x="469" y="456" type="line"/>
    </contour>
    <contour>
      <point x="312" y="161"/>
      <point x="259" y="138"/>
      <point x="208" y="138" type="curve" smooth="yes"/>
      <point x="167" y="138"/>
      <point x="128" y="155"/>
      <point x="103" y="185" type="curve"/>
      <point x="141" y="213"/>
      <point x="177" y="244"/>
      <point x="177" y="306" type="curve" smooth="yes"/>
      <point x="177" y="356"/>
      <point x="148" y="414"/>
      <point x="94" y="456" type="curve"/>
      <point x="26" y="456" type="line"/>
      <point x="86" y="414"/>
      <point x="123" y="356"/>
      <point x="123" y="307" type="curve" smooth="yes"/>
      <point x="123" y="258"/>
      <point x="77" y="230"/>
      <point x="45" y="213" type="curve"/>
      <point x="34" y="184" type="line"/>
      <point x="61" y="138"/>
      <point x="122" y="84"/>
      <point x="213" y="84" type="curve" smooth="yes"/>
      <point x="285" y="84"/>
      <point x="338" y="127"/>
      <point x="338" y="127" type="curve"/>
      <point x="338" y="206" type="line"/>
    </contour>
    <contour>
      <point x="343" y="447" type="move" name="top"/>
    </contour>
    <contour>
      <point x="343" y="5" type="move" name="bottom"/>
    </contour>
  </outline>
</glyph>
<glyph name="radeva" format="1">
  <advance width="269"/>
  <unicode hex="0930"/>
  <outline>
    <contour>
      <point x="-24" y="456" type="line"/>
      <point x="-24" y="408" type="line"/>
      <point x="293" y="408" type="line"/>
      <point x="293" y="456" type="line"/>
    </contour>
    <contour>
      <point x="87" y="427"/>
      <point x="158" y="403"/>
      <point x="158" y="306" type="curve" smooth="yes"/>
      <point x="158" y="209"/>
      <point x="44" y="206"/>
      <point x="44" y="206" type="curve" smooth="yes"/>
      <point x="44" y="206"/>
      <point x="66" y="157"/>
      <point x="66" y="157" type="curve"/>
      <point x="105" y="157"/>
      <point x="212" y="191"/>
      <point x="212" y="304" type="curve" smooth="yes"/>
      <point x="212" y="412"/>
      <point x="139" y="443"/>
      <point x="139" y="443" type="curve"/>
      <point x="87" y="427" type="line"/>
    </contour>
    <contour>
      <point x="14" y="212"/>
      <point x="184" y="-13"/>
      <point x="184" y="-13" type="curve" smooth="yes"/>
      <point x="184" y="-13"/>
      <point x="231" y="19"/>
      <point x="231" y="19" type="curve"/>
      <point x="55" y="244" type="line"/>
      <point x="14" y="212" type="line"/>
    </contour>
    <contour>
      <point x="113" y="447" type="move" name="top"/>
    </contour>
  </outline>
</glyph>
<glyph name="rra-deva" format="1">
  <advance width="274"/>
  <unicode hex="0931"/>
  <outline>
    <component base="ra-deva"/>
    <component base="nukta-deva" xOffset="71" yOffset="99"/>
    <contour>
      <point x="113" y="447" type="move" name="top"/>
    </contour>
  </outline>
</glyph>
<glyph name="rradeva" format="1">
  <advance width="271"/>
  <unicode hex="0931"/>
  <outline>
    <contour>
      <point x="9" y="0" type="line"/>
      <point x="68" y="0" type="line"/>
      <point x="68" y="58" type="line"/>
      <point x="9" y="58" type="line"/>
    </contour>
    <component base="radeva"/>
    <contour>
      <point x="113" y="447" type="move" name="top"/>
    </contour>
  </outline>
</glyph>
<glyph name="ladeva" format="1">
  <advance width="536"/>
  <unicode hex="0932"/>
  <outline>
    <contour>
      <point x="406" y="0" type="line"/>
      <point x="462" y="0" type="line"/>
      <point x="462" y="456" type="line"/>
      <point x="406" y="456" type="line"/>
    </contour>
    <contour>
      <point x="-24" y="456" type="line"/>
      <point x="-24" y="408" type="line"/>
      <point x="560" y="408" type="line"/>
      <point x="560" y="456" type="line"/>
    </contour>
    <contour>
      <point x="273" y="268"/>
      <point x="232" y="310"/>
      <point x="175" y="310" type="curve" smooth="yes"/>
      <point x="92" y="310"/>
      <point x="42" y="253"/>
      <point x="42" y="172" type="curve" smooth="yes"/>
      <point x="42" y="74"/>
      <point x="135" y="-12"/>
      <point x="135" y="-12" type="curve"/>
      <point x="188" y="11" type="line"/>
      <point x="165" y="36"/>
      <point x="99" y="102"/>
      <point x="99" y="172" type="curve" smooth="yes"/>
      <point x="99" y="221"/>
      <point x="127" y="256"/>
      <point x="174" y="256" type="curve" smooth="yes"/>
      <point x="228" y="256"/>
      <point x="253" y="182"/>
      <point x="253" y="182" type="curve"/>
      <point x="290" y="227" type="line"/>
    </contour>
    <contour>
      <point x="237" y="118"/>
      <point x="290" y="110"/>
      <point x="290" y="110" type="curve"/>
      <point x="289" y="120"/>
      <point x="286" y="140"/>
      <point x="286" y="162" type="curve" smooth="yes"/>
      <point x="286" y="217"/>
      <point x="311" y="256"/>
      <point x="367" y="255" type="curve" smooth="yes"/>
      <point x="392" y="255"/>
      <point x="414" y="245"/>
      <point x="432" y="231" type="curve"/>
      <point x="426" y="293" type="line"/>
      <point x="403" y="306"/>
      <point x="382" y="308"/>
      <point x="363" y="308" type="curve" smooth="yes"/>
      <point x="297" y="308"/>
      <point x="233" y="266"/>
      <point x="233" y="164" type="curve" smooth="yes"/>
      <point x="233" y="154"/>
      <point x="235" y="128"/>
      <point x="237" y="118" type="curve"/>
    </contour>
    <contour>
      <point x="434" y="447" type="move" name="top"/>
    </contour>
    <contour>
      <point x="434" y="5" type="move" name="bottom"/>
    </contour>
  </outline>
</glyph>
<glyph name="lla-deva" format="1">
  <advance width="569"/>
  <unicode hex="0933"/>
  <outline>
    <contour>
      <point x="386" y="280" type="line"/>
      <point x="439" y="280" type="line"/>
      <point x="439" y="456" type="line"/>
      <point x="386" y="456" type="line"/>
    </contour>
    <contour>
      <point x="-24" y="456" type="line"/>
      <point x="-24" y="408" type="line"/>
      <point x="593" y="408" type="line"/>
      <point x="593" y="456" type="line"/>
    </contour>
    <contour>
      <point x="244" y="135"/>
      <point x="215" y="82"/>
      <point x="159" y="82" type="curve" smooth="yes"/>
      <point x="118" y="82"/>
      <point x="97" y="123"/>
      <point x="97" y="167" type="curve" smooth="yes"/>
      <point x="97" y="213"/>
      <point x="120" y="250"/>
      <point x="163" y="250" type="curve" smooth="yes"/>
      <point x="210" y="250"/>
      <point x="237" y="193"/>
      <point x="259" y="153" type="curve"/>
      <point x="290" y="199" type="line"/>
      <point x="267" y="242"/>
      <point x="231" y="302"/>
      <point x="164" y="302" type="curve" smooth="yes"/>
      <point x="81" y="302"/>
      <point x="43" y="239"/>
      <point x="43" y="167" type="curve" smooth="yes"/>
      <point x="43" y="95"/>
      <point x="82" y="33"/>
      <point x="160" y="33" type="curve" smooth="yes"/>
      <point x="224" y="33"/>
      <point x="258" y="63"/>
      <point x="302" y="148" type="curve" smooth="yes"/>
      <point x="328" y="198"/>
      <point x="352" y="250"/>
      <point x="408" y="250" type="curve" smooth="yes"/>
      <point x="447" y="250"/>
      <point x="473" y="215"/>
      <point x="473" y="166" type="curve" smooth="yes"/>
      <point x="473" y="121"/>
      <point x="451" y="81"/>
      <point x="407" y="81" type="curve" smooth="yes"/>
      <point x="360" y="81"/>
      <point x="325" y="150"/>
      <point x="308" y="184" type="curve"/>
      <point x="280" y="134" type="line"/>
      <point x="303" y="91"/>
      <point x="339" y="31"/>
      <point x="406" y="31" type="curve" smooth="yes"/>
      <point x="484" y="31"/>
      <point x="526" y="95"/>
      <point x="526" y="167" type="curve" smooth="yes"/>
      <point x="526" y="239"/>
      <point x="485" y="300"/>
      <point x="407" y="300" type="curve" smooth="yes"/>
      <point x="350" y="300"/>
      <point x="310" y="271"/>
      <point x="267" y="185" type="curve" smooth="yes"/>
    </contour>
    <contour>
      <point x="413" y="447" type="move" name="top"/>
    </contour>
    <contour>
      <point x="406" y="5" type="move" name="bottom"/>
    </contour>
  </outline>
</glyph>
<glyph name="llla-deva" format="1">
  <advance width="569"/>
  <unicode hex="0934"/>
  <outline>
    <component base="lla-deva"/>
    <component base="nukta-deva" xOffset="318" yOffset="61"/>
    <contour>
      <point x="413" y="447" type="move" name="top"/>
    </contour>
    <contour>
      <point x="406" y="5" type="move" name="bottom"/>
    </contour>
  </outline>
</glyph>
<glyph name="llladeva" format="1">
  <advance width="569"/>
  <unicode hex="0934"/>
  <outline>
    <component base="lladeva"/>
    <component base="nuktadeva" xOffset="318" yOffset="61"/>
    <contour>
      <point x="413" y="447" type="move" name="top"/>
    </contour>
    <contour>
      <point x="406" y="-65" type="move" name="bottom"/>
    </contour>
  </outline>
</glyph>
<glyph name="shadeva" format="1">
  <advance width="536"/>
  <unicode hex="0936"/>
  <outline>
    <contour>
      <point x="282" y="414"/>
      <point x="229" y="466"/>
      <point x="165" y="466" type="curve" smooth="yes"/>
      <point x="106" y="466"/>
      <point x="62" y="425"/>
      <point x="62" y="368" type="curve" smooth="yes"/>
      <point x="62" y="329"/>
      <point x="85" y="297"/>
      <point x="134" y="268" type="curve"/>
      <point x="163" y="311" type="line"/>
      <point x="139" y="326"/>
      <point x="115" y="343"/>
      <point x="115" y="368" type="curve" smooth="yes"/>
      <point x="115" y="398"/>
      <point x="137" y="413"/>
      <point x="165" y="413" type="curve" smooth="yes"/>
      <point x="201" y="413"/>
      <point x="226" y="379"/>
      <point x="229" y="329" type="curve" smooth="yes"/>
      <point x="234" y="233"/>
      <point x="132" y="193"/>
      <point x="97" y="174" type="curve"/>
      <point x="139" y="137" type="line"/>
      <point x="202" y="175"/>
      <point x="282" y="223"/>
      <point x="282" y="332" type="curve" smooth="yes"/>
    </contour>
    <contour>
      <point x="35" y="155"/>
      <point x="66" y="130"/>
      <point x="110" y="131" type="curve"/>
      <point x="243" y="-15" type="line"/>
      <point x="243" y="-15"/>
      <point x="281" y="21"/>
      <point x="281" y="21" type="curve"/>
      <point x="75" y="239" type="line"/>
      <point x="48" y="230"/>
      <point x="35" y="211"/>
      <point x="35" y="191" type="curve" smooth="yes"/>
    </contour>
    <contour>
      <point x="314" y="456" type="line"/>
      <point x="314" y="408" type="line"/>
      <point x="560" y="408" type="line"/>
      <point x="560" y="456" type="line"/>
    </contour>
    <contour>
      <point x="406" y="0" type="line"/>
      <point x="462" y="0" type="line"/>
      <point x="462" y="456" type="line"/>
      <point x="406" y="456" type="line"/>
    </contour>
    <contour>
      <point x="434" y="447" type="move" name="top"/>
    </contour>
    <contour>
      <point x="434" y="5" type="move" name="bottom"/>
    </contour>
  </outline>
</glyph>
<glyph name="ssadeva" format="1">
  <advance width="445"/>
  <unicode hex="0937"/>
  <outline>
    <contour>
      <point x="315" y="0" type="line"/>
      <point x="371" y="0" type="line"/>
      <point x="371" y="456" type="line"/>
      <point x="315" y="456" type="line"/>
    </contour>
    <contour>
      <point x="-24" y="456" type="line"/>
      <point x="-24" y="408" type="line"/>
      <point x="469" y="408" type="line"/>
      <point x="469" y="456" type="line"/>
    </contour>
    <contour>
      <point x="343" y="190"/>
      <point x="279" y="153"/>
      <point x="205" y="153" type="curve" smooth="yes"/>
      <point x="151" y="153"/>
      <point x="114" y="188"/>
      <point x="114" y="244" type="curve" smooth="yes"/>
      <point x="114" y="341" type="line" smooth="yes"/>
      <point x="114" y="384"/>
      <point x="94" y="456"/>
      <point x="94" y="456" type="curve" smooth="yes"/>
      <point x="58" y="456" type="line"/>
      <point x="58" y="244" type="line" smooth="yes"/>
      <point x="58" y="164"/>
      <point x="107" y="103"/>
      <point x="207" y="103" type="curve" smooth="yes"/>
      <point x="270" y="103"/>
      <point x="343" y="133"/>
      <point x="343" y="133" type="curve"/>
      <point x="343" y="190" type="line"/>
    </contour>
    <contour>
      <point x="297" y="146" type="line"/>
      <point x="328" y="178" type="line"/>
      <point x="122" y="430" type="line"/>
      <point x="84" y="402" type="line"/>
    </contour>
    <contour>
      <point x="343" y="447" type="move" name="top"/>
    </contour>
    <contour>
      <point x="343" y="5" type="move" name="bottom"/>
    </contour>
  </outline>
</glyph>
<glyph name="sadeva" format="1">
  <advance width="515"/>
  <unicode hex="0938"/>
  <outline>
    <contour>
      <point x="87" y="427"/>
      <point x="158" y="403"/>
      <point x="158" y="306" type="curve" smooth="yes"/>
      <point x="158" y="209"/>
      <point x="44" y="206"/>
      <point x="44" y="206" type="curve" smooth="yes"/>
      <point x="44" y="206"/>
      <point x="66" y="157"/>
      <point x="66" y="157" type="curve"/>
      <point x="105" y="157"/>
      <point x="212" y="191"/>
      <point x="212" y="304" type="curve" smooth="yes"/>
      <point x="212" y="412"/>
      <point x="139" y="443"/>
      <point x="139" y="443" type="curve"/>
      <point x="87" y="427" type="line"/>
    </contour>
    <contour>
      <point x="14" y="212"/>
      <point x="186" y="-18"/>
      <point x="186" y="-18" type="curve" smooth="yes"/>
      <point x="186" y="-18"/>
      <point x="233" y="14"/>
      <point x="233" y="14" type="curve"/>
      <point x="55" y="244" type="line"/>
      <point x="14" y="212" type="line"/>
    </contour>
    <contour>
      <point x="385" y="0" type="line"/>
      <point x="441" y="0" type="line"/>
      <point x="441" y="456" type="line"/>
      <point x="385" y="456" type="line"/>
    </contour>
    <contour>
      <point x="405" y="237"/>
      <point x="362" y="216"/>
      <point x="279" y="216" type="curve" smooth="yes"/>
      <point x="243" y="216"/>
      <point x="187" y="220"/>
      <point x="141" y="239" type="curve"/>
      <point x="117" y="192" type="line"/>
      <point x="175" y="172"/>
      <point x="226" y="162"/>
      <point x="268" y="162" type="curve" smooth="yes"/>
      <point x="354" y="162"/>
      <point x="405" y="180"/>
      <point x="405" y="180" type="curve"/>
      <point x="405" y="237" type="line"/>
    </contour>
    <contour>
      <point x="-24" y="456" type="line"/>
      <point x="-24" y="408" type="line"/>
      <point x="539" y="408" type="line"/>
      <point x="539" y="456" type="line"/>
    </contour>
    <contour>
      <point x="385" y="0" type="line"/>
      <point x="441" y="0" type="line"/>
      <point x="441" y="456" type="line"/>
      <point x="385" y="456" type="line"/>
    </contour>
    <contour>
      <point x="413" y="447" type="move" name="top"/>
    </contour>
    <contour>
      <point x="413" y="5" type="move" name="bottom"/>
    </contour>
  </outline>
</glyph>
<glyph name="hadeva" format="1">
  <advance width="395"/>
  <unicode hex="0939"/>
  <outline>
    <contour>
      <point x="-24" y="456" type="line"/>
      <point x="-24" y="408" type="line"/>
      <point x="419" y="408" type="line"/>
      <point x="419" y="456" type="line"/>
    </contour>
    <contour>
      <point x="143" y="203"/>
      <point x="118" y="220"/>
      <point x="118" y="249" type="curve" smooth="yes"/>
      <point x="118" y="282"/>
      <point x="144" y="295"/>
      <point x="197" y="295" type="curve" smooth="yes"/>
      <point x="251" y="295"/>
      <point x="262" y="290"/>
      <point x="297" y="286" type="curve"/>
      <point x="307" y="293" type="line"/>
      <point x="307" y="456" type="line"/>
      <point x="251" y="456" type="line"/>
      <point x="251" y="342" type="line"/>
      <point x="225" y="345"/>
      <point x="223" y="346"/>
      <point x="190" y="346" type="curve" smooth="yes"/>
      <point x="117" y="346"/>
      <point x="62" y="317"/>
      <point x="62" y="249" type="curve" smooth="yes"/>
      <point x="62" y="224"/>
      <point x="70" y="200"/>
      <point x="101" y="167" type="curve"/>
      <point x="144" y="203" type="line"/>
    </contour>
    <contour>
      <point x="52" y="-4"/>
      <point x="144" y="-68"/>
      <point x="288" y="-68" type="curve"/>
      <point x="300" y="-20" type="line"/>
      <point x="193" y="-20"/>
      <point x="105" y="18"/>
      <point x="105" y="90" type="curve" smooth="yes"/>
      <point x="105" y="131"/>
      <point x="144" y="169"/>
      <point x="216" y="169" type="curve"/>
      <point x="267" y="167"/>
      <point x="286" y="142"/>
      <point x="286" y="112" type="curve" smooth="yes"/>
      <point x="286" y="93"/>
      <point x="272" y="80"/>
      <point x="264" y="71" type="curve"/>
      <point x="305" y="42" type="line"/>
      <point x="327" y="62"/>
      <point x="339" y="88"/>
      <point x="339" y="111" type="curve" smooth="yes"/>
      <point x="339" y="182"/>
      <point x="289" y="217"/>
      <point x="214" y="217" type="curve" smooth="yes"/>
      <point x="182" y="217"/>
      <point x="149" y="211"/>
      <point x="123" y="198" type="curve" smooth="yes"/>
      <point x="81" y="177"/>
      <point x="52" y="132"/>
      <point x="52" y="88" type="curve" smooth="yes"/>
    </contour>
    <contour>
      <point x="280" y="447" type="move" name="top"/>
    </contour>
    <contour>
      <point x="230" y="-56" type="move" name="bottom"/>
    </contour>
  </outline>
</glyph>
<glyph name="oeMatra-deva" format="1">
  <advance width="74"/>
  <unicode hex="093A"/>
  <outline>
    <contour>
      <point x="10" y="440" type="line"/>
      <point x="64" y="440" type="line"/>
      <point x="64" y="550" type="line"/>
      <point x="10" y="550" type="line"/>
    </contour>
  </outline>
</glyph>
<glyph name="uni093A" format="1">
  <advance width="74"/>
  <unicode hex="093A"/>
  <outline>
    <contour>
      <point x="10" y="440" type="line"/>
      <point x="64" y="440" type="line"/>
      <point x="64" y="550" type="line"/>
      <point x="10" y="550" type="line"/>
    </contour>
  </outline>
</glyph>
<glyph name="nukta-deva" format="1">
  <advance width="0"/>
  <unicode hex="093C"/>
  <outline>
    <contour>
      <point x="-12" y="-104"/>
      <point x="2" y="-90"/>
      <point x="2" y="-70" type="curve" smooth="yes"/>
      <point x="2" y="-49"/>
      <point x="-12" y="-35"/>
      <point x="-33" y="-35" type="curve" smooth="yes"/>
      <point x="-53" y="-35"/>
      <point x="-67" y="-49"/>
      <point x="-67" y="-70" type="curve" smooth="yes"/>
      <point x="-67" y="-90"/>
      <point x="-53" y="-104"/>
      <point x="-33" y="-104" type="curve" smooth="yes"/>
    </contour>
  </outline>
</glyph>
<glyph name="nuktadeva" format="1">
  <advance width="0"/>
  <unicode hex="093C"/>
  <outline>
    <contour>
      <point x="-64" y="-101" type="line"/>
      <point x="0" y="-101" type="line"/>
      <point x="0" y="-38" type="line"/>
      <point x="-64" y="-38" type="line"/>
    </contour>
  </outline>
</glyph>
<glyph name="uni093F" format="1">
  <advance width="208"/>
  <unicode hex="093F"/>
  <outline>
    <contour>
      <point x="75" y="0" type="line"/>
      <point x="130" y="0" type="line"/>
      <point x="130" y="456" type="line"/>
      <point x="75" y="456" type="line"/>
    </contour>
    <contour>
      <point x="-24" y="456" type="line"/>
      <point x="-24" y="408" type="line"/>
      <point x="231" y="408" type="line"/>
      <point x="231" y="456" type="line"/>
    </contour>
    <contour>
      <point x="485" y="576"/>
      <point x="374" y="649"/>
      <point x="215" y="649" type="curve" smooth="yes"/>
      <point x="104" y="649"/>
      <point x="51" y="589"/>
      <point x="53" y="517" type="curve" smooth="yes"/>
      <point x="53" y="469"/>
      <point x="83" y="439"/>
      <point x="83" y="439" type="curve" smooth="yes"/>
      <point x="83" y="439"/>
      <point x="151" y="439"/>
      <point x="151" y="439" type="curve"/>
      <point x="130" y="452"/>
      <point x="107" y="478"/>
      <point x="107" y="517" type="curve" smooth="yes"/>
      <point x="107" y="564"/>
      <point x="144" y="599"/>
      <point x="216" y="599" type="curve" smooth="yes"/>
      <point x="342" y="599"/>
      <point x="443" y="540"/>
      <point x="525" y="436" type="curve"/>
      <point x="593" y="436" type="line"/>
    </contour>
  </outline>
</glyph>
<glyph name="uni0940" format="1">
  <advance width="208"/>
  <unicode hex="0940"/>
  <outline>
    <contour>
      <point x="80" y="0" type="line"/>
      <point x="135" y="0" type="line"/>
      <point x="135" y="456" type="line"/>
      <point x="80" y="456" type="line"/>
    </contour>
    <contour>
      <point x="-24" y="456" type="line"/>
      <point x="-24" y="408" type="line"/>
      <point x="232" y="408" type="line"/>
      <point x="232" y="456" type="line"/>
    </contour>
    <contour>
      <point x="116" y="564"/>
      <point x="31" y="649"/>
      <point x="-53" y="649" type="curve" smooth="yes"/>
      <point x="-139" y="649"/>
      <point x="-172" y="598"/>
      <point x="-172" y="538" type="curve" smooth="yes"/>
      <point x="-172" y="472"/>
      <point x="-123" y="439"/>
      <point x="-118" y="439" type="curve" smooth="yes"/>
      <point x="-118" y="439"/>
      <point x="-54" y="439"/>
      <point x="-54" y="439" type="curve"/>
      <point x="-75" y="452"/>
      <point x="-118" y="491"/>
      <point x="-118" y="534" type="curve" smooth="yes"/>
      <point x="-118" y="573"/>
      <point x="-98" y="596"/>
      <point x="-56" y="596" type="curve" smooth="yes"/>
      <point x="-10" y="596"/>
      <point x="53" y="560"/>
      <point x="82" y="436" type="curve"/>
      <point x="137" y="436" type="line"/>
    </contour>
  </outline>
</glyph>
<glyph name="uvowelsigndeva" format="1">
  <advance width="0"/>
  <unicode hex="0941"/>
  <outline>
    <contour>
      <point x="-161" y="-55"/>
      <point x="-131" y="-40"/>
      <point x="-108" y="-40" type="curve" smooth="yes"/>
      <point x="-80" y="-40"/>
      <point x="-65" y="-57"/>
      <point x="-65" y="-84" type="curve" smooth="yes"/>
      <point x="-65" y="-118"/>
      <point x="-98" y="-134"/>
      <point x="-131" y="-134" type="curve" smooth="yes"/>
      <point x="-188" y="-134"/>
      <point x="-236" y="-88"/>
      <point x="-279" y="-47" type="curve"/>
      <point x="-313" y="-84" type="line"/>
      <point x="-277" y="-120"/>
      <point x="-214" y="-185"/>
      <point x="-128" y="-185" type="curve" smooth="yes"/>
      <point x="-64" y="-185"/>
      <point x="-12" y="-147"/>
      <point x="-12" y="-83" type="curve" smooth="yes"/>
      <point x="-12" y="-33"/>
      <point x="-47" y="13"/>
      <point x="-102" y="13" type="curve" smooth="yes"/>
      <point x="-137" y="13"/>
      <point x="-168" y="0"/>
      <point x="-181" y="-7" type="curve"/>
      <point x="-161" y="-55" type="line"/>
    </contour>
    <contour>
      <point x="-102" y="8" type="move" name="_bottom"/>
    </contour>
  </outline>
</glyph>
<glyph name="usigndeva" format="1">
  <advance width="0"/>
  <unicode hex="0941"/>
  <outline>
    <contour>
      <point x="-161" y="-55"/>
      <point x="-131" y="-40"/>
      <point x="-108" y="-40" type="curve" smooth="yes"/>
      <point x="-80" y="-40"/>
      <point x="-65" y="-50"/>
      <point x="-65" y="-79" type="curve" smooth="yes"/>
      <point x="-65" y="-109"/>
      <point x="-98" y="-124"/>
      <point x="-131" y="-124" type="curve" smooth="yes"/>
      <point x="-188" y="-124"/>
      <point x="-236" y="-78"/>
      <point x="-279" y="-37" type="curve"/>
      <point x="-313" y="-74" type="line"/>
      <point x="-277" y="-110"/>
      <point x="-214" y="-175"/>
      <point x="-128" y="-175" type="curve" smooth="yes"/>
      <point x="-64" y="-175"/>
      <point x="-12" y="-137"/>
      <point x="-12" y="-78" type="curve" smooth="yes"/>
      <point x="-12" y="-28"/>
      <point x="-44" y="13"/>
      <point x="-102" y="13" type="curve" smooth="yes"/>
      <point x="-137" y="13"/>
      <point x="-168" y="0"/>
      <point x="-181" y="-7" type="curve"/>
      <point x="-161" y="-55" type="line"/>
    </contour>
    <contour>
      <point x="-102" y="8" type="move" name="_bottom"/>
    </contour>
  </outline>
</glyph>
